<svg role="img" viewBox="0 0 393 367" class="Icon__IconSvg-sc-uat56j-0 boNfQI Footerstyle__FooterLogo-sc-ms8zqh-0 hqmsoq"><path d="M392.4 170.3c0 107.9-87.8 195.7-195.7 195.7S1 278.2 1 170.3c0-31.3 7.6-62.5 22-90.1 13.8-26.7 34-50.2 58.3-68 27.1-19.8 65.2-13.8 84.9 13.2C186 52.5 180 90.6 153 110.3c-1.1.8-2.2 1.7-3.3 2.5-15.7 12.8-25.3 31.2-27 51.1v.4c0 .5-.1 1.1-.1 1.6s-.1 1.1-.1 1.6v2.7c0 40.9 33.3 74.1 74.1 74.1 11.5 0 22.4-2.6 32.1-7.3 24.8-12 42-37.4 42-66.8 0-22.3-9.9-43.2-27.2-57.4-1-.9-2.1-1.7-3.2-2.5-2-1.5-3.4-3.5-4.2-5.7-3.2-4.9-5.2-10.5-5.8-16.5-1-9.8 1.9-19.3 8.1-26.9 6.2-7.6 15-12.3 24.8-13.3 9.7-1 19.3 1.9 26.9 8.1 34.4 28.2 54.1 69.8 54.1 114.2 0 81.3-66.2 147.5-147.5 147.5S49.2 251.5 49.2 170.2c0-44.4 19.7-86 54.1-114.2 5-4.1 12.3-3.3 16.4 1.6 4.1 5 3.3 12.3-1.6 16.4-29 23.7-45.6 58.8-45.6 96.2 0 68.5 55.7 124.2 124.2 124.2s124.2-55.7 124.2-124.2c0-37.4-16.6-72.5-45.6-96.2-2.8-2.3-6.3-3.3-9.8-3-3.6.4-6.8 2.1-9.1 4.9-2.3 2.8-3.3 6.3-3 9.8.4 3.6 2.1 6.8 4.9 9.1l.1.1c.3.2.5.5.8.7l1.5 1.2c.1.1.2.2.4.3 19.5 17.2 31.2 41.2 32.8 67v.3c0 .7.1 1.3.1 2v3.7c0 37.8-21.6 70.6-53.1 86.7-13.3 6.8-28.4 10.7-44.3 10.7-53.7 0-97.4-43.7-97.4-97.4 0-28.2 12.1-54.7 33.2-73.2l.1-.1 1.8-1.5c.2-.1.3-.3.5-.4l.2-.2.1-.1c1.4-1.1 2.7-2.2 4.2-3.2 16.7-12.2 20.4-35.7 8.2-52.4-12.2-16.7-35.7-20.4-52.4-8.2-21.5 15.9-39.3 36.6-51.5 60.1-12.8 24.7-19.3 51.4-19.3 79.4 0 95.1 77.4 172.4 172.4 172.4 95.1 0 172.4-77.4 172.4-172.4 0-28-6.5-54.7-19.3-79.4-12.2-23.5-30-44.3-51.5-59.9-16.7-12.2-40.2-8.5-52.4 8.2-3.8 5.2-11.1 6.3-16.3 2.5-5.2-3.8-6.3-11.1-2.5-16.3C246.9-1.7 285-7.6 312 12.2c24.3 17.8 44.5 41.3 58.4 68 14.4 27.6 22 58.8 22 90.1z" fill="currentColor"></path></svg>