<svg width="1081" height="632" viewBox="0 0 1081 632" fill="none" xmlns="http://www.w3.org/2000/svg">
<rect x="1" y="1" width="1079.14" height="630.353" rx="22" fill="url(#paint0_linear_68_244)"/>
<mask id="mask0_68_244" style="mask-type:alpha" maskUnits="userSpaceOnUse" x="0" y="0" width="1080" height="631">
<rect width="1079.91" height="630.805" rx="22" fill="#ED713C"/>
</mask>
<g mask="url(#mask0_68_244)">
<g opacity="0.92" filter="url(#filter0_ii_68_244)">
<path d="M23 48C23 34.7452 33.7452 24 47 24H1035C1048.25 24 1059 34.7452 1059 48V588C1059 601.255 1048.25 612 1035 612H47C33.7451 612 23 601.255 23 588V48Z" fill="#D9D9D9" fill-opacity="0.01"/>
</g>
<g opacity="0.4">
<path opacity="0.1" d="M-13.5001 114.4C24.7737 114.4 55.7999 82.8814 55.7999 44.0001C55.7999 5.11884 24.7737 -26.3999 -13.5001 -26.3999C-51.7738 -26.3999 -82.8001 5.11884 -82.8001 44.0001C-82.8001 82.8814 -51.7738 114.4 -13.5001 114.4ZM-13.5001 140C-65.6893 140 -108 97.0177 -108 44.0001C-108 -9.01748 -65.6893 -51.9999 -13.5001 -51.9999C38.6891 -51.9999 80.9999 -9.01748 80.9999 44.0001C80.9999 97.0177 38.6891 140 -13.5001 140Z" fill="white"/>
<g opacity="0.1" filter="url(#filter1_d_68_244)">
<path d="M37.4999 63.4001C75.7737 63.4001 106.8 31.8814 106.8 -6.99987C106.8 -45.8812 75.7737 -77.3999 37.4999 -77.3999C-0.773821 -77.3999 -31.8001 -45.8812 -31.8001 -6.99987C-31.8001 31.8814 -0.773821 63.4001 37.4999 63.4001ZM37.4999 89.0001C-14.6893 89.0001 -57.0001 46.0177 -57.0001 -6.99987C-57.0001 -60.0175 -14.6893 -103 37.4999 -103C89.6891 -103 132 -60.0175 132 -6.99987C132 46.0177 89.6891 89.0001 37.4999 89.0001Z" fill="white"/>
</g>
<path opacity="0.1" d="M1054.5 730.4C1092.77 730.4 1123.8 698.881 1123.8 660C1123.8 621.119 1092.77 589.6 1054.5 589.6C1016.23 589.6 985.2 621.119 985.2 660C985.2 698.881 1016.23 730.4 1054.5 730.4ZM1054.5 756C1002.31 756 960 713.018 960 660C960 606.983 1002.31 564 1054.5 564C1106.69 564 1149 606.983 1149 660C1149 713.018 1106.69 756 1054.5 756Z" fill="white"/>
<g opacity="0.1" filter="url(#filter2_d_68_244)">
<path d="M1105.5 679.4C1143.77 679.4 1174.8 647.881 1174.8 609C1174.8 570.119 1143.77 538.6 1105.5 538.6C1067.23 538.6 1036.2 570.119 1036.2 609C1036.2 647.881 1067.23 679.4 1105.5 679.4ZM1105.5 705C1053.31 705 1011 662.018 1011 609C1011 555.983 1053.31 513 1105.5 513C1157.69 513 1200 555.983 1200 609C1200 662.018 1157.69 705 1105.5 705Z" fill="white"/>
</g>
<path opacity="0.1" d="M1186.4 35.5001C1186.4 -2.77365 1154.88 -33.7999 1116 -33.7999C1077.12 -33.7999 1045.6 -2.77364 1045.6 35.5001C1045.6 73.7739 1077.12 104.8 1116 104.8C1154.88 104.8 1186.4 73.7739 1186.4 35.5001ZM1212 35.5001C1212 87.6893 1169.02 130 1116 130C1062.98 130 1020 87.6893 1020 35.5001C1020 -16.6891 1062.98 -58.9999 1116 -58.9999C1169.02 -58.9999 1212 -16.6891 1212 35.5001Z" fill="white"/>
<g opacity="0.1" filter="url(#filter3_d_68_244)">
<path d="M1135.4 -15.4999C1135.4 -53.7736 1103.88 -84.7999 1065 -84.7999C1026.12 -84.7999 994.6 -53.7736 994.6 -15.4999C994.6 22.7739 1026.12 53.8001 1065 53.8001C1103.88 53.8001 1135.4 22.7739 1135.4 -15.4999ZM1161 -15.4999C1161 36.6893 1118.02 79.0001 1065 79.0001C1011.98 79.0001 969 36.6893 969 -15.4999C969 -67.6891 1011.98 -110 1065 -110C1118.02 -110 1161 -67.6891 1161 -15.4999Z" fill="white"/>
</g>
<path opacity="0.1" d="M97.3999 661.5C97.3999 623.226 65.8812 592.2 26.9999 592.2C-11.8813 592.2 -43.4001 623.226 -43.4001 661.5C-43.4001 699.774 -11.8813 730.8 26.9999 730.8C65.8812 730.8 97.3999 699.774 97.3999 661.5ZM123 661.5C123 713.689 80.0175 756 26.9999 756C-26.0177 756 -69.0001 713.689 -69.0001 661.5C-69.0001 609.311 -26.0177 567 26.9999 567C80.0175 567 123 609.311 123 661.5Z" fill="white"/>
<g opacity="0.1" filter="url(#filter4_d_68_244)">
<path d="M46.3999 610.5C46.3999 572.226 14.8812 541.2 -24.0001 541.2C-62.8813 541.2 -94.4001 572.226 -94.4001 610.5C-94.4001 648.774 -62.8813 679.8 -24.0001 679.8C14.8812 679.8 46.3999 648.774 46.3999 610.5ZM71.9999 610.5C71.9999 662.689 29.0175 705 -24.0001 705C-77.0177 705 -120 662.689 -120 610.5C-120 558.311 -77.0177 516 -24.0001 516C29.0175 516 71.9999 558.311 71.9999 610.5Z" fill="white"/>
</g>
</g>
<path d="M521.105 392.105C551.034 392.105 575.295 367.611 575.295 337.395C575.295 307.179 551.034 282.684 521.105 282.684C491.177 282.684 466.916 307.179 466.916 337.395C466.916 367.611 491.177 392.105 521.105 392.105ZM521.105 412C480.296 412 447.21 378.597 447.21 337.395C447.21 296.193 480.296 262.789 521.105 262.789C561.915 262.789 595 296.193 595 337.395C595 378.597 561.915 412 521.105 412Z" fill="#FBCC5C"/>
<path d="M560.895 352.316C590.823 352.316 615.084 327.821 615.084 297.605C615.084 267.389 590.823 242.895 560.895 242.895C530.966 242.895 506.705 267.389 506.705 297.605C506.705 327.821 530.966 352.316 560.895 352.316ZM560.895 372.211C520.085 372.211 487 338.807 487 297.605C487 256.403 520.085 223 560.895 223C601.704 223 634.789 256.403 634.789 297.605C634.789 338.807 601.704 372.211 560.895 372.211Z" fill="#35D07F"/>
<path d="M164.597 524.865C164.08 524.865 163.508 524.81 162.881 524.699C162.254 524.625 161.94 524.404 161.94 524.035C161.94 523.592 162.18 523.297 162.66 523.149C163.139 523.002 163.656 522.891 164.209 522.817C166.46 522.596 168.435 522.042 170.132 521.156C171.83 520.234 173.14 519.145 174.062 517.891C175.022 516.599 175.502 515.307 175.502 514.016C175.502 512.614 175.151 511.396 174.45 510.362C173.749 509.329 172.623 508.407 171.073 507.595C169.56 506.746 167.549 505.953 165.04 505.215C163.896 504.809 163.102 504.403 162.66 503.997C162.254 503.591 162.051 503.037 162.051 502.336C162.051 501.82 162.161 501.1 162.383 500.177C162.604 499.218 162.844 498.222 163.102 497.188C163.398 496.155 163.674 495.214 163.933 494.365C164.228 493.48 164.394 492.889 164.431 492.594C164.652 491.708 165.003 491.081 165.483 490.712C165.999 490.306 166.553 490.029 167.143 489.882C167.844 489.697 168.785 489.513 169.966 489.328C171.184 489.107 172.457 488.904 173.786 488.719C175.114 488.498 176.313 488.313 177.384 488.166C178.454 488.018 179.192 487.944 179.598 487.944C179.893 487.907 180.114 488.018 180.262 488.276C180.41 488.535 180.465 488.812 180.428 489.107C180.354 489.623 180.17 490.214 179.874 490.878C179.579 491.505 179.321 492.096 179.099 492.649C178.841 493.387 178.398 493.996 177.771 494.476C177.144 494.919 176.424 495.177 175.612 495.251C175.022 495.325 174.265 495.38 173.343 495.417C172.42 495.417 171.498 495.454 170.575 495.528C169.653 495.565 168.822 495.602 168.084 495.638C167.346 495.638 166.811 495.675 166.479 495.749C166.221 495.786 165.999 495.952 165.815 496.247C165.63 496.506 165.483 496.801 165.372 497.133C165.261 497.428 165.206 497.668 165.206 497.853C165.206 498.037 165.261 498.203 165.372 498.351C165.483 498.461 165.63 498.535 165.815 498.572C167.881 498.941 169.689 499.421 171.239 500.011C172.826 500.565 174.284 501.174 175.612 501.838C177.974 502.945 179.671 504.366 180.705 506.1C181.738 507.798 182.255 509.661 182.255 511.691C182.255 513.721 181.627 515.695 180.373 517.614C179.118 519.496 177.457 521.009 175.391 522.153C174.653 522.559 173.693 522.965 172.512 523.371C171.368 523.813 170.114 524.164 168.748 524.422C167.383 524.717 165.999 524.865 164.597 524.865ZM211.442 522.983C211.221 522.983 210.667 522.965 209.782 522.928C208.933 522.928 207.918 522.909 206.737 522.872C205.593 522.835 204.412 522.799 203.195 522.762C201.977 522.725 200.907 522.706 199.984 522.706C199.135 522.706 198.194 522.725 197.161 522.762C196.165 522.799 195.205 522.817 194.283 522.817C193.397 522.854 192.641 522.872 192.013 522.872C191.423 522.909 191.072 522.928 190.962 522.928C190.851 522.928 190.629 522.835 190.297 522.651C190.002 522.43 189.855 522.208 189.855 521.987C189.855 521.691 189.928 521.452 190.076 521.267C190.224 521.083 190.371 520.917 190.519 520.769L198.6 511.802C200.556 509.661 202.014 507.521 202.973 505.381C203.933 503.203 204.412 500.842 204.412 498.295C204.412 496.746 204.007 495.454 203.195 494.421C202.42 493.351 201.313 492.815 199.873 492.815C198.582 492.815 197.364 493.184 196.22 493.922C195.076 494.661 194.098 495.454 193.286 496.303C193.102 496.524 192.844 496.782 192.511 497.078C192.179 497.336 191.847 497.465 191.515 497.465C191.22 497.465 191.017 497.354 190.906 497.133C190.796 496.875 190.74 496.561 190.74 496.192C190.74 495.565 191.035 494.808 191.626 493.922C192.253 493 193.102 492.077 194.172 491.155C195.279 490.232 196.534 489.457 197.936 488.83C199.375 488.203 200.888 487.889 202.475 487.889C204.394 487.889 205.999 488.313 207.291 489.162C208.619 490.011 209.634 491.136 210.335 492.539C211.036 493.941 211.387 495.472 211.387 497.133C211.387 498.166 211.147 499.31 210.667 500.565C210.225 501.783 209.671 502.964 209.007 504.108C208.343 505.215 207.66 506.174 206.959 506.986C206.405 507.613 205.704 508.351 204.855 509.2C204.043 510.012 203.195 510.842 202.309 511.691C201.423 512.54 200.575 513.333 199.763 514.071C198.951 514.809 198.305 515.418 197.825 515.898C197.346 516.378 197.106 516.654 197.106 516.728C197.106 516.876 197.383 516.986 197.936 517.06C198.6 517.134 199.394 517.189 200.316 517.226C201.276 517.263 202.143 517.282 202.918 517.282C203.767 517.282 204.597 517.263 205.409 517.226C206.221 517.189 207.033 517.134 207.844 517.06C208.656 516.986 209.357 516.839 209.948 516.617C210.575 516.359 211.11 516.009 211.553 515.566C212.033 515.086 212.457 514.477 212.826 513.739C212.937 513.481 213.121 513.222 213.38 512.964C213.675 512.669 214.007 512.521 214.376 512.521C214.671 512.521 214.874 512.65 214.985 512.909C215.096 513.13 215.096 513.37 214.985 513.628C214.653 514.588 214.302 515.64 213.933 516.783C213.601 517.891 213.306 518.905 213.048 519.828C212.789 520.714 212.642 521.341 212.605 521.71C212.568 522.153 212.383 522.485 212.051 522.706C211.719 522.891 211.516 522.983 211.442 522.983ZM225.353 524.865C224.541 524.865 223.692 524.736 222.806 524.478C221.957 524.256 221.238 523.924 220.647 523.481C220.057 523.075 219.762 522.632 219.762 522.153C219.762 521.71 219.836 521.23 219.983 520.714C220.168 520.16 220.408 519.699 220.703 519.33C220.998 518.961 221.33 518.776 221.699 518.776C222.031 518.776 222.308 518.85 222.529 518.998C222.751 519.145 222.991 519.367 223.249 519.662C223.766 520.215 224.375 520.824 225.076 521.489C225.777 522.153 226.57 522.485 227.456 522.485C228.637 522.485 229.707 522.171 230.666 521.544C231.626 520.88 232.382 519.957 232.936 518.776C233.526 517.595 233.822 516.193 233.822 514.569C233.822 513.056 233.619 511.709 233.213 510.529C232.807 509.348 232.198 508.425 231.386 507.761C230.574 507.097 229.578 506.765 228.397 506.765C227.474 506.765 226.718 506.931 226.127 507.263C225.574 507.558 225.131 507.779 224.799 507.927C224.541 508.075 224.227 508.075 223.858 507.927C223.489 507.742 223.341 507.484 223.415 507.152C223.6 506.451 223.913 505.86 224.356 505.381C224.799 504.901 225.26 504.532 225.74 504.274C226.847 503.72 227.807 503.167 228.618 502.613C229.43 502.023 230.113 501.414 230.666 500.786C231.22 500.159 231.626 499.476 231.884 498.738C232.179 497.963 232.327 497.115 232.327 496.192C232.327 495.011 231.921 493.996 231.109 493.148C230.297 492.262 229.264 491.819 228.009 491.819C226.902 491.819 225.961 492.059 225.186 492.539C224.448 492.981 223.821 493.498 223.304 494.089C222.788 494.679 222.363 495.196 222.031 495.638C221.736 496.081 221.496 496.303 221.312 496.303C221.053 496.303 220.795 496.155 220.537 495.86C220.278 495.565 220.149 495.269 220.149 494.974C220.149 494.642 220.352 494.089 220.758 493.314C221.164 492.539 221.81 491.745 222.696 490.933C223.581 490.085 224.725 489.384 226.127 488.83C227.53 488.24 229.246 487.944 231.275 487.944C232.751 487.944 234.098 488.221 235.316 488.775C236.534 489.328 237.512 490.103 238.25 491.099C238.988 492.096 239.357 493.277 239.357 494.642C239.357 495.491 239.099 496.45 238.582 497.52C238.102 498.591 237.309 499.605 236.202 500.565C235.095 501.487 233.656 502.17 231.884 502.613C231.774 502.65 231.718 502.724 231.718 502.834C231.718 502.908 231.792 502.945 231.94 502.945C233.858 502.945 235.556 503.296 237.032 503.997C238.508 504.698 239.671 505.694 240.519 506.986C241.405 508.241 241.848 509.772 241.848 511.58C241.848 513.61 241.387 515.437 240.464 517.06C239.541 518.684 238.305 520.086 236.755 521.267C235.205 522.411 233.453 523.297 231.497 523.924C229.541 524.551 227.493 524.865 225.353 524.865ZM257.031 522.928C256.81 522.928 256.551 522.854 256.256 522.706C255.961 522.559 255.813 522.356 255.813 522.097C255.813 521.728 255.943 521.47 256.201 521.322C256.459 521.175 256.754 521.064 257.086 520.99C258.563 520.732 259.559 520.381 260.076 519.939C260.592 519.459 260.851 518.666 260.851 517.558V514.403C260.851 514.219 260.74 514.09 260.518 514.016C260.297 513.905 260.094 513.85 259.91 513.85C258.766 513.85 257.456 513.887 255.979 513.96C254.503 514.034 252.99 514.108 251.44 514.182C249.927 514.256 248.488 514.293 247.123 514.293C246.938 514.293 246.754 514.256 246.569 514.182C246.385 514.108 246.293 513.997 246.293 513.85C246.293 513.702 246.385 513.499 246.569 513.241C246.828 512.909 247.031 512.65 247.178 512.466C247.363 512.244 247.529 512.023 247.676 511.802C247.861 511.543 248.045 511.285 248.23 511.027L261.902 489.162C262.197 488.682 262.566 488.24 263.009 487.834C263.489 487.428 263.932 487.225 264.338 487.225H264.836C265.131 487.225 265.297 487.372 265.334 487.668C265.408 487.926 265.371 488.166 265.223 488.387L252.215 509.034C252.068 509.329 252.049 509.532 252.16 509.643C252.271 509.754 252.437 509.809 252.658 509.809H260.408C260.518 509.809 260.611 509.772 260.684 509.698C260.795 509.624 260.851 509.532 260.851 509.421V502.779C260.851 502.115 260.887 501.672 260.961 501.451C261.072 501.192 261.33 500.989 261.736 500.842C262.733 500.362 263.803 500.048 264.947 499.901C266.091 499.753 266.884 499.679 267.327 499.679C268.065 499.679 268.489 500.048 268.6 500.786C268.748 501.487 268.821 502.539 268.821 503.941V509.754C268.821 510.012 268.914 510.141 269.098 510.141C269.578 510.178 269.928 510.196 270.15 510.196C270.408 510.196 270.722 510.196 271.091 510.196C271.644 510.196 272.143 510.196 272.585 510.196C273.028 510.16 273.582 510.123 274.246 510.086C274.689 510.086 274.91 510.215 274.91 510.473C274.91 510.768 274.836 511.193 274.689 511.746C274.541 512.3 274.357 512.816 274.135 513.296C273.951 513.739 273.785 513.96 273.637 513.96C273.194 513.96 272.77 513.96 272.364 513.96C271.958 513.924 271.515 513.905 271.036 513.905C270.667 513.905 270.39 513.924 270.205 513.96C270.058 513.96 269.855 513.979 269.596 514.016C269.449 514.053 269.283 514.108 269.098 514.182C268.914 514.256 268.821 514.311 268.821 514.348V517.503C268.821 518.536 269.061 519.274 269.541 519.717C270.021 520.16 270.98 520.584 272.419 520.99C272.752 521.101 273.047 521.23 273.305 521.378C273.6 521.525 273.748 521.765 273.748 522.097C273.748 522.319 273.619 522.503 273.36 522.651C273.139 522.799 272.881 522.872 272.585 522.872C271.774 522.872 270.888 522.854 269.928 522.817C269.006 522.78 268.102 522.743 267.216 522.706C266.331 522.669 265.5 522.651 264.725 522.651C263.95 522.651 263.12 522.669 262.234 522.706C261.386 522.743 260.518 522.78 259.633 522.817C258.747 522.891 257.88 522.928 257.031 522.928ZM281.182 524.422C280.001 524.422 278.968 523.979 278.082 523.094C277.196 522.245 276.753 521.212 276.753 519.994C276.753 518.702 277.196 517.614 278.082 516.728C278.968 515.842 280.001 515.4 281.182 515.4C282.51 515.4 283.599 515.842 284.448 516.728C285.333 517.614 285.776 518.702 285.776 519.994C285.776 521.212 285.333 522.245 284.448 523.094C283.599 523.979 282.51 524.422 281.182 524.422ZM302.552 523.537C300.338 523.537 298.419 523.02 296.795 521.987C295.172 520.953 293.806 519.588 292.699 517.891C291.629 516.156 290.836 514.256 290.319 512.189C289.802 510.123 289.544 508.075 289.544 506.045C289.544 503.941 289.802 501.82 290.319 499.679C290.836 497.539 291.647 495.583 292.754 493.812C293.862 492.004 295.282 490.564 297.017 489.494C298.751 488.387 300.799 487.834 303.161 487.834C305.375 487.834 307.294 488.35 308.918 489.384C310.578 490.417 311.925 491.801 312.958 493.535C314.029 495.233 314.822 497.115 315.339 499.181C315.892 501.211 316.169 503.222 316.169 505.215C316.169 507.318 315.911 509.44 315.394 511.58C314.877 513.721 314.066 515.695 312.958 517.503C311.888 519.311 310.486 520.769 308.752 521.876C307.054 522.983 304.988 523.537 302.552 523.537ZM303.382 521.046C304.563 521.046 305.504 520.363 306.205 518.998C306.943 517.595 307.478 515.769 307.811 513.518C308.143 511.267 308.309 508.831 308.309 506.211C308.309 504.255 308.18 502.336 307.921 500.454C307.663 498.572 307.276 496.875 306.759 495.362C306.242 493.812 305.615 492.594 304.877 491.708C304.139 490.786 303.272 490.325 302.275 490.325C301.094 490.325 300.153 491.026 299.452 492.428C298.751 493.793 298.234 495.602 297.902 497.853C297.607 500.067 297.459 502.484 297.459 505.104C297.459 507.06 297.57 508.979 297.792 510.861C298.05 512.743 298.419 514.459 298.899 516.009C299.415 517.522 300.043 518.739 300.781 519.662C301.519 520.584 302.386 521.046 303.382 521.046ZM329.304 522.928C329.083 522.928 328.824 522.854 328.529 522.706C328.234 522.559 328.086 522.356 328.086 522.097C328.086 521.728 328.216 521.47 328.474 521.322C328.732 521.175 329.027 521.064 329.36 520.99C330.836 520.732 331.832 520.381 332.349 519.939C332.865 519.459 333.124 518.666 333.124 517.558V514.403C333.124 514.219 333.013 514.09 332.791 514.016C332.57 513.905 332.367 513.85 332.183 513.85C331.039 513.85 329.729 513.887 328.252 513.96C326.776 514.034 325.263 514.108 323.713 514.182C322.2 514.256 320.761 514.293 319.396 514.293C319.211 514.293 319.027 514.256 318.842 514.182C318.658 514.108 318.566 513.997 318.566 513.85C318.566 513.702 318.658 513.499 318.842 513.241C319.101 512.909 319.304 512.65 319.451 512.466C319.636 512.244 319.802 512.023 319.949 511.802C320.134 511.543 320.318 511.285 320.503 511.027L334.175 489.162C334.47 488.682 334.84 488.24 335.282 487.834C335.762 487.428 336.205 487.225 336.611 487.225H337.109C337.404 487.225 337.57 487.372 337.607 487.668C337.681 487.926 337.644 488.166 337.496 488.387L324.488 509.034C324.341 509.329 324.322 509.532 324.433 509.643C324.544 509.754 324.71 509.809 324.931 509.809H332.681C332.791 509.809 332.884 509.772 332.957 509.698C333.068 509.624 333.124 509.532 333.124 509.421V502.779C333.124 502.115 333.16 501.672 333.234 501.451C333.345 501.192 333.603 500.989 334.009 500.842C335.006 500.362 336.076 500.048 337.22 499.901C338.364 499.753 339.157 499.679 339.6 499.679C340.338 499.679 340.762 500.048 340.873 500.786C341.021 501.487 341.094 502.539 341.094 503.941V509.754C341.094 510.012 341.187 510.141 341.371 510.141C341.851 510.178 342.202 510.196 342.423 510.196C342.681 510.196 342.995 510.196 343.364 510.196C343.917 510.196 344.416 510.196 344.858 510.196C345.301 510.16 345.855 510.123 346.519 510.086C346.962 510.086 347.183 510.215 347.183 510.473C347.183 510.768 347.11 511.193 346.962 511.746C346.814 512.3 346.63 512.816 346.408 513.296C346.224 513.739 346.058 513.96 345.91 513.96C345.467 513.96 345.043 513.96 344.637 513.96C344.231 513.924 343.788 513.905 343.309 513.905C342.94 513.905 342.663 513.924 342.478 513.96C342.331 513.96 342.128 513.979 341.869 514.016C341.722 514.053 341.556 514.108 341.371 514.182C341.187 514.256 341.094 514.311 341.094 514.348V517.503C341.094 518.536 341.334 519.274 341.814 519.717C342.294 520.16 343.253 520.584 344.692 520.99C345.025 521.101 345.32 521.23 345.578 521.378C345.873 521.525 346.021 521.765 346.021 522.097C346.021 522.319 345.892 522.503 345.633 522.651C345.412 522.799 345.154 522.872 344.858 522.872C344.047 522.872 343.161 522.854 342.202 522.817C341.279 522.78 340.375 522.743 339.489 522.706C338.604 522.669 337.773 522.651 336.998 522.651C336.223 522.651 335.393 522.669 334.507 522.706C333.659 522.743 332.791 522.78 331.906 522.817C331.02 522.891 330.153 522.928 329.304 522.928ZM353.178 522.928C352.957 522.928 352.735 522.854 352.514 522.706C352.292 522.559 352.182 522.374 352.182 522.153C352.182 521.562 352.532 521.175 353.233 520.99C354.267 520.732 355.152 520.474 355.89 520.215C356.628 519.957 357.2 519.607 357.606 519.164C358.012 518.684 358.215 518.057 358.215 517.282V497.244C358.215 496.358 357.975 495.694 357.496 495.251C357.053 494.771 356.462 494.421 355.724 494.199C355.023 493.978 354.267 493.812 353.455 493.701C353.159 493.627 352.846 493.498 352.514 493.314C352.182 493.129 352.016 492.834 352.016 492.428C352.016 491.948 352.182 491.616 352.514 491.432C352.883 491.21 353.289 491.081 353.731 491.044C355.909 490.86 357.865 490.509 359.599 489.992C361.333 489.476 363.049 488.719 364.747 487.723C364.821 487.686 364.913 487.649 365.024 487.612C365.134 487.575 365.245 487.557 365.356 487.557C365.614 487.557 365.854 487.612 366.075 487.723C366.334 487.834 366.463 487.963 366.463 488.11C366.463 488.59 366.407 489.144 366.297 489.771C366.223 490.361 366.186 491.155 366.186 492.151V517.337C366.186 518.038 366.407 518.61 366.85 519.053C367.293 519.496 367.92 519.865 368.732 520.16C369.544 520.418 370.485 520.695 371.555 520.99C371.851 521.101 372.09 521.23 372.275 521.378C372.459 521.525 372.552 521.765 372.552 522.097C372.552 522.614 372.275 522.872 371.721 522.872C370.873 522.872 369.858 522.854 368.677 522.817C367.533 522.78 366.389 522.743 365.245 522.706C364.138 522.669 363.178 522.651 362.367 522.651C361.592 522.651 360.651 522.669 359.544 522.706C358.437 522.743 357.311 522.78 356.167 522.817C355.023 522.891 354.027 522.928 353.178 522.928Z" fill="white"/>
<path d="M127.813 134.062C124.509 134.062 121.324 133.496 118.256 132.363C115.188 131.23 112.451 129.626 110.044 127.549C107.637 125.425 105.725 122.9 104.31 119.974C102.941 117.001 102.257 113.721 102.257 110.134C102.257 106.688 102.988 103.503 104.451 100.577C105.914 97.6505 107.92 95.1019 110.469 92.9309C113.017 90.7599 115.92 89.0844 119.176 87.9046C122.48 86.6775 125.949 86.0639 129.583 86.0639C131.423 86.0639 132.981 86.1347 134.255 86.2763C135.529 86.4179 136.757 86.6303 137.936 86.9134C139.164 87.1494 140.579 87.4798 142.184 87.9046C142.892 88.0933 143.388 88.3765 143.671 88.7541C144.001 89.1316 144.19 89.6508 144.237 90.3115C144.331 91.397 144.449 92.5769 144.591 93.8512C144.733 95.0783 144.827 96.6122 144.874 98.4528C144.921 98.7831 144.756 99.0663 144.379 99.3023C144.048 99.4911 143.671 99.5383 143.246 99.4439C142.868 99.3495 142.609 99.0427 142.467 98.5236C141.995 96.7301 141.452 95.1963 140.839 93.922C140.225 92.6005 139.305 91.515 138.078 90.6655C136.898 89.8632 135.459 89.2732 133.76 88.8957C132.108 88.4709 130.314 88.2585 128.379 88.2585C125.642 88.2585 123.093 88.8249 120.734 89.9576C118.421 91.0431 116.415 92.5533 114.716 94.4883C113.064 96.3762 111.766 98.5236 110.823 100.931C109.879 103.338 109.407 105.839 109.407 108.435C109.407 111.314 109.855 114.145 110.752 116.93C111.696 119.714 113.017 122.239 114.716 124.505C116.462 126.723 118.515 128.516 120.875 129.885C123.282 131.207 125.949 131.867 128.875 131.867C132.273 131.867 135.081 131.089 137.299 129.531C139.517 127.974 141.405 125.803 142.963 123.018C143.293 122.405 143.765 122.098 144.379 122.098C145.039 122.098 145.37 122.475 145.37 123.23C145.37 123.608 145.275 124.222 145.087 125.071C144.898 125.873 144.638 126.747 144.308 127.69C144.025 128.587 143.741 129.39 143.458 130.097C143.128 130.758 142.845 131.183 142.609 131.372C142.42 131.561 141.948 131.773 141.193 132.009C139.447 132.717 137.346 133.236 134.892 133.566C132.485 133.897 130.126 134.062 127.813 134.062ZM164.34 134.062C161.744 134.062 159.478 133.425 157.543 132.15C155.608 130.876 154.098 129.083 153.013 126.77C151.927 124.41 151.384 121.697 151.384 118.629C151.384 115.892 151.998 113.414 153.225 111.196C154.499 108.93 156.175 107.113 158.251 105.745C160.328 104.376 162.593 103.691 165.048 103.691C166.935 103.691 168.611 104.069 170.074 104.824C171.537 105.579 172.67 106.641 173.472 108.01C174.321 109.331 174.746 110.865 174.746 112.611C174.746 114.075 174.038 114.806 172.622 114.806H157.685C157.024 114.806 156.552 114.995 156.269 115.372C156.033 115.703 155.915 116.387 155.915 117.425C155.915 119.691 156.411 121.767 157.402 123.655C158.393 125.496 159.714 126.983 161.366 128.115C163.018 129.201 164.835 129.743 166.817 129.743C168.233 129.743 169.508 129.484 170.64 128.965C171.82 128.398 172.858 127.596 173.755 126.558C173.944 126.322 174.086 126.18 174.18 126.133C174.274 126.039 174.392 125.991 174.534 125.991C174.911 125.991 175.1 126.227 175.1 126.699C175.1 127.596 174.675 128.587 173.826 129.673C173.118 130.569 172.268 131.348 171.277 132.009C170.286 132.67 169.201 133.165 168.021 133.496C166.841 133.873 165.614 134.062 164.34 134.062ZM157.827 112.611H164.269C165.402 112.611 166.369 112.588 167.171 112.541C167.974 112.493 168.752 112.399 169.508 112.258C169.744 112.21 169.885 112.069 169.932 111.833C170.027 111.55 170.074 111.172 170.074 110.7C170.074 109.331 169.46 108.175 168.233 107.231C167.053 106.24 165.637 105.745 163.986 105.745C162.9 105.745 161.815 106.075 160.729 106.736C159.644 107.349 158.747 108.128 158.039 109.072C157.331 110.016 156.977 110.96 156.977 111.904C156.977 112.375 157.26 112.611 157.827 112.611ZM179.606 133.212C179.37 133.212 179.063 133.165 178.686 133.071C178.355 133.024 178.19 132.858 178.19 132.575C178.19 132.198 178.355 131.938 178.686 131.797C179.063 131.608 179.441 131.443 179.818 131.301C180.526 131.065 181.211 130.805 181.872 130.522C182.532 130.192 182.863 129.555 182.863 128.611V92.9309C182.863 91.5622 182.603 90.4295 182.084 89.5328C181.612 88.5889 180.786 87.9989 179.606 87.763C179.229 87.6686 179.04 87.3618 179.04 86.8427C179.04 86.3707 179.205 86.0875 179.535 85.9931C180.762 85.71 181.824 85.4268 182.721 85.1436C183.618 84.8132 184.444 84.4829 185.199 84.1525C186.001 83.8221 186.78 83.5154 187.535 83.2322C187.724 83.1378 187.865 83.0906 187.96 83.0906C188.054 83.0906 188.125 83.1614 188.172 83.303C188.267 83.3974 188.314 83.4918 188.314 83.5862C188.314 84.0109 188.219 84.9312 188.031 86.3471C187.889 87.7158 187.818 90.0048 187.818 93.2141V128.611C187.818 129.555 188.149 130.192 188.809 130.522C189.47 130.805 190.154 131.065 190.862 131.301C191.24 131.443 191.594 131.608 191.924 131.797C192.302 131.938 192.491 132.198 192.491 132.575C192.491 132.858 192.302 133.024 191.924 133.071C191.594 133.165 191.311 133.212 191.075 133.212C190.178 133.212 189.446 133.165 188.88 133.071C188.361 133.024 187.842 132.976 187.323 132.929C186.851 132.882 186.19 132.858 185.34 132.858C184.538 132.858 183.877 132.882 183.358 132.929C182.839 132.976 182.32 133.024 181.801 133.071C181.282 133.165 180.55 133.212 179.606 133.212ZM210.418 133.991C207.775 133.991 205.392 133.378 203.268 132.15C201.144 130.923 199.445 129.248 198.171 127.124C196.944 124.953 196.33 122.499 196.33 119.762C196.33 117.779 196.708 115.844 197.463 113.957C198.265 112.069 199.374 110.346 200.79 108.789C202.206 107.231 203.858 106.004 205.746 105.107C207.633 104.163 209.663 103.691 211.834 103.691C214.571 103.691 217.025 104.352 219.196 105.674C221.414 106.995 223.161 108.741 224.435 110.912C225.756 113.036 226.417 115.372 226.417 117.921C226.417 120.658 225.804 123.254 224.577 125.708C223.397 128.162 221.627 130.168 219.267 131.726C216.907 133.236 213.958 133.991 210.418 133.991ZM211.905 131.867C213.509 131.867 214.949 131.561 216.223 130.947C217.497 130.333 218.488 129.342 219.196 127.974C219.763 126.888 220.14 125.567 220.329 124.009C220.518 122.452 220.612 120.989 220.612 119.62C220.612 117.355 220.187 115.184 219.338 113.107C218.536 110.983 217.379 109.261 215.869 107.939C214.406 106.57 212.66 105.886 210.63 105.886C209.356 105.886 208.2 106.098 207.161 106.523C206.17 106.901 205.25 107.632 204.4 108.718C203.457 109.898 202.843 111.337 202.56 113.036C202.277 114.735 202.135 116.434 202.135 118.133C202.135 120.446 202.56 122.664 203.409 124.788C204.259 126.865 205.415 128.564 206.878 129.885C208.341 131.207 210.017 131.867 211.905 131.867Z" fill="white"/>
<path d="M731.402 127.153C731.13 127.153 730.892 127.102 730.689 127C730.485 126.864 730.383 126.677 730.383 126.44C730.383 125.896 730.74 125.539 731.453 125.369C732.744 125.098 733.644 124.758 734.153 124.35C734.663 123.909 734.918 123.145 734.918 122.058V98.9247C734.918 97.8377 734.697 97.0734 734.255 96.6319C733.814 96.1563 732.914 95.7656 731.555 95.4599C730.841 95.2901 730.485 94.9334 730.485 94.3899C730.485 94.1521 730.587 93.9653 730.791 93.8294C730.994 93.6935 731.232 93.6256 731.504 93.6256C732.285 93.6256 733.1 93.6426 733.95 93.6766C734.833 93.7105 735.682 93.7615 736.497 93.8294C737.346 93.8634 738.128 93.8804 738.841 93.8804C739.52 93.8804 740.285 93.8634 741.134 93.8294C742.017 93.7955 742.9 93.7615 743.784 93.7275C744.701 93.6935 745.533 93.6766 746.28 93.6766C746.586 93.6766 746.824 93.7445 746.994 93.8804C747.163 93.9823 747.248 94.1521 747.248 94.3899C747.248 94.7296 747.147 94.9674 746.943 95.1033C746.773 95.2391 746.501 95.358 746.127 95.4599C744.769 95.8336 743.869 96.2582 743.427 96.7338C742.985 97.1754 742.765 97.9227 742.765 98.9757V122.007C742.765 122.992 743.002 123.722 743.478 124.198C743.987 124.639 744.905 125.03 746.229 125.369C746.569 125.471 746.824 125.59 746.994 125.726C747.197 125.862 747.299 126.083 747.299 126.389C747.299 126.626 747.214 126.813 747.045 126.949C746.909 127.085 746.688 127.153 746.382 127.153C745.635 127.153 744.803 127.119 743.885 127.051C742.968 127.017 742.068 126.983 741.185 126.949C740.302 126.915 739.52 126.898 738.841 126.898C738.128 126.898 737.346 126.915 736.497 126.949C735.648 126.983 734.782 127.017 733.899 127.051C733.015 127.119 732.183 127.153 731.402 127.153ZM750.217 127.153C749.979 127.153 749.741 127.102 749.503 127C749.3 126.864 749.198 126.677 749.198 126.44C749.198 126.168 749.317 125.964 749.554 125.828C749.792 125.658 750.064 125.522 750.37 125.42C750.879 125.251 751.321 125.064 751.694 124.86C752.102 124.622 752.306 124.164 752.306 123.484V111.816C752.306 111.069 752.204 110.44 752 109.931C751.796 109.387 751.372 109.064 750.726 108.963C750.59 108.929 750.455 108.844 750.319 108.708C750.217 108.572 750.166 108.351 750.166 108.045C750.166 107.57 750.336 107.281 750.675 107.179C751.525 106.975 752.408 106.738 753.325 106.466C754.276 106.16 755.176 105.854 756.026 105.549C756.909 105.209 757.673 104.852 758.318 104.479C758.42 104.445 758.522 104.394 758.624 104.326C758.726 104.258 758.828 104.224 758.93 104.224C759.236 104.224 759.388 104.411 759.388 104.784C759.388 105.056 759.337 105.515 759.236 106.16C759.168 106.806 759.134 107.366 759.134 107.842C759.134 108.181 759.168 108.385 759.236 108.453H759.337C760.391 107.434 761.528 106.602 762.751 105.956C763.974 105.311 765.367 104.988 766.93 104.988C767.983 104.988 768.951 105.362 769.834 106.109C770.717 106.823 771.379 107.757 771.821 108.912H772.025C773.044 107.689 774.182 106.738 775.439 106.058C776.73 105.345 778.173 104.988 779.77 104.988C780.823 104.988 781.774 105.294 782.623 105.905C783.472 106.483 784.152 107.315 784.661 108.402C785.171 109.489 785.426 110.78 785.426 112.275V123.484C785.426 124.164 785.612 124.622 785.986 124.86C786.394 125.064 786.852 125.251 787.362 125.42C787.634 125.522 787.871 125.658 788.075 125.828C788.279 125.964 788.381 126.168 788.381 126.44C788.381 126.677 788.296 126.864 788.126 127C787.956 127.102 787.752 127.153 787.515 127.153C786.835 127.153 786.19 127.119 785.578 127.051C785.001 127.017 784.423 126.983 783.846 126.949C783.302 126.915 782.725 126.898 782.114 126.898C781.536 126.898 780.993 126.915 780.483 126.949C779.974 126.983 779.464 127.017 778.954 127.051C778.445 127.119 777.85 127.153 777.171 127.153C776.933 127.153 776.73 127.102 776.56 127C776.39 126.864 776.305 126.677 776.305 126.44C776.305 126.168 776.39 125.947 776.56 125.777C776.763 125.607 777.018 125.488 777.324 125.42C777.766 125.285 778.105 125.115 778.343 124.911C778.581 124.673 778.7 124.299 778.7 123.79V113.345C778.7 112.495 778.581 111.765 778.343 111.154C778.105 110.542 777.766 110.067 777.324 109.727C776.916 109.353 776.441 109.166 775.897 109.166C775.456 109.166 774.963 109.268 774.42 109.472C773.91 109.642 773.401 109.948 772.891 110.389C772.415 110.797 772.178 111.51 772.178 112.529V123.484C772.178 124.164 772.314 124.622 772.585 124.86C772.857 125.064 773.248 125.251 773.757 125.42C774.029 125.488 774.267 125.607 774.471 125.777C774.674 125.947 774.776 126.168 774.776 126.44C774.776 126.677 774.674 126.864 774.471 127C774.301 127.102 774.114 127.153 773.91 127.153C773.231 127.153 772.619 127.119 772.076 127.051C771.532 127.017 771.006 126.983 770.496 126.949C770.021 126.915 769.477 126.898 768.866 126.898C768.288 126.898 767.745 126.915 767.235 126.949C766.76 126.983 766.25 127.017 765.707 127.051C765.197 127.119 764.603 127.153 763.923 127.153C763.719 127.153 763.533 127.102 763.363 127C763.193 126.864 763.108 126.677 763.108 126.44C763.108 126.168 763.193 125.964 763.363 125.828C763.567 125.658 763.804 125.522 764.076 125.42C764.552 125.251 764.908 125.064 765.146 124.86C765.384 124.656 765.503 124.299 765.503 123.79V113.345C765.503 112.495 765.384 111.782 765.146 111.204C764.908 110.593 764.586 110.117 764.178 109.778C763.77 109.404 763.278 109.217 762.7 109.217C762.293 109.217 761.817 109.302 761.274 109.472C760.764 109.642 760.221 109.931 759.643 110.338C759.202 110.644 758.981 111.306 758.981 112.325V123.484C758.981 124.096 759.083 124.537 759.287 124.809C759.524 125.047 759.898 125.251 760.407 125.42C760.679 125.522 760.9 125.658 761.07 125.828C761.274 125.964 761.376 126.168 761.376 126.44C761.376 126.643 761.291 126.813 761.121 126.949C760.951 127.085 760.764 127.153 760.56 127.153C759.881 127.153 759.27 127.119 758.726 127.051C758.216 127.017 757.707 126.983 757.197 126.949C756.722 126.915 756.178 126.898 755.567 126.898C754.989 126.898 754.412 126.915 753.835 126.949C753.291 126.983 752.714 127.017 752.102 127.051C751.525 127.119 750.896 127.153 750.217 127.153ZM791.063 140.35C790.825 140.35 790.587 140.282 790.35 140.146C790.146 140.044 790.044 139.874 790.044 139.636C790.044 139.365 790.146 139.144 790.35 138.974C790.587 138.838 790.876 138.719 791.216 138.617C791.929 138.38 792.422 138.125 792.694 137.853C792.999 137.615 793.152 137.225 793.152 136.681V112.275C793.152 111.833 793.067 111.408 792.897 111.001C792.728 110.593 792.49 110.236 792.184 109.931C791.878 109.591 791.488 109.387 791.012 109.319C790.808 109.251 790.655 109.166 790.554 109.064C790.452 108.929 790.401 108.708 790.401 108.402C790.401 108.13 790.452 107.926 790.554 107.791C790.655 107.655 790.791 107.57 790.961 107.536C792.15 107.264 793.424 106.907 794.783 106.466C796.141 106.024 797.313 105.566 798.298 105.09C798.434 105.022 798.57 104.954 798.706 104.886C798.876 104.784 799.029 104.733 799.165 104.733C799.368 104.733 799.487 104.801 799.521 104.937C799.589 105.039 799.623 105.175 799.623 105.345C799.623 105.617 799.572 106.075 799.47 106.721C799.402 107.332 799.368 107.859 799.368 108.3C799.368 108.64 799.402 108.844 799.47 108.912C799.81 108.572 800.404 108.113 801.254 107.536C802.137 106.958 803.139 106.449 804.26 106.007C805.381 105.566 806.468 105.345 807.521 105.345C809.355 105.345 810.901 105.837 812.158 106.823C813.449 107.774 814.434 109.013 815.113 110.542C815.792 112.037 816.132 113.616 816.132 115.281C816.132 116.877 815.826 118.423 815.215 119.917C814.637 121.412 813.805 122.771 812.718 123.994C811.631 125.183 810.374 126.134 808.948 126.847C807.521 127.56 805.992 127.917 804.362 127.917C803.988 127.917 803.53 127.866 802.986 127.764C802.477 127.662 801.95 127.527 801.407 127.357C800.897 127.187 800.421 127.017 799.98 126.847C799.946 126.847 799.912 126.898 799.878 127C799.844 127.102 799.81 127.221 799.776 127.357C799.776 127.493 799.776 127.628 799.776 127.764V136.223C799.776 136.664 799.878 137.038 800.082 137.344C800.32 137.649 800.642 137.887 801.05 138.057C801.458 138.261 801.95 138.448 802.528 138.617C802.867 138.719 803.139 138.838 803.343 138.974C803.547 139.144 803.649 139.365 803.649 139.636C803.649 139.84 803.547 140.01 803.343 140.146C803.173 140.282 802.986 140.35 802.782 140.35C801.763 140.35 800.693 140.299 799.572 140.197C798.485 140.129 797.5 140.095 796.617 140.095C796.039 140.095 795.445 140.112 794.834 140.146C794.256 140.18 793.645 140.214 792.999 140.248C792.388 140.316 791.742 140.35 791.063 140.35ZM804.209 125.573C804.583 125.573 805.024 125.437 805.534 125.166C806.077 124.86 806.604 124.384 807.113 123.739C807.657 123.094 808.098 122.227 808.438 121.14C808.812 120.053 808.999 118.712 808.999 117.115C808.999 115.247 808.812 113.769 808.438 112.682C808.064 111.561 807.606 110.729 807.062 110.185C806.519 109.642 805.958 109.285 805.381 109.115C804.837 108.912 804.362 108.81 803.954 108.81C803.343 108.81 802.714 108.946 802.069 109.217C801.424 109.489 800.897 109.812 800.489 110.185C800.082 110.559 799.878 110.899 799.878 111.204C799.878 111.476 799.878 112.003 799.878 112.784C799.878 113.565 799.861 114.432 799.827 115.383C799.827 116.334 799.81 117.2 799.776 117.981C799.776 118.763 799.776 119.306 799.776 119.612C799.776 120.393 799.946 121.259 800.286 122.21C800.659 123.128 801.169 123.926 801.814 124.605C802.494 125.251 803.292 125.573 804.209 125.573ZM823.667 127.713C822.75 127.713 821.9 127.493 821.119 127.051C820.338 126.609 819.709 126.032 819.234 125.319C818.792 124.605 818.571 123.824 818.571 122.975C818.571 121.82 818.928 120.852 819.641 120.07C820.389 119.289 821.476 118.593 822.902 117.981L827.437 115.994C828.117 115.688 828.524 115.417 828.66 115.179C828.83 114.941 828.915 114.499 828.915 113.854L828.966 110.95C829 109.999 828.83 109.251 828.456 108.708C828.083 108.13 827.522 107.842 826.775 107.842C826.333 107.842 825.892 107.943 825.45 108.147C825.009 108.317 824.669 108.521 824.431 108.759C824.329 108.895 824.244 109.064 824.176 109.268C824.142 109.438 824.125 109.625 824.125 109.829C824.125 110.033 824.142 110.287 824.176 110.593C824.21 110.865 824.227 111.103 824.227 111.306C824.227 111.51 823.956 111.782 823.412 112.122C822.869 112.427 822.24 112.716 821.527 112.988C820.813 113.226 820.202 113.345 819.692 113.345C819.455 113.345 819.234 113.243 819.03 113.039C818.86 112.835 818.775 112.58 818.775 112.275C818.775 111.731 818.962 111.204 819.336 110.695C819.709 110.151 820.321 109.54 821.17 108.861C822.053 108.113 823.021 107.451 824.074 106.873C825.127 106.296 826.163 105.837 827.183 105.498C828.236 105.158 829.119 104.988 829.832 104.988C831.666 104.988 833.127 105.583 834.214 106.772C835.301 107.926 835.811 109.472 835.743 111.408L835.488 121.701C835.454 122.482 835.59 123.145 835.896 123.688C836.201 124.232 836.575 124.503 837.017 124.503C837.662 124.503 838.222 124.282 838.698 123.841C838.8 123.739 838.902 123.688 839.004 123.688C839.174 123.688 839.309 123.739 839.411 123.841C839.547 123.943 839.615 124.079 839.615 124.249C839.615 124.656 839.309 125.183 838.698 125.828C838.053 126.44 837.373 126.898 836.66 127.204C835.947 127.544 835.199 127.713 834.418 127.713C832.516 127.713 830.936 126.745 829.679 124.809H829.577C828.456 125.828 827.437 126.558 826.52 127C825.637 127.476 824.686 127.713 823.667 127.713ZM826.724 124.401C827.098 124.401 827.403 124.35 827.641 124.249C827.879 124.113 828.117 123.909 828.354 123.637C828.456 123.501 828.541 123.331 828.609 123.128C828.677 122.89 828.711 122.618 828.711 122.312L828.864 118.644C828.864 118.304 828.813 118.083 828.711 117.981C828.609 117.879 828.49 117.828 828.354 117.828C828.287 117.828 828.202 117.845 828.1 117.879C827.998 117.913 827.879 117.964 827.743 118.032C826.758 118.508 826.028 119 825.552 119.51C825.076 119.985 824.839 120.767 824.839 121.854C824.839 122.839 825.043 123.518 825.45 123.892C825.858 124.232 826.282 124.401 826.724 124.401ZM850.187 127.713C848.386 127.713 846.756 127.238 845.295 126.287C843.869 125.302 842.731 123.994 841.881 122.363C841.066 120.699 840.658 118.83 840.658 116.758C840.658 114.55 841.168 112.563 842.187 110.797C843.206 109.03 844.565 107.621 846.263 106.568C847.996 105.515 849.915 104.988 852.021 104.988C854.807 104.988 857.116 105.905 858.951 107.74C859.256 108.079 859.409 108.385 859.409 108.657C859.409 108.861 859.256 109.166 858.951 109.574C858.645 109.948 858.305 110.287 857.932 110.593C857.558 110.899 857.235 111.052 856.964 111.052C856.658 111.052 856.352 110.967 856.046 110.797C855.775 110.593 855.503 110.372 855.231 110.134C854.348 109.387 853.448 108.793 852.531 108.351C851.647 107.876 850.883 107.638 850.238 107.638C848.947 107.638 847.962 108.181 847.282 109.268C846.637 110.321 846.314 112.054 846.314 114.465C846.314 116.13 846.569 117.574 847.079 118.797C847.622 119.985 848.386 120.903 849.371 121.548C850.357 122.193 851.546 122.516 852.938 122.516C853.957 122.516 854.84 122.363 855.588 122.058C856.335 121.718 857.116 121.208 857.932 120.529C858.101 120.427 858.237 120.325 858.339 120.223C858.475 120.121 858.628 120.07 858.798 120.07C859.205 120.07 859.409 120.342 859.409 120.886C859.409 121.021 859.375 121.225 859.307 121.497C859.273 121.735 859.172 122.007 859.002 122.312C858.696 122.992 858.101 123.756 857.218 124.605C856.369 125.454 855.35 126.185 854.161 126.796C852.972 127.408 851.647 127.713 850.187 127.713ZM871.543 127.713C869.301 127.713 867.62 127.153 866.499 126.032C865.378 124.877 864.817 123.263 864.817 121.191V109.472C864.817 109.166 864.698 108.946 864.46 108.81C864.257 108.674 863.849 108.589 863.238 108.555H862.575C862.337 108.555 862.134 108.368 861.964 107.994C861.828 107.587 861.76 107.23 861.76 106.924C861.76 106.856 861.777 106.772 861.811 106.67C861.879 106.534 861.964 106.449 862.066 106.415C862.881 106.109 863.747 105.651 864.664 105.039C865.615 104.394 866.516 103.714 867.365 103.001C868.248 102.288 868.961 101.693 869.505 101.218C869.743 101.048 869.946 100.895 870.116 100.759C870.286 100.623 870.507 100.555 870.779 100.555C871.084 100.555 871.305 100.623 871.441 100.759C871.577 100.861 871.611 101.133 871.543 101.574L871.237 104.581C871.203 104.988 871.288 105.277 871.492 105.447C871.73 105.583 872.052 105.651 872.46 105.651H878.524C878.625 105.651 878.727 105.769 878.829 106.007C878.931 106.245 878.982 106.466 878.982 106.67C878.982 107.145 878.914 107.604 878.778 108.045C878.642 108.487 878.49 108.708 878.32 108.708H873.581C872.8 108.708 872.256 108.81 871.951 109.013C871.679 109.183 871.543 109.506 871.543 109.982V119.612C871.543 121.174 871.832 122.346 872.409 123.128C873.021 123.875 873.819 124.249 874.804 124.249C875.789 124.249 876.502 124.147 876.944 123.943C877.42 123.739 877.844 123.569 878.218 123.433C878.354 123.365 878.456 123.331 878.524 123.331C878.693 123.331 878.829 123.433 878.931 123.637C879.033 123.841 879.084 124.079 879.084 124.35C879.084 124.554 878.727 124.928 878.014 125.471C877.301 126.015 876.367 126.524 875.212 127C874.091 127.476 872.868 127.713 871.543 127.713ZM906.762 127.815C906.694 127.815 906.592 127.662 906.456 127.357C906.32 127.051 906.184 126.728 906.048 126.389L895.042 98.7719C894.635 97.8887 894.142 97.1754 893.565 96.6319C892.987 96.0544 892.257 95.6468 891.374 95.409C890.83 95.2391 890.406 95.0693 890.1 94.8994C889.828 94.7296 889.692 94.5258 889.692 94.288C889.692 94.0842 889.828 93.9483 890.1 93.8804C890.372 93.7785 890.728 93.7275 891.17 93.7275C891.951 93.7275 892.682 93.7615 893.361 93.8294C894.074 93.8634 894.856 93.8804 895.705 93.8804C896.656 93.8804 897.556 93.8634 898.405 93.8294C899.254 93.7955 899.934 93.7785 900.443 93.7785C900.885 93.7785 901.242 93.8294 901.513 93.9313C901.785 93.9993 901.921 94.1351 901.921 94.339C901.921 94.5767 901.785 94.7636 901.513 94.8994C901.242 95.0353 900.817 95.1882 900.24 95.358C899.832 95.4599 899.56 95.6807 899.424 96.0204C899.288 96.3261 899.221 96.6658 899.221 97.0395C899.221 97.583 899.288 98.0925 899.424 98.5681C899.56 99.0097 899.628 99.2305 899.628 99.2305C900.409 101.201 901.123 103.001 901.768 104.632C902.414 106.262 903.042 107.842 903.653 109.37C904.299 110.865 904.961 112.41 905.641 114.007C906.354 115.569 907.135 117.319 907.984 119.255C908.154 119.629 908.29 119.799 908.392 119.765C908.528 119.731 908.647 119.578 908.749 119.306L912.723 109.472C912.825 109.2 912.893 108.98 912.927 108.81C912.995 108.606 913.029 108.436 913.029 108.3C913.029 108.096 912.995 107.893 912.927 107.689C912.859 107.451 912.757 107.162 912.621 106.823L909.717 99.5871C909.275 98.5001 908.579 97.6 907.628 96.8866C906.677 96.1393 905.76 95.6468 904.876 95.409C904.333 95.2391 903.908 95.0693 903.603 94.8994C903.331 94.7296 903.195 94.5258 903.195 94.288C903.195 94.0842 903.331 93.9483 903.603 93.8804C903.874 93.7785 904.231 93.7275 904.673 93.7275C905.216 93.7275 905.726 93.7445 906.201 93.7785C906.711 93.8124 907.22 93.8464 907.73 93.8804C908.273 93.8804 908.851 93.8804 909.462 93.8804C910.243 93.8804 910.957 93.8634 911.602 93.8294C912.282 93.7955 912.876 93.7785 913.386 93.7785C913.827 93.7785 914.184 93.8294 914.456 93.9313C914.727 93.9993 914.863 94.1351 914.863 94.339C914.863 94.6107 914.693 94.8315 914.354 95.0013C914.014 95.1712 913.657 95.358 913.284 95.5618C912.944 95.7656 912.774 96.0714 912.774 96.479C912.774 96.5469 912.774 96.6149 912.774 96.6828C912.808 96.7507 912.842 96.8187 912.876 96.8866C912.944 97.0225 913.063 97.3622 913.233 97.9057C913.436 98.4152 913.657 98.9927 913.895 99.6381C914.167 100.284 914.422 100.895 914.659 101.472C914.897 102.016 915.067 102.407 915.169 102.644C915.339 103.052 915.475 103.273 915.577 103.307C915.712 103.307 915.882 103.086 916.086 102.644C916.358 102.033 916.63 101.337 916.901 100.555C917.207 99.774 917.462 99.0436 917.666 98.3643C917.903 97.6509 918.056 97.1584 918.124 96.8866C918.158 96.7847 918.175 96.6658 918.175 96.5299C918.175 96.1223 918.022 95.8166 917.717 95.6128C917.411 95.409 917.088 95.2221 916.748 95.0523C916.443 94.8485 916.29 94.6107 916.29 94.339C916.29 94.1351 916.426 93.9993 916.697 93.9313C916.969 93.8294 917.326 93.7785 917.768 93.7785C918.515 93.7785 919.024 93.7955 919.296 93.8294C919.568 93.8634 919.942 93.8804 920.417 93.8804C920.995 93.8804 921.487 93.8634 921.895 93.8294C922.302 93.7615 922.812 93.7275 923.423 93.7275C923.865 93.7275 924.222 93.7785 924.493 93.8804C924.765 93.9483 924.901 94.0842 924.901 94.288C924.901 94.5258 924.765 94.7296 924.493 94.8994C924.222 95.0353 923.797 95.1712 923.22 95.3071C922.133 95.5448 921.385 95.8336 920.978 96.1733C920.604 96.513 920.196 97.0395 919.755 97.7528C919.585 98.0585 919.33 98.5681 918.99 99.2814C918.685 99.9948 918.345 100.776 917.971 101.625C917.632 102.474 917.326 103.273 917.054 104.02C916.952 104.258 916.85 104.598 916.748 105.039C916.681 105.481 916.681 105.786 916.748 105.956L921.997 119.459C922.065 119.629 922.149 119.68 922.251 119.612C922.353 119.544 922.455 119.391 922.557 119.153C923.406 116.911 924.357 114.041 925.411 110.542C926.498 107.043 927.618 103.341 928.773 99.4343C928.875 99.1286 928.943 98.8228 928.977 98.5171C929.045 98.1774 929.079 97.8717 929.079 97.6C929.079 97.0904 928.96 96.6319 928.722 96.2242C928.519 95.8166 928.128 95.5448 927.551 95.409C927.211 95.3071 926.837 95.1712 926.43 95.0013C926.056 94.8315 925.869 94.6277 925.869 94.3899C925.869 94.1861 926.005 94.0502 926.277 93.9823C926.548 93.8804 926.905 93.8294 927.347 93.8294C928.026 93.8294 928.638 93.8464 929.181 93.8804C929.759 93.8804 930.37 93.8804 931.015 93.8804C931.865 93.8804 932.68 93.8634 933.461 93.8294C934.242 93.7615 934.956 93.7275 935.601 93.7275C936.043 93.7275 936.399 93.7785 936.671 93.8804C936.943 93.9483 937.079 94.0842 937.079 94.288C937.079 94.5258 936.943 94.7296 936.671 94.8994C936.399 95.0353 935.975 95.1712 935.397 95.3071C934.582 95.4769 933.886 95.8336 933.308 96.3771C932.765 96.8866 932.323 97.4641 931.983 98.1095C931.678 98.7209 931.423 99.2814 931.219 99.791L922.2 126.44C922.166 126.575 922.065 126.796 921.895 127.102C921.725 127.442 921.555 127.611 921.385 127.611C921.249 127.611 921.096 127.51 920.927 127.306C920.757 127.102 920.621 126.881 920.519 126.643C919.636 124.605 918.872 122.788 918.226 121.191C917.581 119.561 916.952 117.93 916.341 116.3C915.763 114.669 915.067 112.869 914.252 110.899C914.15 110.661 914.065 110.576 913.997 110.644C913.929 110.678 913.827 110.865 913.691 111.204C912.876 113.141 912.163 114.856 911.551 116.351C910.974 117.845 910.396 119.374 909.819 120.937C909.241 122.465 908.596 124.232 907.883 126.236C907.747 126.575 907.577 126.915 907.373 127.255C907.169 127.628 906.965 127.815 906.762 127.815ZM937.252 127.713C936.641 127.713 936.013 127.476 935.367 127C934.756 126.524 934.229 125.947 933.788 125.268C933.38 124.588 933.176 123.943 933.176 123.331C933.176 122.244 933.465 121.395 934.042 120.784C934.62 120.172 935.537 119.612 936.794 119.102L941.991 116.962C942.67 116.69 943.061 116.453 943.163 116.249C943.299 116.045 943.384 115.603 943.418 114.924L943.52 111.663C943.554 110.78 943.299 110.016 942.755 109.37C942.246 108.725 941.498 108.402 940.513 108.402C940.004 108.402 939.494 108.487 938.985 108.657C938.475 108.827 938.051 109.047 937.711 109.319C937.507 109.455 937.371 109.659 937.303 109.931C937.235 110.202 937.201 110.491 937.201 110.797C937.201 110.933 937.201 111.086 937.201 111.255C937.235 111.425 937.252 111.578 937.252 111.714C937.252 111.884 937.032 112.122 936.59 112.427C936.182 112.699 935.707 112.954 935.163 113.192C934.654 113.395 934.229 113.497 933.889 113.497C933.72 113.497 933.584 113.463 933.482 113.395C933.38 113.294 933.329 113.175 933.329 113.039C933.329 112.495 933.499 111.918 933.838 111.306C934.212 110.661 934.722 110.067 935.367 109.523C936.148 108.81 936.998 108.181 937.915 107.638C938.832 107.094 939.732 106.67 940.615 106.364C941.498 106.058 942.28 105.905 942.959 105.905C944.182 105.905 945.184 106.347 945.965 107.23C946.781 108.079 947.171 109.149 947.137 110.44L946.883 122.669C946.849 123.382 947.001 123.96 947.341 124.401C947.715 124.843 948.173 125.064 948.717 125.064C949.566 125.064 950.194 124.877 950.602 124.503C950.772 124.333 950.908 124.249 951.01 124.249C951.18 124.249 951.315 124.299 951.417 124.401C951.519 124.503 951.57 124.639 951.57 124.809C951.57 125.183 951.383 125.556 951.01 125.93C950.466 126.473 949.872 126.898 949.226 127.204C948.615 127.544 948.037 127.713 947.494 127.713C945.931 127.713 944.692 126.83 943.774 125.064H943.622C942.501 125.981 941.431 126.643 940.411 127.051C939.392 127.493 938.339 127.713 937.252 127.713ZM939.647 125.268C940.327 125.268 940.904 125.166 941.38 124.962C941.855 124.724 942.28 124.418 942.653 124.045C942.823 123.875 942.959 123.654 943.061 123.382C943.197 123.077 943.282 122.601 943.316 121.956L943.418 119.459C943.452 119.085 943.435 118.814 943.367 118.644C943.299 118.474 943.163 118.389 942.959 118.389C942.891 118.389 942.772 118.406 942.602 118.44C942.433 118.474 942.212 118.542 941.94 118.644C940.14 119.289 938.883 119.968 938.17 120.682C937.49 121.361 937.15 121.99 937.15 122.567C937.15 123.45 937.405 124.13 937.915 124.605C938.458 125.047 939.036 125.268 939.647 125.268ZM953.629 127.153C953.46 127.153 953.239 127.119 952.967 127.051C952.729 127.017 952.61 126.898 952.61 126.694C952.61 126.423 952.729 126.236 952.967 126.134C953.239 125.998 953.511 125.879 953.782 125.777C954.292 125.607 954.784 125.42 955.26 125.217C955.736 124.979 955.973 124.52 955.973 123.841V98.1604C955.973 97.1754 955.786 96.3601 955.413 95.7147C955.073 95.0353 954.479 94.6107 953.629 94.4409C953.358 94.3729 953.222 94.1521 953.222 93.7785C953.222 93.4388 953.341 93.235 953.578 93.167C954.462 92.9632 955.226 92.7594 955.871 92.5556C956.517 92.3178 957.111 92.08 957.655 91.8422C958.232 91.6045 958.793 91.3837 959.336 91.1799C959.472 91.1119 959.574 91.0779 959.642 91.0779C959.71 91.0779 959.761 91.1289 959.795 91.2308C959.863 91.2987 959.897 91.3667 959.897 91.4346C959.897 91.7403 959.829 92.4027 959.693 93.4218C959.591 94.4069 959.54 96.0544 959.54 98.3643V123.841C959.54 124.52 959.778 124.979 960.253 125.217C960.729 125.42 961.221 125.607 961.731 125.777C962.003 125.879 962.258 125.998 962.495 126.134C962.767 126.236 962.903 126.423 962.903 126.694C962.903 126.898 962.767 127.017 962.495 127.051C962.258 127.119 962.054 127.153 961.884 127.153C961.238 127.153 960.712 127.119 960.304 127.051C959.931 127.017 959.557 126.983 959.183 126.949C958.844 126.915 958.368 126.898 957.757 126.898C957.179 126.898 956.704 126.915 956.33 126.949C955.956 126.983 955.583 127.017 955.209 127.051C954.835 127.119 954.309 127.153 953.629 127.153ZM965.87 127.153C965.7 127.153 965.48 127.119 965.208 127.051C964.97 127.017 964.851 126.898 964.851 126.694C964.851 126.423 964.97 126.236 965.208 126.134C965.48 125.998 965.751 125.879 966.023 125.777C966.533 125.607 967.025 125.42 967.501 125.217C967.976 124.979 968.214 124.52 968.214 123.841V98.1604C968.214 97.1754 968.027 96.3601 967.654 95.7147C967.314 95.0353 966.719 94.6107 965.87 94.4409C965.598 94.3729 965.463 94.1521 965.463 93.7785C965.463 93.4388 965.581 93.235 965.819 93.167C966.702 92.9632 967.467 92.7594 968.112 92.5556C968.758 92.3178 969.352 92.08 969.895 91.8422C970.473 91.6045 971.033 91.3837 971.577 91.1799C971.713 91.1119 971.815 91.0779 971.883 91.0779C971.951 91.0779 972.002 91.1289 972.036 91.2308C972.103 91.2987 972.137 91.3667 972.137 91.4346C972.137 91.7403 972.069 92.4027 971.934 93.4218C971.832 94.4069 971.781 96.0544 971.781 98.3643V123.841C971.781 124.52 972.019 124.979 972.494 125.217C972.97 125.42 973.462 125.607 973.972 125.777C974.243 125.879 974.498 125.998 974.736 126.134C975.008 126.236 975.144 126.423 975.144 126.694C975.144 126.898 975.008 127.017 974.736 127.051C974.498 127.119 974.294 127.153 974.125 127.153C973.479 127.153 972.953 127.119 972.545 127.051C972.171 127.017 971.798 126.983 971.424 126.949C971.084 126.915 970.609 126.898 969.997 126.898C969.42 126.898 968.944 126.915 968.571 126.949C968.197 126.983 967.823 127.017 967.45 127.051C967.076 127.119 966.55 127.153 965.87 127.153ZM986.977 127.764C985.108 127.764 983.478 127.306 982.085 126.389C980.693 125.471 979.606 124.181 978.824 122.516C978.043 120.818 977.652 118.864 977.652 116.656C977.652 114.686 978.094 112.903 978.977 111.306C979.894 109.676 981.1 108.368 982.595 107.383C984.089 106.398 985.72 105.905 987.486 105.905C988.845 105.905 990.051 106.177 991.104 106.721C992.157 107.264 992.972 108.028 993.55 109.013C994.161 109.965 994.467 111.069 994.467 112.325C994.467 113.378 993.957 113.905 992.938 113.905H982.187C981.712 113.905 981.372 114.041 981.168 114.313C980.998 114.55 980.913 115.043 980.913 115.79C980.913 117.421 981.27 118.915 981.983 120.274C982.697 121.599 983.648 122.669 984.837 123.484C986.026 124.266 987.333 124.656 988.76 124.656C989.779 124.656 990.696 124.469 991.512 124.096C992.361 123.688 993.108 123.111 993.754 122.363C993.889 122.193 993.991 122.092 994.059 122.058C994.127 121.99 994.212 121.956 994.314 121.956C994.586 121.956 994.722 122.125 994.722 122.465C994.722 123.111 994.416 123.824 993.805 124.605C993.295 125.251 992.684 125.811 991.97 126.287C991.257 126.762 990.476 127.119 989.626 127.357C988.777 127.628 987.894 127.764 986.977 127.764ZM982.289 112.325H986.926C987.741 112.325 988.437 112.308 989.015 112.275C989.592 112.241 990.153 112.173 990.696 112.071C990.866 112.037 990.968 111.935 991.002 111.765C991.07 111.561 991.104 111.289 991.104 110.95C991.104 109.965 990.662 109.132 989.779 108.453C988.93 107.74 987.911 107.383 986.722 107.383C985.941 107.383 985.159 107.621 984.378 108.096C983.597 108.538 982.951 109.098 982.442 109.778C981.932 110.457 981.678 111.137 981.678 111.816C981.678 112.156 981.881 112.325 982.289 112.325ZM1005.61 127.713C1003.94 127.713 1002.64 127.204 1001.68 126.185C1000.77 125.166 1000.31 123.654 1000.31 121.65V109.829C1000.31 109.557 1000.21 109.37 1000 109.268C999.799 109.132 999.358 109.064 998.678 109.064H998.372C998.203 109.064 998.05 108.963 997.914 108.759C997.812 108.521 997.761 108.283 997.761 108.045C997.761 107.977 997.812 107.876 997.914 107.74C998.016 107.604 998.084 107.519 998.118 107.485C998.797 107.009 999.408 106.534 999.952 106.058C1000.53 105.583 1001.04 105.124 1001.48 104.682C1001.96 104.207 1002.35 103.782 1002.65 103.409C1002.82 103.239 1002.96 103.103 1003.06 103.001C1003.2 102.865 1003.35 102.797 1003.52 102.797C1003.69 102.797 1003.84 102.831 1003.98 102.899C1004.15 102.967 1004.22 103.12 1004.18 103.358L1003.93 105.651C1003.89 106.024 1003.98 106.279 1004.18 106.415C1004.38 106.551 1004.71 106.619 1005.15 106.619H1010.96C1011.09 106.619 1011.21 106.738 1011.31 106.975C1011.42 107.179 1011.47 107.434 1011.47 107.74C1011.47 108.045 1011.42 108.351 1011.31 108.657C1011.21 108.929 1011.09 109.064 1010.96 109.064H1005.91C1005.06 109.064 1004.5 109.132 1004.23 109.268C1003.99 109.404 1003.88 109.812 1003.88 110.491V120.529C1003.88 121.888 1004.16 122.958 1004.74 123.739C1005.32 124.52 1006.15 124.911 1007.24 124.911C1008.22 124.911 1008.99 124.843 1009.53 124.707C1010.07 124.537 1010.57 124.299 1011.01 123.994C1011.08 123.926 1011.14 123.892 1011.21 123.892C1011.35 123.892 1011.43 123.977 1011.47 124.147C1011.54 124.282 1011.57 124.435 1011.57 124.605C1011.57 124.775 1011.28 125.115 1010.7 125.624C1010.16 126.134 1009.43 126.609 1008.51 127.051C1007.63 127.493 1006.66 127.713 1005.61 127.713Z" fill="white"/>
</g>
<g clip-path="url(#clip0_68_244)">
<path d="M121.413 483C133.784 483 143.825 493.041 143.825 505.413C143.825 517.784 133.784 527.825 121.413 527.825C109.041 527.825 99 517.784 99 505.413C99 493.041 109.041 483 121.413 483Z" fill="#FBCC5C"/>
<path d="M134.233 502.723C134.233 497.165 129.705 492.637 124.147 492.637C119.933 492.637 116.347 495.192 114.823 498.868C111.237 500.392 108.682 503.978 108.682 508.147C108.682 513.705 113.21 518.233 118.768 518.233C122.981 518.233 126.567 515.677 128.092 512.002C131.633 510.478 134.233 506.892 134.233 502.723ZM118.768 515.722C114.599 515.722 111.192 512.316 111.192 508.147C111.192 505.771 112.313 503.62 114.061 502.23C114.061 502.409 114.061 502.589 114.061 502.723C114.061 508.281 118.589 512.809 124.147 512.809C124.371 512.809 124.55 512.809 124.774 512.809C123.34 514.602 121.188 515.722 118.768 515.722ZM126.119 510.03C125.492 510.209 124.819 510.298 124.147 510.298C119.978 510.298 116.571 506.892 116.571 502.723C116.571 502.051 116.661 501.423 116.84 500.84C117.468 500.661 118.14 500.571 118.813 500.571C122.981 500.571 126.388 503.978 126.388 508.147C126.343 508.819 126.254 509.447 126.119 510.03ZM128.854 508.64C128.854 508.461 128.854 508.281 128.854 508.147C128.854 502.589 124.326 498.061 118.768 498.061C118.544 498.061 118.364 498.061 118.14 498.061C119.53 496.268 121.682 495.148 124.102 495.148C128.271 495.148 131.678 498.554 131.678 502.723C131.678 505.144 130.557 507.25 128.854 508.64Z" fill="white"/>
</g>
<path opacity="0.9" d="M735.47 528.627C733.677 528.627 732.124 528.209 730.809 527.373C729.494 526.536 728.389 525.43 727.493 524.056C726.626 522.652 725.984 521.113 725.565 519.44C725.147 517.766 724.938 516.108 724.938 514.465C724.938 512.762 725.147 511.044 725.565 509.311C725.984 507.578 726.641 505.994 727.537 504.56C728.434 503.096 729.584 501.931 730.988 501.064C732.393 500.168 734.051 499.72 735.963 499.72C737.756 499.72 739.31 500.138 740.624 500.975C741.969 501.811 743.059 502.932 743.896 504.336C744.763 505.71 745.405 507.234 745.823 508.907C746.271 510.551 746.495 512.179 746.495 513.793C746.495 515.496 746.286 517.214 745.868 518.947C745.45 520.68 744.792 522.278 743.896 523.742C743.03 525.206 741.894 526.387 740.49 527.283C739.115 528.179 737.442 528.627 735.47 528.627ZM736.142 526.611C737.099 526.611 737.86 526.058 738.428 524.952C739.026 523.817 739.459 522.338 739.728 520.515C739.997 518.693 740.131 516.721 740.131 514.599C740.131 513.016 740.027 511.462 739.818 509.938C739.608 508.414 739.295 507.04 738.876 505.815C738.458 504.56 737.95 503.574 737.353 502.857C736.755 502.11 736.053 501.736 735.246 501.736C734.29 501.736 733.528 502.304 732.96 503.44C732.393 504.545 731.974 506.009 731.705 507.832C731.466 509.625 731.347 511.582 731.347 513.703C731.347 515.287 731.437 516.84 731.616 518.364C731.825 519.888 732.124 521.277 732.512 522.532C732.93 523.757 733.438 524.743 734.036 525.49C734.634 526.237 735.336 526.611 736.142 526.611ZM750.44 528.179C750.231 528.179 749.992 528.149 749.723 528.09C749.484 528.03 749.364 527.895 749.364 527.686C749.364 527.417 749.424 527.223 749.544 527.104C749.693 526.954 749.917 526.82 750.216 526.7C750.545 526.581 750.873 526.372 751.202 526.073C751.56 525.774 752.039 525.236 752.636 524.459L756.759 518.812C756.939 518.573 757.028 518.379 757.028 518.23C757.028 518.08 756.954 517.886 756.804 517.647L753.443 512.672C753.054 512.075 752.711 511.597 752.412 511.238C752.113 510.879 751.725 510.611 751.247 510.431C750.948 510.342 750.724 510.237 750.574 510.118C750.455 509.968 750.395 509.759 750.395 509.49C750.395 509.251 750.53 509.102 750.799 509.042C751.067 508.982 751.292 508.952 751.471 508.952C752.218 508.952 752.785 508.982 753.174 509.042C753.562 509.072 753.951 509.117 754.339 509.176C754.757 509.206 755.295 509.221 755.953 509.221C756.819 509.221 757.536 509.191 758.104 509.132C758.701 509.042 759.493 508.997 760.479 508.997C760.659 508.997 760.883 509.042 761.152 509.132C761.42 509.191 761.555 509.341 761.555 509.58C761.555 509.819 761.435 509.983 761.196 510.073C760.987 510.162 760.763 510.267 760.524 510.386C760.225 510.506 759.941 510.64 759.673 510.79C759.404 510.939 759.269 511.163 759.269 511.462C759.269 511.641 759.329 511.85 759.448 512.09C759.568 512.329 759.702 512.583 759.852 512.851L761.913 515.854C762.063 516.123 762.197 516.123 762.317 515.854L763.706 513.479C763.856 513.18 763.99 512.851 764.11 512.493C764.259 512.134 764.319 511.806 764.289 511.507C764.289 511.029 764.02 510.685 763.482 510.476C763.243 510.357 763.019 510.252 762.81 510.162C762.631 510.073 762.541 509.893 762.541 509.625C762.541 509.385 762.675 509.236 762.944 509.176C763.213 509.087 763.437 509.042 763.617 509.042C764.364 509.072 764.931 509.102 765.32 509.132C765.738 509.132 766.141 509.132 766.53 509.132C766.978 509.132 767.366 509.117 767.695 509.087C768.054 509.027 768.621 508.982 769.398 508.952C769.607 508.952 769.831 508.982 770.07 509.042C770.339 509.102 770.474 509.251 770.474 509.49C770.474 509.729 770.399 509.923 770.25 510.073C770.13 510.192 769.921 510.312 769.622 510.431C769.294 510.551 768.935 510.76 768.547 511.059C768.188 511.357 767.725 511.88 767.157 512.627L763.93 516.93C763.751 517.199 763.661 517.408 763.661 517.557C763.691 517.707 763.781 517.886 763.93 518.095L767.695 524.011C768.083 524.639 768.532 525.176 769.04 525.625C769.548 526.073 770.07 526.401 770.608 526.611C770.907 526.7 771.116 526.82 771.236 526.969C771.385 527.089 771.46 527.283 771.46 527.552C771.46 527.791 771.325 527.94 771.056 528C770.817 528.06 770.593 528.09 770.384 528.09C769.667 528.09 769.04 528.06 768.502 528C767.994 527.97 767.486 527.94 766.978 527.91C766.47 527.851 765.887 527.821 765.23 527.821C764.334 527.821 763.512 527.866 762.765 527.955C762.048 528.015 761.181 528.045 760.166 528.045C759.448 528.045 759.09 527.851 759.09 527.462C759.09 527.193 759.18 527.014 759.359 526.924C759.568 526.805 759.822 526.7 760.121 526.611C760.509 526.491 760.823 526.312 761.062 526.073C761.301 525.834 761.42 525.445 761.42 524.908C761.42 524.609 761.391 524.355 761.331 524.146C761.271 523.907 761.122 523.623 760.883 523.294L758.597 519.933C758.507 519.843 758.418 519.843 758.328 519.933L756.222 523.653C756.132 523.832 755.997 524.086 755.818 524.415C755.669 524.743 755.594 525.072 755.594 525.401C755.594 525.699 755.654 525.968 755.773 526.207C755.923 526.416 756.132 526.596 756.401 526.745C756.64 526.835 756.864 526.939 757.073 527.059C757.282 527.148 757.387 527.313 757.387 527.552C757.387 527.791 757.252 527.94 756.983 528C756.744 528.09 756.52 528.134 756.311 528.134C755.534 528.134 754.982 528.12 754.653 528.09C754.324 528.06 753.966 528.045 753.577 528.045C753.129 528.045 752.681 528.045 752.233 528.045C751.814 528.075 751.217 528.12 750.44 528.179ZM778.568 528.134C778.389 528.134 778.209 528.075 778.03 527.955C777.851 527.836 777.761 527.686 777.761 527.507C777.761 527.029 778.045 526.715 778.613 526.566C779.449 526.357 780.166 526.148 780.764 525.938C781.361 525.729 781.825 525.445 782.153 525.087C782.482 524.698 782.646 524.19 782.646 523.563V507.339C782.646 506.622 782.452 506.084 782.064 505.725C781.705 505.337 781.227 505.053 780.629 504.874C780.062 504.694 779.449 504.56 778.792 504.47C778.553 504.411 778.299 504.306 778.03 504.157C777.761 504.007 777.627 503.768 777.627 503.44C777.627 503.051 777.761 502.782 778.03 502.633C778.329 502.454 778.657 502.349 779.016 502.319C780.779 502.17 782.362 501.886 783.767 501.468C785.171 501.049 786.56 500.437 787.935 499.63C787.995 499.6 788.069 499.57 788.159 499.54C788.249 499.511 788.338 499.496 788.428 499.496C788.637 499.496 788.831 499.54 789.01 499.63C789.22 499.72 789.324 499.824 789.324 499.944C789.324 500.332 789.279 500.78 789.19 501.288C789.13 501.766 789.1 502.409 789.1 503.215V523.608C789.1 524.176 789.279 524.639 789.638 524.997C789.996 525.356 790.504 525.655 791.162 525.894C791.819 526.103 792.581 526.327 793.447 526.566C793.687 526.655 793.881 526.76 794.03 526.88C794.18 526.999 794.254 527.193 794.254 527.462C794.254 527.88 794.03 528.09 793.582 528.09C792.895 528.09 792.073 528.075 791.117 528.045C790.191 528.015 789.264 527.985 788.338 527.955C787.442 527.925 786.665 527.91 786.008 527.91C785.38 527.91 784.618 527.925 783.722 527.955C782.826 527.985 781.914 528.015 780.988 528.045C780.062 528.105 779.255 528.134 778.568 528.134ZM818.815 528.179C818.636 528.179 818.188 528.164 817.471 528.134C816.783 528.134 815.962 528.12 815.006 528.09C814.079 528.06 813.123 528.03 812.137 528C811.151 527.97 810.285 527.955 809.538 527.955C808.851 527.955 808.089 527.97 807.252 528C806.445 528.03 805.668 528.045 804.921 528.045C804.204 528.075 803.592 528.09 803.084 528.09C802.606 528.12 802.322 528.134 802.232 528.134C802.143 528.134 801.963 528.06 801.695 527.91C801.455 527.731 801.336 527.552 801.336 527.373C801.336 527.134 801.396 526.939 801.515 526.79C801.635 526.641 801.754 526.506 801.874 526.387L808.417 519.126C810.001 517.393 811.181 515.66 811.958 513.927C812.735 512.164 813.123 510.252 813.123 508.19C813.123 506.935 812.795 505.89 812.137 505.053C811.51 504.187 810.613 503.753 809.448 503.753C808.402 503.753 807.416 504.052 806.49 504.65C805.564 505.247 804.772 505.89 804.115 506.577C803.965 506.756 803.756 506.965 803.487 507.204C803.218 507.413 802.949 507.518 802.681 507.518C802.441 507.518 802.277 507.428 802.188 507.249C802.098 507.04 802.053 506.786 802.053 506.487C802.053 505.979 802.292 505.367 802.77 504.65C803.278 503.903 803.965 503.156 804.832 502.409C805.728 501.662 806.744 501.034 807.879 500.526C809.045 500.018 810.27 499.764 811.555 499.764C813.108 499.764 814.408 500.108 815.454 500.795C816.529 501.483 817.351 502.394 817.919 503.529C818.486 504.665 818.77 505.905 818.77 507.249C818.77 508.086 818.576 509.012 818.188 510.028C817.829 511.014 817.381 511.97 816.843 512.896C816.305 513.793 815.753 514.569 815.185 515.227C814.737 515.735 814.169 516.332 813.482 517.02C812.824 517.677 812.137 518.349 811.42 519.036C810.703 519.724 810.016 520.366 809.358 520.964C808.701 521.561 808.178 522.054 807.79 522.443C807.401 522.831 807.207 523.055 807.207 523.115C807.207 523.234 807.431 523.324 807.879 523.384C808.417 523.443 809.06 523.488 809.807 523.518C810.583 523.548 811.286 523.563 811.913 523.563C812.6 523.563 813.273 523.548 813.93 523.518C814.587 523.488 815.245 523.443 815.902 523.384C816.559 523.324 817.127 523.204 817.605 523.025C818.113 522.816 818.546 522.532 818.905 522.174C819.293 521.785 819.637 521.292 819.936 520.695C820.025 520.485 820.175 520.276 820.384 520.067C820.623 519.828 820.892 519.709 821.19 519.709C821.43 519.709 821.594 519.813 821.683 520.022C821.773 520.202 821.773 520.396 821.683 520.605C821.415 521.382 821.131 522.233 820.832 523.16C820.563 524.056 820.324 524.878 820.115 525.625C819.906 526.342 819.786 526.85 819.756 527.148C819.726 527.507 819.577 527.776 819.308 527.955C819.039 528.105 818.875 528.179 818.815 528.179ZM829.213 528.134C829.034 528.134 828.855 528.075 828.676 527.955C828.496 527.836 828.407 527.686 828.407 527.507C828.407 527.029 828.691 526.715 829.258 526.566C830.095 526.357 830.812 526.148 831.41 525.938C832.007 525.729 832.47 525.445 832.799 525.087C833.128 524.698 833.292 524.19 833.292 523.563V507.339C833.292 506.622 833.098 506.084 832.709 505.725C832.351 505.337 831.873 505.053 831.275 504.874C830.707 504.694 830.095 504.56 829.438 504.47C829.199 504.411 828.945 504.306 828.676 504.157C828.407 504.007 828.272 503.768 828.272 503.44C828.272 503.051 828.407 502.782 828.676 502.633C828.974 502.454 829.303 502.349 829.662 502.319C831.424 502.17 833.008 501.886 834.412 501.468C835.817 501.049 837.206 500.437 838.58 499.63C838.64 499.6 838.715 499.57 838.805 499.54C838.894 499.511 838.984 499.496 839.073 499.496C839.283 499.496 839.477 499.54 839.656 499.63C839.865 499.72 839.97 499.824 839.97 499.944C839.97 500.332 839.925 500.78 839.835 501.288C839.776 501.766 839.746 502.409 839.746 503.215V523.608C839.746 524.176 839.925 524.639 840.284 524.997C840.642 525.356 841.15 525.655 841.807 525.894C842.465 526.103 843.227 526.327 844.093 526.566C844.332 526.655 844.526 526.76 844.676 526.88C844.825 526.999 844.9 527.193 844.9 527.462C844.9 527.88 844.676 528.09 844.228 528.09C843.54 528.09 842.719 528.075 841.763 528.045C840.836 528.015 839.91 527.985 838.984 527.955C838.087 527.925 837.311 527.91 836.653 527.91C836.026 527.91 835.264 527.925 834.368 527.955C833.471 527.985 832.56 528.015 831.634 528.045C830.707 528.105 829.901 528.134 829.213 528.134ZM857.001 529.703C856.344 529.703 855.657 529.599 854.94 529.389C854.252 529.21 853.67 528.941 853.192 528.583C852.714 528.254 852.475 527.895 852.475 527.507C852.475 527.148 852.534 526.76 852.654 526.342C852.803 525.894 852.998 525.52 853.237 525.221C853.476 524.922 853.744 524.773 854.043 524.773C854.312 524.773 854.536 524.833 854.716 524.952C854.895 525.072 855.089 525.251 855.298 525.49C855.716 525.938 856.209 526.431 856.777 526.969C857.345 527.507 857.987 527.776 858.704 527.776C859.66 527.776 860.527 527.522 861.304 527.014C862.081 526.476 862.693 525.729 863.141 524.773C863.619 523.817 863.858 522.682 863.858 521.367C863.858 520.142 863.694 519.051 863.365 518.095C863.037 517.139 862.544 516.392 861.886 515.854C861.229 515.316 860.422 515.048 859.466 515.048C858.719 515.048 858.107 515.182 857.629 515.451C857.181 515.69 856.822 515.869 856.553 515.989C856.344 516.108 856.09 516.108 855.791 515.989C855.492 515.839 855.373 515.63 855.433 515.361C855.582 514.794 855.836 514.315 856.195 513.927C856.553 513.539 856.927 513.24 857.315 513.031C858.211 512.583 858.988 512.134 859.646 511.686C860.303 511.208 860.856 510.715 861.304 510.207C861.752 509.699 862.081 509.146 862.29 508.549C862.529 507.921 862.648 507.234 862.648 506.487C862.648 505.531 862.32 504.709 861.662 504.022C861.005 503.305 860.168 502.947 859.153 502.947C858.256 502.947 857.494 503.141 856.867 503.529C856.269 503.888 855.761 504.306 855.343 504.784C854.925 505.262 854.581 505.681 854.312 506.039C854.073 506.398 853.879 506.577 853.73 506.577C853.52 506.577 853.311 506.457 853.102 506.218C852.893 505.979 852.788 505.74 852.788 505.501C852.788 505.232 852.953 504.784 853.281 504.157C853.61 503.529 854.133 502.887 854.85 502.229C855.567 501.542 856.493 500.975 857.629 500.526C858.764 500.048 860.153 499.809 861.797 499.809C862.992 499.809 864.083 500.033 865.069 500.482C866.055 500.93 866.846 501.557 867.444 502.364C868.042 503.171 868.34 504.127 868.34 505.232C868.34 505.92 868.131 506.696 867.713 507.563C867.324 508.429 866.682 509.251 865.786 510.028C864.889 510.775 863.724 511.328 862.29 511.686C862.2 511.716 862.155 511.776 862.155 511.865C862.155 511.925 862.215 511.955 862.335 511.955C863.888 511.955 865.263 512.239 866.458 512.807C867.653 513.374 868.594 514.181 869.281 515.227C869.999 516.243 870.357 517.483 870.357 518.947C870.357 520.59 869.984 522.069 869.237 523.384C868.49 524.698 867.489 525.834 866.234 526.79C864.979 527.716 863.56 528.433 861.976 528.941C860.393 529.449 858.734 529.703 857.001 529.703ZM880.083 529.345C879.127 529.345 878.29 528.986 877.573 528.269C876.856 527.582 876.498 526.745 876.498 525.759C876.498 524.713 876.856 523.832 877.573 523.115C878.29 522.398 879.127 522.039 880.083 522.039C881.159 522.039 882.04 522.398 882.727 523.115C883.445 523.832 883.803 524.713 883.803 525.759C883.803 526.745 883.445 527.582 882.727 528.269C882.04 528.986 881.159 529.345 880.083 529.345ZM892.757 529.345C891.801 529.345 890.964 528.986 890.247 528.269C889.53 527.582 889.172 526.745 889.172 525.759C889.172 524.713 889.53 523.832 890.247 523.115C890.964 522.398 891.801 522.039 892.757 522.039C893.833 522.039 894.714 522.398 895.401 523.115C896.118 523.832 896.477 524.713 896.477 525.759C896.477 526.745 896.118 527.582 895.401 528.269C894.714 528.986 893.833 529.345 892.757 529.345ZM905.431 529.345C904.475 529.345 903.638 528.986 902.921 528.269C902.204 527.582 901.846 526.745 901.846 525.759C901.846 524.713 902.204 523.832 902.921 523.115C903.638 522.398 904.475 522.039 905.431 522.039C906.507 522.039 907.388 522.398 908.075 523.115C908.792 523.832 909.151 524.713 909.151 525.759C909.151 526.745 908.792 527.582 908.075 528.269C907.388 528.986 906.507 529.345 905.431 529.345ZM920.346 529.703C919.688 529.703 919.001 529.599 918.284 529.389C917.597 529.21 917.014 528.941 916.536 528.583C916.058 528.254 915.819 527.895 915.819 527.507C915.819 527.148 915.879 526.76 915.998 526.342C916.148 525.894 916.342 525.52 916.581 525.221C916.82 524.922 917.089 524.773 917.388 524.773C917.657 524.773 917.881 524.833 918.06 524.952C918.239 525.072 918.434 525.251 918.643 525.49C919.061 525.938 919.554 526.431 920.122 526.969C920.689 527.507 921.332 527.776 922.049 527.776C923.005 527.776 923.872 527.522 924.648 527.014C925.425 526.476 926.038 525.729 926.486 524.773C926.964 523.817 927.203 522.682 927.203 521.367C927.203 520.142 927.039 519.051 926.71 518.095C926.381 517.139 925.888 516.392 925.231 515.854C924.574 515.316 923.767 515.048 922.811 515.048C922.064 515.048 921.451 515.182 920.973 515.451C920.525 515.69 920.167 515.869 919.898 515.989C919.688 516.108 919.435 516.108 919.136 515.989C918.837 515.839 918.717 515.63 918.777 515.361C918.927 514.794 919.181 514.315 919.539 513.927C919.898 513.539 920.271 513.24 920.66 513.031C921.556 512.583 922.333 512.134 922.99 511.686C923.647 511.208 924.2 510.715 924.648 510.207C925.097 509.699 925.425 509.146 925.634 508.549C925.873 507.921 925.993 507.234 925.993 506.487C925.993 505.531 925.664 504.709 925.007 504.022C924.35 503.305 923.513 502.947 922.497 502.947C921.601 502.947 920.839 503.141 920.211 503.529C919.614 503.888 919.106 504.306 918.688 504.784C918.269 505.262 917.926 505.681 917.657 506.039C917.418 506.398 917.223 506.577 917.074 506.577C916.865 506.577 916.656 506.457 916.447 506.218C916.237 505.979 916.133 505.74 916.133 505.501C916.133 505.232 916.297 504.784 916.626 504.157C916.955 503.529 917.477 502.887 918.195 502.229C918.912 501.542 919.838 500.975 920.973 500.526C922.109 500.048 923.498 499.809 925.141 499.809C926.337 499.809 927.427 500.033 928.413 500.482C929.399 500.93 930.191 501.557 930.788 502.364C931.386 503.171 931.685 504.127 931.685 505.232C931.685 505.92 931.476 506.696 931.057 507.563C930.669 508.429 930.027 509.251 929.13 510.028C928.234 510.775 927.069 511.328 925.634 511.686C925.545 511.716 925.5 511.776 925.5 511.865C925.5 511.925 925.56 511.955 925.679 511.955C927.233 511.955 928.607 512.239 929.802 512.807C930.998 513.374 931.939 514.181 932.626 515.227C933.343 516.243 933.702 517.483 933.702 518.947C933.702 520.59 933.328 522.069 932.581 523.384C931.834 524.698 930.833 525.834 929.578 526.79C928.323 527.716 926.904 528.433 925.321 528.941C923.737 529.449 922.079 529.703 920.346 529.703ZM943.204 528.134C943.024 528.134 942.845 528.075 942.666 527.955C942.487 527.836 942.397 527.686 942.397 527.507C942.397 527.029 942.681 526.715 943.248 526.566C944.085 526.357 944.802 526.148 945.4 525.938C945.997 525.729 946.46 525.445 946.789 525.087C947.118 524.698 947.282 524.19 947.282 523.563V507.339C947.282 506.622 947.088 506.084 946.699 505.725C946.341 505.337 945.863 505.053 945.265 504.874C944.698 504.694 944.085 504.56 943.428 504.47C943.189 504.411 942.935 504.306 942.666 504.157C942.397 504.007 942.262 503.768 942.262 503.44C942.262 503.051 942.397 502.782 942.666 502.633C942.965 502.454 943.293 502.349 943.652 502.319C945.415 502.17 946.998 501.886 948.403 501.468C949.807 501.049 951.196 500.437 952.571 499.63C952.63 499.6 952.705 499.57 952.795 499.54C952.884 499.511 952.974 499.496 953.064 499.496C953.273 499.496 953.467 499.54 953.646 499.63C953.855 499.72 953.96 499.824 953.96 499.944C953.96 500.332 953.915 500.78 953.826 501.288C953.766 501.766 953.736 502.409 953.736 503.215V523.608C953.736 524.176 953.915 524.639 954.274 524.997C954.632 525.356 955.14 525.655 955.798 525.894C956.455 526.103 957.217 526.327 958.083 526.566C958.322 526.655 958.517 526.76 958.666 526.88C958.815 526.999 958.89 527.193 958.89 527.462C958.89 527.88 958.666 528.09 958.218 528.09C957.531 528.09 956.709 528.075 955.753 528.045C954.827 528.015 953.9 527.985 952.974 527.955C952.078 527.925 951.301 527.91 950.644 527.91C950.016 527.91 949.254 527.925 948.358 527.955C947.461 527.985 946.55 528.015 945.624 528.045C944.698 528.105 943.891 528.134 943.204 528.134ZM983.451 528.179C983.272 528.179 982.824 528.164 982.106 528.134C981.419 528.134 980.598 528.12 979.641 528.09C978.715 528.06 977.759 528.03 976.773 528C975.787 527.97 974.921 527.955 974.174 527.955C973.486 527.955 972.724 527.97 971.888 528C971.081 528.03 970.304 528.045 969.557 528.045C968.84 528.075 968.228 528.09 967.72 528.09C967.242 528.12 966.958 528.134 966.868 528.134C966.779 528.134 966.599 528.06 966.33 527.91C966.091 527.731 965.972 527.552 965.972 527.373C965.972 527.134 966.032 526.939 966.151 526.79C966.271 526.641 966.39 526.506 966.51 526.387L973.053 519.126C974.637 517.393 975.817 515.66 976.594 513.927C977.371 512.164 977.759 510.252 977.759 508.19C977.759 506.935 977.43 505.89 976.773 505.053C976.146 504.187 975.249 503.753 974.084 503.753C973.038 503.753 972.052 504.052 971.126 504.65C970.2 505.247 969.408 505.89 968.751 506.577C968.601 506.756 968.392 506.965 968.123 507.204C967.854 507.413 967.585 507.518 967.316 507.518C967.077 507.518 966.913 507.428 966.823 507.249C966.734 507.04 966.689 506.786 966.689 506.487C966.689 505.979 966.928 505.367 967.406 504.65C967.914 503.903 968.601 503.156 969.468 502.409C970.364 501.662 971.38 501.034 972.515 500.526C973.681 500.018 974.906 499.764 976.19 499.764C977.744 499.764 979.044 500.108 980.09 500.795C981.165 501.483 981.987 502.394 982.555 503.529C983.122 504.665 983.406 505.905 983.406 507.249C983.406 508.086 983.212 509.012 982.824 510.028C982.465 511.014 982.017 511.97 981.479 512.896C980.941 513.793 980.388 514.569 979.821 515.227C979.373 515.735 978.805 516.332 978.118 517.02C977.46 517.677 976.773 518.349 976.056 519.036C975.339 519.724 974.652 520.366 973.994 520.964C973.337 521.561 972.814 522.054 972.426 522.443C972.037 522.831 971.843 523.055 971.843 523.115C971.843 523.234 972.067 523.324 972.515 523.384C973.053 523.443 973.696 523.488 974.442 523.518C975.219 523.548 975.921 523.563 976.549 523.563C977.236 523.563 977.908 523.548 978.566 523.518C979.223 523.488 979.88 523.443 980.538 523.384C981.195 523.324 981.763 523.204 982.241 523.025C982.749 522.816 983.182 522.532 983.541 522.174C983.929 521.785 984.273 521.292 984.571 520.695C984.661 520.485 984.81 520.276 985.02 520.067C985.259 519.828 985.528 519.709 985.826 519.709C986.065 519.709 986.23 519.813 986.319 520.022C986.409 520.202 986.409 520.396 986.319 520.605C986.05 521.382 985.767 522.233 985.468 523.16C985.199 524.056 984.96 524.878 984.751 525.625C984.542 526.342 984.422 526.85 984.392 527.148C984.362 527.507 984.213 527.776 983.944 527.955C983.675 528.105 983.511 528.179 983.451 528.179ZM993.849 528.134C993.67 528.134 993.491 528.075 993.311 527.955C993.132 527.836 993.043 527.686 993.043 527.507C993.043 527.029 993.326 526.715 993.894 526.566C994.731 526.357 995.448 526.148 996.045 525.938C996.643 525.729 997.106 525.445 997.435 525.087C997.763 524.698 997.928 524.19 997.928 523.563V507.339C997.928 506.622 997.734 506.084 997.345 505.725C996.987 505.337 996.509 505.053 995.911 504.874C995.343 504.694 994.731 504.56 994.073 504.47C993.834 504.411 993.58 504.306 993.311 504.157C993.043 504.007 992.908 503.768 992.908 503.44C992.908 503.051 993.043 502.782 993.311 502.633C993.61 502.454 993.939 502.349 994.297 502.319C996.06 502.17 997.644 501.886 999.048 501.468C1000.45 501.049 1001.84 500.437 1003.22 499.63C1003.28 499.6 1003.35 499.57 1003.44 499.54C1003.53 499.511 1003.62 499.496 1003.71 499.496C1003.92 499.496 1004.11 499.54 1004.29 499.63C1004.5 499.72 1004.61 499.824 1004.61 499.944C1004.61 500.332 1004.56 500.78 1004.47 501.288C1004.41 501.766 1004.38 502.409 1004.38 503.215V523.608C1004.38 524.176 1004.56 524.639 1004.92 524.997C1005.28 525.356 1005.79 525.655 1006.44 525.894C1007.1 526.103 1007.86 526.327 1008.73 526.566C1008.97 526.655 1009.16 526.76 1009.31 526.88C1009.46 526.999 1009.54 527.193 1009.54 527.462C1009.54 527.88 1009.31 528.09 1008.86 528.09C1008.18 528.09 1007.35 528.075 1006.4 528.045C1005.47 528.015 1004.55 527.985 1003.62 527.955C1002.72 527.925 1001.95 527.91 1001.29 527.91C1000.66 527.91 999.9 527.925 999.003 527.955C998.107 527.985 997.196 528.015 996.269 528.045C995.343 528.105 994.537 528.134 993.849 528.134Z" fill="white"/>
<defs>
<filter id="filter0_ii_68_244" x="20.0699" y="21.0699" width="1043.33" height="596.79" filterUnits="userSpaceOnUse" color-interpolation-filters="sRGB">
<feFlood flood-opacity="0" result="BackgroundImageFix"/>
<feBlend mode="normal" in="SourceGraphic" in2="BackgroundImageFix" result="shape"/>
<feColorMatrix in="SourceAlpha" type="matrix" values="0 0 0 0 0 0 0 0 0 0 0 0 0 0 0 0 0 0 127 0" result="hardAlpha"/>
<feOffset dx="4.39512" dy="5.86016"/>
<feGaussianBlur stdDeviation="2.93008"/>
<feComposite in2="hardAlpha" operator="arithmetic" k2="-1" k3="1"/>
<feColorMatrix type="matrix" values="0 0 0 0 0 0 0 0 0 0 0 0 0 0 0 0 0 0 0.15 0"/>
<feBlend mode="normal" in2="shape" result="effect1_innerShadow_68_244"/>
<feColorMatrix in="SourceAlpha" type="matrix" values="0 0 0 0 0 0 0 0 0 0 0 0 0 0 0 0 0 0 127 0" result="hardAlpha"/>
<feOffset dx="-2.93008" dy="-2.93008"/>
<feGaussianBlur stdDeviation="5.86016"/>
<feComposite in2="hardAlpha" operator="arithmetic" k2="-1" k3="1"/>
<feColorMatrix type="matrix" values="0 0 0 0 1 0 0 0 0 1 0 0 0 0 1 0 0 0 0.18 0"/>
<feBlend mode="normal" in2="effect1_innerShadow_68_244" result="effect2_innerShadow_68_244"/>
</filter>
<filter id="filter1_d_68_244" x="-61.0001" y="-103" width="197" height="200" filterUnits="userSpaceOnUse" color-interpolation-filters="sRGB">
<feFlood flood-opacity="0" result="BackgroundImageFix"/>
<feColorMatrix in="SourceAlpha" type="matrix" values="0 0 0 0 0 0 0 0 0 0 0 0 0 0 0 0 0 0 127 0" result="hardAlpha"/>
<feOffset dy="4"/>
<feGaussianBlur stdDeviation="2"/>
<feComposite in2="hardAlpha" operator="out"/>
<feColorMatrix type="matrix" values="0 0 0 0 0 0 0 0 0 0 0 0 0 0 0 0 0 0 0.015 0"/>
<feBlend mode="normal" in2="BackgroundImageFix" result="effect1_dropShadow_68_244"/>
<feBlend mode="normal" in="SourceGraphic" in2="effect1_dropShadow_68_244" result="shape"/>
</filter>
<filter id="filter2_d_68_244" x="1007" y="513" width="197" height="200" filterUnits="userSpaceOnUse" color-interpolation-filters="sRGB">
<feFlood flood-opacity="0" result="BackgroundImageFix"/>
<feColorMatrix in="SourceAlpha" type="matrix" values="0 0 0 0 0 0 0 0 0 0 0 0 0 0 0 0 0 0 127 0" result="hardAlpha"/>
<feOffset dy="4"/>
<feGaussianBlur stdDeviation="2"/>
<feComposite in2="hardAlpha" operator="out"/>
<feColorMatrix type="matrix" values="0 0 0 0 0 0 0 0 0 0 0 0 0 0 0 0 0 0 0.015 0"/>
<feBlend mode="normal" in2="BackgroundImageFix" result="effect1_dropShadow_68_244"/>
<feBlend mode="normal" in="SourceGraphic" in2="effect1_dropShadow_68_244" result="shape"/>
</filter>
<filter id="filter3_d_68_244" x="965" y="-110" width="200" height="197" filterUnits="userSpaceOnUse" color-interpolation-filters="sRGB">
<feFlood flood-opacity="0" result="BackgroundImageFix"/>
<feColorMatrix in="SourceAlpha" type="matrix" values="0 0 0 0 0 0 0 0 0 0 0 0 0 0 0 0 0 0 127 0" result="hardAlpha"/>
<feOffset dy="4"/>
<feGaussianBlur stdDeviation="2"/>
<feComposite in2="hardAlpha" operator="out"/>
<feColorMatrix type="matrix" values="0 0 0 0 0 0 0 0 0 0 0 0 0 0 0 0 0 0 0.015 0"/>
<feBlend mode="normal" in2="BackgroundImageFix" result="effect1_dropShadow_68_244"/>
<feBlend mode="normal" in="SourceGraphic" in2="effect1_dropShadow_68_244" result="shape"/>
</filter>
<filter id="filter4_d_68_244" x="-124" y="516" width="200" height="197" filterUnits="userSpaceOnUse" color-interpolation-filters="sRGB">
<feFlood flood-opacity="0" result="BackgroundImageFix"/>
<feColorMatrix in="SourceAlpha" type="matrix" values="0 0 0 0 0 0 0 0 0 0 0 0 0 0 0 0 0 0 127 0" result="hardAlpha"/>
<feOffset dy="4"/>
<feGaussianBlur stdDeviation="2"/>
<feComposite in2="hardAlpha" operator="out"/>
<feColorMatrix type="matrix" values="0 0 0 0 0 0 0 0 0 0 0 0 0 0 0 0 0 0 0.015 0"/>
<feBlend mode="normal" in2="BackgroundImageFix" result="effect1_dropShadow_68_244"/>
<feBlend mode="normal" in="SourceGraphic" in2="effect1_dropShadow_68_244" result="shape"/>
</filter>
<linearGradient id="paint0_linear_68_244" x1="544.29" y1="-103.506" x2="767.585" y2="931.843" gradientUnits="userSpaceOnUse">
<stop stop-color="#49D07D"/>
<stop offset="1" stop-color="#538A3F"/>
</linearGradient>
<clipPath id="clip0_68_244">
<rect width="44.8251" height="44.8251" fill="white" transform="translate(99 483)"/>
</clipPath>
</defs>
</svg>
