<svg width="1081" height="632" viewBox="0 0 1081 632" fill="none" xmlns="http://www.w3.org/2000/svg">
<rect x="1" y="1" width="1079.14" height="630.353" rx="22" fill="url(#paint0_linear_87_157)"/>
<mask id="mask0_87_157" style="mask-type:alpha" maskUnits="userSpaceOnUse" x="0" y="0" width="1080" height="631">
<rect width="1079.91" height="630.805" rx="22" fill="#ED713C"/>
</mask>
<g mask="url(#mask0_87_157)">
<g opacity="0.92" filter="url(#filter0_ii_87_157)">
<path d="M22 39C22 29.0589 30.0589 21 40 21H1040C1049.94 21 1058 29.0589 1058 39V591C1058 600.941 1049.94 609 1040 609H40C30.0589 609 22 600.941 22 591V39Z" fill="#D9D9D9" fill-opacity="0.01"/>
</g>
<g opacity="0.4">
<path opacity="0.1" d="M-13.5 114.4C24.7738 114.4 55.8 82.8814 55.8 44.0001C55.8 5.11884 24.7738 -26.3999 -13.5 -26.3999C-51.7738 -26.3999 -82.8 5.11884 -82.8 44.0001C-82.8 82.8814 -51.7738 114.4 -13.5 114.4ZM-13.5 140C-65.6892 140 -108 97.0177 -108 44.0001C-108 -9.01748 -65.6892 -51.9999 -13.5 -51.9999C38.6892 -51.9999 81 -9.01748 81 44.0001C81 97.0177 38.6892 140 -13.5 140Z" fill="white"/>
<g opacity="0.1" filter="url(#filter1_d_87_157)">
<path d="M37.5 63.4001C75.7738 63.4001 106.8 31.8814 106.8 -6.99987C106.8 -45.8812 75.7738 -77.3999 37.5 -77.3999C-0.77376 -77.3999 -31.8 -45.8812 -31.8 -6.99987C-31.8 31.8814 -0.77376 63.4001 37.5 63.4001ZM37.5 89.0001C-14.6892 89.0001 -57 46.0177 -57 -6.99987C-57 -60.0175 -14.6892 -103 37.5 -103C89.6892 -103 132 -60.0175 132 -6.99987C132 46.0177 89.6892 89.0001 37.5 89.0001Z" fill="white"/>
</g>
<path opacity="0.1" d="M1054.5 730.4C1092.77 730.4 1123.8 698.882 1123.8 660C1123.8 621.119 1092.77 589.6 1054.5 589.6C1016.23 589.6 985.2 621.119 985.2 660C985.2 698.882 1016.23 730.4 1054.5 730.4ZM1054.5 756C1002.31 756 960 713.018 960 660C960 606.983 1002.31 564 1054.5 564C1106.69 564 1149 606.983 1149 660C1149 713.018 1106.69 756 1054.5 756Z" fill="white"/>
<g opacity="0.1" filter="url(#filter2_d_87_157)">
<path d="M1105.5 679.4C1143.77 679.4 1174.8 647.882 1174.8 609C1174.8 570.119 1143.77 538.6 1105.5 538.6C1067.23 538.6 1036.2 570.119 1036.2 609C1036.2 647.882 1067.23 679.4 1105.5 679.4ZM1105.5 705C1053.31 705 1011 662.018 1011 609C1011 555.983 1053.31 513 1105.5 513C1157.69 513 1200 555.983 1200 609C1200 662.018 1157.69 705 1105.5 705Z" fill="white"/>
</g>
<path opacity="0.1" d="M1186.4 35.5C1186.4 -2.77377 1154.88 -33.8 1116 -33.8C1077.12 -33.8 1045.6 -2.77376 1045.6 35.5C1045.6 73.7738 1077.12 104.8 1116 104.8C1154.88 104.8 1186.4 73.7738 1186.4 35.5ZM1212 35.5C1212 87.6892 1169.02 130 1116 130C1062.98 130 1020 87.6892 1020 35.5C1020 -16.6892 1062.98 -59 1116 -59C1169.02 -59 1212 -16.6892 1212 35.5Z" fill="white"/>
<g opacity="0.1" filter="url(#filter3_d_87_157)">
<path d="M1135.4 -15.5C1135.4 -53.7738 1103.88 -84.8 1065 -84.8C1026.12 -84.8 994.6 -53.7738 994.6 -15.5C994.6 22.7738 1026.12 53.8 1065 53.8C1103.88 53.8 1135.4 22.7738 1135.4 -15.5ZM1161 -15.5C1161 36.6892 1118.02 79 1065 79C1011.98 79 969 36.6892 969 -15.5C969 -67.6892 1011.98 -110 1065 -110C1118.02 -110 1161 -67.6892 1161 -15.5Z" fill="white"/>
</g>
<path opacity="0.1" d="M97.4 661.5C97.4 623.226 65.8813 592.2 27 592.2C-11.8813 592.2 -43.4 623.226 -43.4 661.5C-43.4 699.774 -11.8813 730.8 27 730.8C65.8813 730.8 97.4 699.774 97.4 661.5ZM123 661.5C123 713.689 80.0176 756 27 756C-26.0176 756 -69 713.689 -69 661.5C-69 609.311 -26.0176 567 27 567C80.0176 567 123 609.311 123 661.5Z" fill="white"/>
<g opacity="0.1" filter="url(#filter4_d_87_157)">
<path d="M46.4 610.5C46.4 572.226 14.8813 541.2 -24 541.2C-62.8813 541.2 -94.4 572.226 -94.4 610.5C-94.4 648.774 -62.8813 679.8 -24 679.8C14.8813 679.8 46.4 648.774 46.4 610.5ZM72 610.5C72 662.689 29.0176 705 -24 705C-77.0176 705 -120 662.689 -120 610.5C-120 558.311 -77.0176 516 -24 516C29.0176 516 72 558.311 72 610.5Z" fill="white"/>
</g>
</g>
<g opacity="0.9">
<g clip-path="url(#clip0_87_157)">
<path opacity="0.5" d="M279.296 299.712C279.296 334.42 251.261 362.662 216.808 362.662C182.355 362.662 154.319 334.42 154.319 299.712C154.319 289.644 156.746 279.608 161.344 270.73C165.751 262.141 172.201 254.582 179.96 248.856C188.613 242.487 200.779 244.417 207.069 253.102C213.391 261.82 211.475 274.075 202.854 280.412C202.503 280.669 202.152 280.959 201.8 281.216C196.787 285.333 193.722 291.252 193.179 297.653V297.782C193.179 297.943 193.147 298.136 193.147 298.297C193.147 298.457 193.115 298.65 193.115 298.811V299.68C193.115 312.836 203.748 323.515 216.776 323.515C220.448 323.515 223.928 322.679 227.026 321.167C234.944 317.307 240.437 309.137 240.437 299.68C240.437 292.507 237.275 285.784 231.751 281.216C231.432 280.927 231.081 280.669 230.73 280.412C230.091 279.929 229.644 279.286 229.389 278.578C228.367 277.002 227.728 275.201 227.537 273.271C227.217 270.119 228.143 267.063 230.123 264.618C232.103 262.173 234.913 260.662 238.042 260.34C241.139 260.018 244.204 260.951 246.631 262.945C257.615 272.016 263.906 285.398 263.906 299.68C263.906 325.831 242.767 347.126 216.808 347.126C190.848 347.126 169.71 325.831 169.71 299.68C169.71 285.398 176 272.016 186.984 262.945C188.581 261.627 190.912 261.884 192.221 263.46C193.53 265.068 193.275 267.417 191.71 268.735C182.45 276.359 177.15 287.649 177.15 299.68C177.15 321.714 194.935 339.631 216.808 339.631C238.68 339.631 256.466 321.714 256.466 299.68C256.466 287.649 251.165 276.359 241.905 268.735C241.011 267.996 239.894 267.674 238.776 267.77C237.627 267.899 236.605 268.446 235.87 269.347C235.136 270.247 234.817 271.373 234.913 272.499C235.04 273.657 235.583 274.686 236.477 275.426L236.509 275.458C236.605 275.523 236.669 275.619 236.765 275.683L237.243 276.069C237.275 276.102 237.307 276.134 237.371 276.166C243.598 281.699 247.334 289.419 247.844 297.718V297.814C247.844 298.039 247.876 298.232 247.876 298.457V299.648C247.876 311.807 240.979 322.357 230.921 327.536C226.674 329.723 221.853 330.978 216.776 330.978C199.629 330.978 185.675 316.921 185.675 299.648C185.675 290.577 189.539 282.052 196.276 276.102L196.308 276.069L196.883 275.587C196.947 275.555 196.979 275.49 197.043 275.458L197.107 275.394L197.138 275.362C197.585 275.008 198.001 274.654 198.48 274.332C203.812 270.408 204.993 262.849 201.098 257.477C197.202 252.105 189.699 250.915 184.366 254.839C177.501 259.954 171.817 266.612 167.922 274.172C163.835 282.117 161.759 290.705 161.759 299.712C161.759 330.302 186.474 355.167 216.808 355.167C247.174 355.167 271.856 330.27 271.856 299.712C271.856 290.705 269.781 282.117 265.694 274.172C261.798 266.612 256.115 259.922 249.249 254.904C243.917 250.979 236.413 252.17 232.518 257.541C231.304 259.214 228.973 259.568 227.313 258.346C225.653 257.123 225.301 254.775 226.515 253.102C232.837 244.385 245.003 242.487 253.624 248.856C261.383 254.582 267.833 262.141 272.271 270.73C276.87 279.608 279.296 289.644 279.296 299.712Z" fill="white"/>
</g>
<g clip-path="url(#clip1_87_157)">
<path d="M586.971 304.87C586.971 315.118 583.555 324.513 577.577 332.483L575.299 330.775L568.467 325.651C573.022 319.673 575.584 312.272 575.584 304.87C575.584 297.469 573.307 290.352 568.752 284.659L572.737 280.958L577.292 276.972C583.555 284.659 586.971 294.337 586.971 304.87V304.87Z" fill="white"/>
<path d="M575.299 330.775L568.467 325.651L555.372 315.972C557.934 312.556 559.642 308.571 559.642 304.016C559.642 300.885 558.788 297.753 557.365 295.191L569.037 284.374L573.022 280.673L577.577 276.688L588.964 266.155L592.664 262.454L588.394 258.184C576.723 246.512 561.35 239.68 544.839 239.111V230.571C544.839 228.009 542.847 226.016 540.285 226.016C537.723 226.016 535.73 228.009 535.73 230.571V239.396C532.029 239.68 528.328 240.534 524.628 241.388V230.571C524.628 228.009 522.635 226.301 520.073 226.301C517.511 226.301 515.518 228.293 515.518 230.571V244.804C492.745 255.053 476.803 277.826 476.803 304.301C476.803 339.315 504.701 368.067 539.431 369.491H590.956V341.877L577.577 332.483L575.299 330.775V330.775ZM547.686 304.301C547.686 308.571 544.27 311.987 540 311.987C535.73 311.987 532.314 308.571 532.314 304.301C532.314 300.031 535.73 296.615 540 296.615C544.27 296.615 547.686 300.031 547.686 304.301ZM578.715 358.104H541.993V357.819C512.387 357.819 488.19 333.907 488.19 304.301C488.19 284.374 499.007 267.009 515.234 257.899V276.972C515.234 279.25 517.226 281.242 519.788 281.242C522.35 281.242 524.343 279.25 524.343 276.972V253.629C527.759 252.491 531.46 251.637 535.445 251.067C537.438 250.783 539.715 250.783 541.993 250.783H544.555C555.942 251.352 566.474 255.337 575.299 262.454L548.825 286.936C546.263 285.512 543.131 284.943 540 284.943C529.467 284.943 520.642 293.483 520.642 304.301C520.642 314.834 529.183 323.658 540 323.658C541.708 323.658 543.131 323.374 544.839 323.089L550.818 327.359L579 347.855V358.104H578.715Z" fill="url(#paint1_linear_87_157)"/>
<path d="M575.915 210.295L578.733 207.477L581.552 210.295L578.734 213.113L575.915 210.295Z" fill="white"/>
<path d="M599.781 194.702C601.825 194.702 603.482 193.045 603.482 191.002C603.482 188.958 601.825 187.301 599.781 187.301C597.737 187.301 596.08 188.958 596.08 191.002C596.08 193.045 597.737 194.702 599.781 194.702Z" fill="white"/>
<path d="M594.206 232.488L598.836 227.858L603.466 232.487L598.836 237.117L594.206 232.488Z" fill="white"/>
</g>
<path d="M442.737 424.774C441.082 424.774 439.552 424.505 438.146 423.968C436.76 423.409 435.55 422.634 434.516 421.641C433.503 420.649 432.707 419.48 432.128 418.136C431.569 416.792 431.29 415.323 431.29 413.731C431.29 412.139 431.569 410.67 432.128 409.326C432.707 407.982 433.513 406.813 434.547 405.821C435.581 404.828 436.791 404.063 438.177 403.525C439.583 402.967 441.113 402.688 442.768 402.688C444.422 402.688 445.932 402.946 447.297 403.463C448.682 403.98 449.861 404.766 450.833 405.821L449.406 407.279C448.496 406.369 447.493 405.717 446.397 405.324C445.301 404.931 444.122 404.735 442.861 404.735C441.516 404.735 440.276 404.962 439.138 405.417C438.021 405.852 437.039 406.482 436.191 407.31C435.364 408.116 434.713 409.068 434.237 410.164C433.782 411.239 433.555 412.428 433.555 413.731C433.555 415.013 433.782 416.202 434.237 417.298C434.713 418.394 435.364 419.356 436.191 420.183C437.039 420.99 438.021 421.621 439.138 422.075C440.276 422.51 441.506 422.727 442.83 422.727C444.071 422.727 445.239 422.541 446.335 422.169C447.452 421.796 448.475 421.166 449.406 420.276L450.709 422.013C449.675 422.923 448.465 423.616 447.079 424.092C445.694 424.547 444.246 424.774 442.737 424.774ZM448.506 421.734V413.731H450.709V422.013L448.506 421.734ZM456.74 424.588V408.302H458.943V424.588H456.74ZM457.857 404.704C457.402 404.704 457.02 404.549 456.709 404.239C456.399 403.928 456.244 403.556 456.244 403.122C456.244 402.688 456.399 402.326 456.709 402.036C457.02 401.726 457.402 401.571 457.857 401.571C458.312 401.571 458.695 401.716 459.005 402.005C459.315 402.295 459.47 402.657 459.47 403.091C459.47 403.546 459.315 403.928 459.005 404.239C458.715 404.549 458.333 404.704 457.857 404.704ZM470.221 424.743C468.69 424.743 467.511 424.33 466.684 423.502C465.857 422.675 465.443 421.507 465.443 419.997V404.704H467.646V419.873C467.646 420.824 467.884 421.558 468.359 422.075C468.856 422.592 469.559 422.851 470.469 422.851C471.441 422.851 472.247 422.572 472.888 422.013L473.664 423.595C473.23 423.988 472.702 424.278 472.082 424.464C471.482 424.65 470.862 424.743 470.221 424.743ZM462.527 410.133V408.302H472.609V410.133H462.527ZM483.86 424.743C482.247 424.743 480.799 424.392 479.517 423.689C478.256 422.965 477.263 421.982 476.539 420.742C475.816 419.48 475.454 418.043 475.454 416.43C475.454 414.796 475.816 413.359 476.539 412.118C477.263 410.877 478.256 409.905 479.517 409.202C480.799 408.499 482.247 408.147 483.86 408.147C485.246 408.147 486.497 408.416 487.614 408.954C488.73 409.491 489.609 410.298 490.25 411.373L488.606 412.49C488.048 411.663 487.355 411.053 486.528 410.66C485.701 410.267 484.801 410.071 483.829 410.071C482.671 410.071 481.627 410.339 480.696 410.877C479.765 411.394 479.031 412.128 478.494 413.08C477.956 414.031 477.687 415.148 477.687 416.43C477.687 417.712 477.956 418.829 478.494 419.78C479.031 420.731 479.765 421.476 480.696 422.013C481.627 422.53 482.671 422.789 483.829 422.789C484.801 422.789 485.701 422.592 486.528 422.2C487.355 421.807 488.048 421.207 488.606 420.4L490.25 421.517C489.609 422.572 488.73 423.378 487.614 423.937C486.497 424.474 485.246 424.743 483.86 424.743ZM500.943 424.743C499.371 424.743 497.955 424.392 496.693 423.689C495.452 422.965 494.47 421.982 493.746 420.742C493.022 419.48 492.66 418.043 492.66 416.43C492.66 414.796 493.022 413.359 493.746 412.118C494.47 410.877 495.452 409.905 496.693 409.202C497.934 408.499 499.35 408.147 500.943 408.147C502.556 408.147 503.983 408.499 505.224 409.202C506.485 409.905 507.467 410.877 508.171 412.118C508.894 413.359 509.256 414.796 509.256 416.43C509.256 418.043 508.894 419.48 508.171 420.742C507.467 421.982 506.485 422.965 505.224 423.689C503.962 424.392 502.535 424.743 500.943 424.743ZM500.943 422.789C502.122 422.789 503.166 422.53 504.076 422.013C504.986 421.476 505.699 420.731 506.216 419.78C506.754 418.808 507.023 417.691 507.023 416.43C507.023 415.148 506.754 414.031 506.216 413.08C505.699 412.128 504.986 411.394 504.076 410.877C503.166 410.339 502.132 410.071 500.974 410.071C499.816 410.071 498.782 410.339 497.872 410.877C496.962 411.394 496.238 412.128 495.7 413.08C495.163 414.031 494.894 415.148 494.894 416.43C494.894 417.691 495.163 418.808 495.7 419.78C496.238 420.731 496.962 421.476 497.872 422.013C498.782 422.53 499.805 422.789 500.943 422.789ZM513.753 424.588V408.302H515.955V424.588H513.753ZM514.87 404.704C514.415 404.704 514.032 404.549 513.722 404.239C513.412 403.928 513.257 403.556 513.257 403.122C513.257 402.688 513.412 402.326 513.722 402.036C514.032 401.726 514.415 401.571 514.87 401.571C515.325 401.571 515.707 401.716 516.017 402.005C516.328 402.295 516.483 402.657 516.483 403.091C516.483 403.546 516.328 403.928 516.017 404.239C515.728 404.549 515.345 404.704 514.87 404.704ZM530.397 408.147C531.721 408.147 532.879 408.406 533.871 408.923C534.885 409.419 535.671 410.184 536.229 411.218C536.808 412.252 537.098 413.555 537.098 415.127V424.588H534.895V415.344C534.895 413.628 534.461 412.335 533.592 411.466C532.744 410.577 531.545 410.133 529.994 410.133C528.836 410.133 527.822 410.37 526.954 410.846C526.106 411.301 525.444 411.973 524.968 412.862C524.514 413.731 524.286 414.786 524.286 416.026V424.588H522.084V408.302H524.193V412.769L523.852 411.932C524.369 410.753 525.196 409.833 526.333 409.171C527.471 408.488 528.825 408.147 530.397 408.147ZM561.154 424.774C559.5 424.774 557.969 424.505 556.563 423.968C555.177 423.409 553.968 422.634 552.934 421.641C551.92 420.649 551.124 419.48 550.545 418.136C549.987 416.792 549.707 415.323 549.707 413.731C549.707 412.139 549.987 410.67 550.545 409.326C551.124 407.982 551.931 406.813 552.965 405.821C553.999 404.828 555.208 404.063 556.594 403.525C558 402.967 559.531 402.688 561.185 402.688C562.839 402.688 564.349 402.946 565.714 403.463C567.1 403.98 568.278 404.766 569.25 405.821L567.823 407.279C566.913 406.369 565.91 405.717 564.814 405.324C563.718 404.931 562.54 404.735 561.278 404.735C559.934 404.735 558.693 404.962 557.556 405.417C556.439 405.852 555.457 406.482 554.609 407.31C553.781 408.116 553.13 409.068 552.654 410.164C552.199 411.239 551.972 412.428 551.972 413.731C551.972 415.013 552.199 416.202 552.654 417.298C553.13 418.394 553.781 419.356 554.609 420.183C555.457 420.99 556.439 421.621 557.556 422.075C558.693 422.51 559.923 422.727 561.247 422.727C562.488 422.727 563.656 422.541 564.752 422.169C565.869 421.796 566.893 421.166 567.823 420.276L569.126 422.013C568.092 422.923 566.882 423.616 565.497 424.092C564.111 424.547 562.664 424.774 561.154 424.774ZM566.924 421.734V413.731H569.126V422.013L566.924 421.734ZM575.158 424.588V408.302H577.267V412.738L577.05 411.963C577.505 410.722 578.27 409.781 579.346 409.14C580.421 408.478 581.755 408.147 583.347 408.147V410.288C583.265 410.288 583.182 410.288 583.099 410.288C583.016 410.267 582.934 410.257 582.851 410.257C581.134 410.257 579.79 410.784 578.818 411.839C577.846 412.873 577.36 414.351 577.36 416.275V424.588H575.158ZM596.36 424.588V420.99L596.267 420.4V414.382C596.267 412.997 595.874 411.932 595.088 411.187C594.323 410.443 593.175 410.071 591.645 410.071C590.59 410.071 589.587 410.246 588.636 410.598C587.685 410.949 586.878 411.415 586.216 411.994L585.224 410.35C586.051 409.647 587.044 409.109 588.202 408.737C589.36 408.344 590.58 408.147 591.862 408.147C593.972 408.147 595.595 408.675 596.732 409.729C597.89 410.763 598.47 412.345 598.47 414.475V424.588H596.36ZM590.745 424.743C589.525 424.743 588.46 424.547 587.55 424.154C586.661 423.74 585.979 423.182 585.503 422.479C585.027 421.755 584.789 420.928 584.789 419.997C584.789 419.149 584.986 418.384 585.379 417.702C585.792 416.998 586.454 416.44 587.364 416.026C588.295 415.592 589.536 415.375 591.087 415.375H596.701V417.019H591.149C589.577 417.019 588.481 417.298 587.86 417.857C587.261 418.415 586.961 419.108 586.961 419.935C586.961 420.866 587.323 421.61 588.047 422.169C588.77 422.727 589.784 423.006 591.087 423.006C592.327 423.006 593.392 422.727 594.282 422.169C595.192 421.589 595.853 420.762 596.267 419.687L596.763 421.207C596.35 422.282 595.626 423.141 594.592 423.782C593.579 424.423 592.296 424.743 590.745 424.743ZM612.765 408.147C614.089 408.147 615.247 408.406 616.239 408.923C617.253 409.419 618.039 410.184 618.597 411.218C619.176 412.252 619.466 413.555 619.466 415.127V424.588H617.263V415.344C617.263 413.628 616.829 412.335 615.96 411.466C615.112 410.577 613.913 410.133 612.362 410.133C611.204 410.133 610.19 410.37 609.322 410.846C608.474 411.301 607.812 411.973 607.337 412.862C606.882 413.731 606.654 414.786 606.654 416.026V424.588H604.452V408.302H606.561V412.769L606.22 411.932C606.737 410.753 607.564 409.833 608.701 409.171C609.839 408.488 611.193 408.147 612.765 408.147ZM630.564 424.743C629.034 424.743 627.855 424.33 627.028 423.502C626.201 422.675 625.787 421.507 625.787 419.997V404.704H627.989V419.873C627.989 420.824 628.227 421.558 628.703 422.075C629.199 422.592 629.902 422.851 630.812 422.851C631.784 422.851 632.591 422.572 633.232 422.013L634.007 423.595C633.573 423.988 633.046 424.278 632.425 424.464C631.826 424.65 631.205 424.743 630.564 424.743ZM622.871 410.133V408.302H632.953V410.133H622.871ZM642.391 424.743C641.047 424.743 639.775 424.557 638.575 424.185C637.376 423.792 636.435 423.306 635.752 422.727L636.745 420.99C637.407 421.486 638.255 421.92 639.289 422.293C640.323 422.644 641.408 422.82 642.546 422.82C644.097 422.82 645.214 422.582 645.896 422.106C646.579 421.61 646.92 420.959 646.92 420.152C646.92 419.552 646.723 419.087 646.33 418.756C645.958 418.405 645.462 418.146 644.841 417.981C644.221 417.795 643.528 417.64 642.763 417.515C641.998 417.391 641.233 417.247 640.467 417.081C639.723 416.916 639.041 416.678 638.42 416.368C637.8 416.037 637.293 415.592 636.9 415.034C636.528 414.475 636.342 413.731 636.342 412.8C636.342 411.911 636.59 411.115 637.086 410.412C637.583 409.709 638.306 409.161 639.258 408.768C640.23 408.354 641.408 408.147 642.794 408.147C643.849 408.147 644.903 408.292 645.958 408.582C647.013 408.85 647.881 409.212 648.564 409.667L647.602 411.435C646.878 410.939 646.103 410.588 645.276 410.381C644.448 410.153 643.621 410.039 642.794 410.039C641.326 410.039 640.24 410.298 639.537 410.815C638.854 411.311 638.513 411.952 638.513 412.738C638.513 413.359 638.699 413.845 639.072 414.196C639.464 414.548 639.971 414.827 640.592 415.034C641.233 415.22 641.925 415.375 642.67 415.499C643.435 415.623 644.19 415.778 644.934 415.964C645.7 416.13 646.392 416.368 647.013 416.678C647.654 416.967 648.161 417.391 648.533 417.95C648.926 418.487 649.122 419.201 649.122 420.09C649.122 421.041 648.853 421.869 648.316 422.572C647.799 423.254 647.033 423.792 646.02 424.185C645.027 424.557 643.818 424.743 642.391 424.743Z" fill="white"/>
<path opacity="0.5" d="M862.067 223.59C837.944 226.996 823.24 239.812 827.025 254.079C827.952 257.485 831.875 263.784 833.021 263.784C833.522 263.784 835.754 261.899 838.017 259.655L842.23 255.6L840.017 253.863C836.236 250.82 835.949 249.589 838.662 247.055C846.441 239.744 862.928 235.686 881.627 236.481C895.83 237.06 905.538 239.666 913.315 244.81C918.525 248.284 918.954 249.351 916.385 252.416L914.244 254.807L923.381 263.064L925.164 260.021C927.732 255.48 928.448 253.213 928.448 249.446C928.448 239.669 919.241 230.758 904.536 226.126C893.617 222.72 875.843 221.637 862.072 223.592L862.067 223.59ZM866.394 246.835C852.548 249.878 837.917 261.465 831.352 274.644C827.284 282.755 826 288.623 826 298.543C826 306.8 826.214 308.176 828.214 313.825C830.712 320.851 836.421 330.12 842.417 336.759C854.714 350.374 884.546 371.887 905.08 381.878C912.716 385.572 916.499 386.224 917.713 384.051C918.926 381.735 918.141 380.286 913.074 374.923C909.362 371.063 908.223 369.273 907.289 366.015C904.557 356.601 907.647 346.605 916.71 335.599C922.495 328.573 926.703 321.066 929.272 313.346C931.627 306.175 931.627 292.778 929.272 284.376C924.062 265.984 908.146 250.557 890.233 246.717C884.023 245.414 872.461 245.414 866.394 246.79V246.835ZM890.16 251.905C910.143 257.119 924.774 275.226 926.059 296.373C926.771 308.634 922.206 321.069 912.782 332.363C904.361 342.502 900.792 351.7 901.435 361.912C901.792 366.982 904.076 372.993 906.93 376.324C909.498 379.294 892.515 369.516 877.954 359.593C855.258 344.168 840.342 329.393 834.49 316.284C823.172 291.159 838.372 260.164 865.991 252.103C871.63 250.436 884.191 250.293 890.185 251.885L890.16 251.905ZM896.946 284.785C893.448 286.67 889.739 291.086 890.023 292.969C890.381 295.721 893.307 295.43 895.662 292.515C897.946 289.69 901.872 288.025 904.441 288.654C905.367 288.872 907.367 290.392 908.865 291.986C911.935 295.171 914.504 295.75 915.242 293.434C915.811 291.481 912.673 287.349 908.82 285.105C905.181 282.932 900.612 282.789 896.973 284.742L896.946 284.785ZM849.128 286.089C845.416 288.48 843.275 291.447 843.633 293.695C843.99 296.447 846.202 296.012 849.914 292.465C854.696 287.923 857.194 287.923 861.974 292.392C865.686 295.941 867.326 296.375 868.396 294.277C868.965 293.191 868.681 292.324 866.968 290.149C861.972 283.775 855.195 282.256 849.126 286.093L849.128 286.089ZM866.829 306.584C864.903 307.719 865.401 309.842 868.184 312.715C871.327 315.826 875.749 318.001 879.033 318.074C882.221 318.074 886.548 315.683 888.812 312.715C892.592 307.644 888.88 305.108 884.243 309.604C882.816 310.98 880.96 312.356 880.103 312.574C878.104 313.226 873.966 311.439 871.896 309.025C869.683 306.418 868.328 305.766 866.829 306.563V306.584Z" fill="white"/>
</g>
<path d="M120.04 532.557C128.561 532.557 135.469 525.534 135.469 516.871C135.469 508.208 128.561 501.185 120.04 501.185C111.518 501.185 104.611 508.208 104.611 516.871C104.611 525.534 111.518 532.557 120.04 532.557ZM120.04 538.261C108.42 538.261 99 528.684 99 516.871C99 505.058 108.42 495.481 120.04 495.481C131.659 495.481 141.079 505.058 141.079 516.871C141.079 528.684 131.659 538.261 120.04 538.261Z" fill="#FBCC5C"/>
<path d="M131.261 526.129C139.782 526.129 146.69 519.106 146.69 510.442C146.69 501.779 139.782 494.756 131.261 494.756C122.739 494.756 115.832 501.779 115.832 510.442C115.832 519.106 122.739 526.129 131.261 526.129ZM131.261 531.833C119.641 531.833 110.221 522.256 110.221 510.442C110.221 498.629 119.641 489.052 131.261 489.052C142.88 489.052 152.3 498.629 152.3 510.442C152.3 522.256 142.88 531.833 131.261 531.833Z" fill="#35D07F"/>
<path d="M737.107 538.372C736.701 538.372 736.258 538.317 735.779 538.206C735.299 538.132 735.059 537.966 735.059 537.708C735.059 537.413 735.299 537.154 735.779 536.933C736.295 536.748 736.72 536.656 737.052 536.656C739.967 536.656 742.366 536.139 744.248 535.106C746.167 534.036 747.587 532.707 748.51 531.121C749.469 529.534 749.949 527.947 749.949 526.36C749.949 524.921 749.525 523.648 748.676 522.541C747.827 521.434 746.425 520.419 744.469 519.496C742.55 518.574 739.948 517.688 736.664 516.839C736.184 516.434 735.834 516.028 735.612 515.622C735.428 515.216 735.336 514.773 735.336 514.293C735.336 513.777 735.428 513.149 735.612 512.411C735.834 511.673 736.092 510.898 736.387 510.086C736.683 509.238 736.978 508.407 737.273 507.595C737.568 506.784 737.808 506.082 737.993 505.492C738.177 504.938 738.454 504.514 738.823 504.219C739.192 503.887 739.672 503.647 740.262 503.499C741.111 503.278 741.978 503.075 742.864 502.89C743.749 502.706 744.672 502.54 745.631 502.392C746.591 502.208 747.569 502.06 748.565 501.949C749.598 501.802 750.65 501.673 751.72 501.562C752.016 501.525 752.218 501.617 752.329 501.839C752.477 502.023 752.477 502.245 752.329 502.503C752.182 502.798 752.016 503.112 751.831 503.444C751.683 503.739 751.536 504.034 751.388 504.33C751.13 504.883 750.835 505.308 750.503 505.603C750.207 505.861 749.82 506.027 749.34 506.101C748.639 506.175 747.827 506.267 746.905 506.378C745.982 506.451 745.059 506.544 744.137 506.654C743.214 506.728 742.366 506.802 741.591 506.876C740.816 506.95 740.225 507.023 739.819 507.097C739.561 507.134 739.247 507.466 738.878 508.094C738.509 508.684 738.177 509.33 737.882 510.031C737.587 510.695 737.421 511.175 737.384 511.47C737.347 511.729 737.365 511.95 737.439 512.134C737.55 512.319 737.771 512.448 738.103 512.522C740.17 513.112 742.052 513.721 743.749 514.349C745.447 514.939 746.923 515.566 748.178 516.231C750.244 517.301 751.776 518.574 752.772 520.05C753.805 521.489 754.322 523.334 754.322 525.585C754.322 527.615 753.713 529.515 752.495 531.287C751.277 533.058 749.635 534.534 747.569 535.715C746.572 536.269 745.521 536.73 744.414 537.099C743.307 537.505 742.144 537.818 740.926 538.04C739.709 538.261 738.435 538.372 737.107 538.372ZM780.862 536.435C780.604 536.435 780.198 536.416 779.644 536.379C779.091 536.342 778.464 536.305 777.762 536.269C777.061 536.232 776.323 536.195 775.548 536.158C774.81 536.121 774.091 536.102 773.389 536.102C772.688 536.102 771.692 536.121 770.4 536.158C769.109 536.195 767.743 536.232 766.304 536.269C764.902 536.269 763.666 536.287 762.596 536.324C761.525 536.361 760.843 536.379 760.547 536.379C760.4 536.379 760.178 536.269 759.883 536.047C759.588 535.789 759.44 535.586 759.44 535.438C759.44 535.254 759.477 535.125 759.551 535.051C759.625 534.977 759.736 534.866 759.883 534.719L769.349 524.921C771.194 523.002 772.725 520.862 773.943 518.5C775.161 516.101 775.77 513.684 775.77 511.249C775.77 509.293 775.179 507.762 773.998 506.654C772.817 505.51 771.434 504.938 769.847 504.938C768.334 504.938 766.932 505.363 765.64 506.212C764.348 507.023 763.315 508.094 762.54 509.422C762.429 509.644 762.282 509.828 762.097 509.976C761.95 510.123 761.784 510.197 761.599 510.197C761.452 510.197 761.267 510.049 761.046 509.754C760.861 509.422 760.769 509.016 760.769 508.536C760.769 508.094 761.027 507.485 761.544 506.71C762.097 505.935 762.854 505.141 763.813 504.33C764.773 503.518 765.917 502.835 767.245 502.282C768.574 501.691 770.013 501.396 771.563 501.396C773.408 501.396 774.995 501.783 776.323 502.558C777.652 503.333 778.667 504.403 779.368 505.769C780.069 507.134 780.419 508.721 780.419 510.529C780.419 511.526 780.235 512.596 779.866 513.74C779.534 514.884 779.054 516.009 778.427 517.116C777.836 518.223 777.154 519.257 776.379 520.216C775.899 520.806 775.179 521.6 774.22 522.596C773.297 523.556 772.282 524.589 771.175 525.696C770.105 526.803 769.072 527.855 768.076 528.851C767.116 529.811 766.323 530.623 765.695 531.287C765.068 531.914 764.754 532.265 764.754 532.338C764.754 532.523 765.013 532.652 765.529 532.726C766.157 532.763 766.858 532.8 767.633 532.837C768.445 532.874 769.367 532.892 770.4 532.892C771.471 532.892 772.541 532.874 773.611 532.837C774.681 532.8 775.714 532.763 776.711 532.726C777.781 532.652 778.611 532.56 779.202 532.449C779.792 532.338 780.29 532.117 780.696 531.785C781.102 531.416 781.526 530.862 781.969 530.124C782.117 529.903 782.301 529.645 782.523 529.349C782.781 529.017 783.058 528.851 783.353 528.851C783.538 528.851 783.648 528.925 783.685 529.073C783.722 529.22 783.741 529.368 783.741 529.515C783.741 529.7 783.63 530.069 783.408 530.623C783.224 531.139 783.003 531.785 782.744 532.56C782.486 533.335 782.264 534.184 782.08 535.106C781.969 535.697 781.785 536.066 781.526 536.213C781.268 536.361 781.047 536.435 780.862 536.435ZM793.177 538.372C792.328 538.372 791.424 538.224 790.464 537.929C789.505 537.671 788.693 537.357 788.029 536.988C787.364 536.619 787.032 536.287 787.032 535.992C787.032 535.733 787.18 535.401 787.475 534.995C787.77 534.589 788.103 534.239 788.472 533.944C788.877 533.612 789.21 533.446 789.468 533.446C789.874 533.446 790.243 533.556 790.575 533.778C790.907 533.999 791.258 534.257 791.627 534.553C792.106 534.959 792.66 535.346 793.287 535.715C793.915 536.084 794.745 536.269 795.778 536.269C797.144 536.269 798.435 535.918 799.653 535.217C800.871 534.516 801.867 533.556 802.642 532.338C803.454 531.084 803.86 529.7 803.86 528.187C803.86 526.748 803.62 525.364 803.14 524.035C802.66 522.707 801.941 521.618 800.981 520.77C800.059 519.884 798.878 519.441 797.439 519.441C797.033 519.441 796.479 519.496 795.778 519.607C795.114 519.681 794.468 519.902 793.841 520.271C793.656 520.382 793.435 520.382 793.177 520.271C792.955 520.124 792.863 519.958 792.9 519.773C793.047 519.293 793.269 518.906 793.564 518.611C793.859 518.279 794.191 518.039 794.56 517.891C794.893 517.744 795.428 517.467 796.166 517.061C796.904 516.618 797.679 516.083 798.491 515.456C799.339 514.791 800.059 514.053 800.649 513.242C801.24 512.393 801.535 511.47 801.535 510.474C801.535 508.961 801.037 507.632 800.04 506.488C799.081 505.308 797.845 504.717 796.332 504.717C794.893 504.717 793.73 504.975 792.844 505.492C791.996 505.972 791.313 506.544 790.796 507.208C790.28 507.835 789.892 508.407 789.634 508.924C789.376 509.404 789.136 509.644 788.914 509.644C788.767 509.644 788.582 509.533 788.361 509.311C788.139 509.09 788.029 508.85 788.029 508.592C788.029 508.112 788.232 507.485 788.638 506.71C789.044 505.898 789.671 505.086 790.52 504.274C791.405 503.462 792.512 502.78 793.841 502.226C795.206 501.673 796.83 501.396 798.712 501.396C799.93 501.396 801.074 501.673 802.144 502.226C803.251 502.743 804.155 503.481 804.856 504.44C805.557 505.363 805.908 506.451 805.908 507.706C805.908 508.592 805.723 509.514 805.354 510.474C804.985 511.433 804.376 512.393 803.528 513.352C802.679 514.275 801.535 515.16 800.096 516.009C799.985 516.046 799.93 516.12 799.93 516.231C799.93 516.304 800.004 516.341 800.151 516.341C801.738 516.341 803.159 516.747 804.413 517.559C805.668 518.334 806.664 519.386 807.402 520.714C808.177 522.006 808.565 523.445 808.565 525.032C808.565 527.098 808.122 528.962 807.236 530.623C806.351 532.246 805.17 533.648 803.694 534.829C802.218 535.973 800.557 536.841 798.712 537.431C796.904 538.058 795.059 538.372 793.177 538.372ZM822.485 536.435C822.3 536.435 822.079 536.379 821.82 536.269C821.599 536.158 821.488 535.973 821.488 535.715C821.488 535.531 821.599 535.383 821.82 535.272C822.042 535.161 822.263 535.088 822.485 535.051C824.219 534.829 825.363 534.46 825.916 533.944C826.47 533.427 826.747 532.726 826.747 531.84V526.692C826.747 526.508 826.618 526.379 826.359 526.305C826.101 526.231 825.953 526.194 825.916 526.194C824.403 526.194 822.983 526.231 821.654 526.305C820.363 526.342 818.997 526.397 817.558 526.471C816.119 526.508 814.421 526.545 812.466 526.582C812.318 526.582 812.189 526.526 812.078 526.416C811.967 526.268 811.912 526.139 811.912 526.028C811.912 525.954 811.93 525.899 811.967 525.862C812.447 525.272 812.798 524.866 813.019 524.644C813.241 524.386 813.425 524.183 813.573 524.035C813.72 523.851 813.905 523.593 814.126 523.26L828.739 502.282C828.961 501.949 829.219 501.617 829.514 501.285C829.847 500.916 830.142 500.732 830.4 500.732H831.563C831.747 500.732 831.765 500.861 831.618 501.119C831.507 501.377 831.452 501.507 831.452 501.507L816.506 522.984C816.469 523.058 816.433 523.168 816.396 523.316C816.359 523.427 816.396 523.482 816.506 523.482H826.083C826.23 523.482 826.378 523.445 826.525 523.371C826.673 523.26 826.747 523.15 826.747 523.039V514.459C826.747 514.053 826.765 513.777 826.802 513.629C826.876 513.481 827.024 513.352 827.245 513.242C827.798 512.946 828.389 512.762 829.016 512.688C829.644 512.577 830.086 512.522 830.345 512.522C830.751 512.522 830.991 512.817 831.064 513.408C831.138 513.998 831.175 514.884 831.175 516.065V523.205C831.175 523.427 831.267 523.537 831.452 523.537C831.858 523.574 832.245 523.593 832.614 523.593C832.983 523.593 833.334 523.593 833.666 523.593C834.183 523.593 834.699 523.593 835.216 523.593C835.769 523.556 836.341 523.519 836.932 523.482C837.338 523.482 837.541 523.63 837.541 523.925C837.541 524.22 837.448 524.534 837.264 524.866C837.116 525.198 836.95 525.475 836.766 525.696C836.581 525.917 836.452 526.028 836.378 526.028C835.972 526.028 835.53 526.028 835.05 526.028C834.57 525.991 834.109 525.973 833.666 525.973C833.334 525.973 833.02 525.991 832.725 526.028C832.43 526.028 832.171 526.047 831.95 526.084C831.802 526.12 831.636 526.176 831.452 526.25C831.304 526.323 831.23 526.379 831.23 526.416V531.619C831.23 532.689 831.47 533.427 831.95 533.833C832.467 534.239 833.463 534.645 834.939 535.051C835.16 535.088 835.382 535.18 835.603 535.328C835.825 535.475 835.935 535.641 835.935 535.826C835.935 535.973 835.843 536.121 835.659 536.269C835.511 536.379 835.327 536.435 835.105 536.435C834.072 536.435 833.242 536.398 832.614 536.324C832.024 536.287 831.47 536.25 830.954 536.213C830.437 536.176 829.736 536.158 828.85 536.158C827.928 536.158 827.171 536.176 826.581 536.213C826.027 536.25 825.455 536.287 824.865 536.324C824.274 536.398 823.481 536.435 822.485 536.435ZM843.822 537.044C843.01 537.044 842.29 536.748 841.663 536.158C841.072 535.531 840.777 534.811 840.777 533.999C840.777 533.15 841.072 532.431 841.663 531.84C842.29 531.25 843.01 530.955 843.822 530.955C844.67 530.955 845.39 531.25 845.98 531.84C846.571 532.431 846.866 533.15 846.866 533.999C846.866 534.811 846.571 535.531 845.98 536.158C845.39 536.748 844.67 537.044 843.822 537.044ZM863.775 537.044C861.893 537.044 860.251 536.527 858.848 535.494C857.483 534.46 856.339 533.095 855.416 531.397C854.494 529.663 853.811 527.763 853.368 525.696C852.925 523.63 852.704 521.581 852.704 519.552C852.704 517.448 852.925 515.326 853.368 513.186C853.811 511.046 854.494 509.09 855.416 507.319C856.376 505.547 857.594 504.127 859.07 503.056C860.546 501.949 862.299 501.396 864.328 501.396C866.21 501.396 867.834 501.912 869.199 502.946C870.602 503.979 871.764 505.363 872.687 507.097C873.609 508.795 874.292 510.677 874.735 512.743C875.178 514.773 875.399 516.784 875.399 518.777C875.399 520.843 875.178 522.947 874.735 525.087C874.292 527.227 873.591 529.202 872.631 531.01C871.709 532.818 870.509 534.276 869.033 535.383C867.594 536.49 865.841 537.044 863.775 537.044ZM864.716 535.604C866.192 535.604 867.373 534.866 868.258 533.39C869.181 531.877 869.845 529.921 870.251 527.523C870.657 525.124 870.86 522.541 870.86 519.773C870.86 517.707 870.694 515.677 870.362 513.684C870.067 511.692 869.587 509.883 868.923 508.26C868.295 506.636 867.502 505.344 866.542 504.385C865.62 503.425 864.531 502.946 863.277 502.946C861.8 502.946 860.62 503.665 859.734 505.105C858.885 506.544 858.258 508.463 857.852 510.861C857.483 513.223 857.298 515.788 857.298 518.555C857.298 520.622 857.446 522.67 857.741 524.7C858.073 526.729 858.535 528.574 859.125 530.235C859.752 531.859 860.527 533.169 861.45 534.165C862.372 535.125 863.461 535.604 864.716 535.604ZM888.433 536.435C888.248 536.435 888.027 536.379 887.769 536.269C887.547 536.158 887.437 535.973 887.437 535.715C887.437 535.531 887.547 535.383 887.769 535.272C887.99 535.161 888.212 535.088 888.433 535.051C890.167 534.829 891.311 534.46 891.865 533.944C892.418 533.427 892.695 532.726 892.695 531.84V526.692C892.695 526.508 892.566 526.379 892.308 526.305C892.049 526.231 891.902 526.194 891.865 526.194C890.352 526.194 888.931 526.231 887.603 526.305C886.311 526.342 884.946 526.397 883.507 526.471C882.067 526.508 880.37 526.545 878.414 526.582C878.266 526.582 878.137 526.526 878.027 526.416C877.916 526.268 877.86 526.139 877.86 526.028C877.86 525.954 877.879 525.899 877.916 525.862C878.396 525.272 878.746 524.866 878.968 524.644C879.189 524.386 879.373 524.183 879.521 524.035C879.669 523.851 879.853 523.593 880.075 523.26L894.688 502.282C894.909 501.949 895.168 501.617 895.463 501.285C895.795 500.916 896.09 500.732 896.349 500.732H897.511C897.695 500.732 897.714 500.861 897.566 501.119C897.456 501.377 897.4 501.507 897.4 501.507L882.455 522.984C882.418 523.058 882.381 523.168 882.344 523.316C882.307 523.427 882.344 523.482 882.455 523.482H892.031C892.179 523.482 892.326 523.445 892.474 523.371C892.621 523.26 892.695 523.15 892.695 523.039V514.459C892.695 514.053 892.714 513.777 892.751 513.629C892.824 513.481 892.972 513.352 893.193 513.242C893.747 512.946 894.337 512.762 894.965 512.688C895.592 512.577 896.035 512.522 896.293 512.522C896.699 512.522 896.939 512.817 897.013 513.408C897.087 513.998 897.124 514.884 897.124 516.065V523.205C897.124 523.427 897.216 523.537 897.4 523.537C897.806 523.574 898.194 523.593 898.563 523.593C898.932 523.593 899.282 523.593 899.614 523.593C900.131 523.593 900.648 523.593 901.164 523.593C901.718 523.556 902.29 523.519 902.88 523.482C903.286 523.482 903.489 523.63 903.489 523.925C903.489 524.22 903.397 524.534 903.212 524.866C903.065 525.198 902.899 525.475 902.714 525.696C902.53 525.917 902.401 526.028 902.327 526.028C901.921 526.028 901.478 526.028 900.998 526.028C900.519 525.991 900.057 525.973 899.614 525.973C899.282 525.973 898.969 525.991 898.673 526.028C898.378 526.028 898.12 526.047 897.898 526.084C897.751 526.12 897.585 526.176 897.4 526.25C897.253 526.323 897.179 526.379 897.179 526.416V531.619C897.179 532.689 897.419 533.427 897.898 533.833C898.415 534.239 899.411 534.645 900.888 535.051C901.109 535.088 901.33 535.18 901.552 535.328C901.773 535.475 901.884 535.641 901.884 535.826C901.884 535.973 901.792 536.121 901.607 536.269C901.46 536.379 901.275 536.435 901.054 536.435C900.02 536.435 899.19 536.398 898.563 536.324C897.972 536.287 897.419 536.25 896.902 536.213C896.385 536.176 895.684 536.158 894.799 536.158C893.876 536.158 893.12 536.176 892.529 536.213C891.976 536.25 891.404 536.287 890.813 536.324C890.223 536.398 889.429 536.435 888.433 536.435ZM909.327 536.435C909.069 536.435 908.866 536.361 908.718 536.213C908.571 536.066 908.497 535.918 908.497 535.77C908.497 535.438 908.774 535.198 909.327 535.051C910.729 534.682 911.873 534.35 912.759 534.054C913.682 533.722 914.346 533.279 914.752 532.726C915.195 532.135 915.416 531.305 915.416 530.235V509.09C915.416 508.389 915.195 507.854 914.752 507.485C914.309 507.116 913.737 506.857 913.036 506.71C912.335 506.562 911.578 506.47 910.766 506.433C910.397 506.396 910.065 506.304 909.77 506.156C909.475 506.009 909.327 505.787 909.327 505.492C909.327 505.234 909.456 505.012 909.715 504.828C910.01 504.643 910.342 504.533 910.711 504.496C912.372 504.237 913.848 503.924 915.139 503.555C916.468 503.149 917.759 502.318 919.014 501.064C919.051 501.027 919.088 501.008 919.125 501.008C919.199 501.008 919.254 501.008 919.291 501.008C919.475 501.008 919.641 501.064 919.789 501.174C919.937 501.248 919.992 501.359 919.955 501.507C919.881 502.06 919.826 502.669 919.789 503.333C919.752 503.961 919.734 504.662 919.734 505.437V530.899C919.734 531.822 919.9 532.523 920.232 533.003C920.601 533.482 921.21 533.87 922.059 534.165C922.907 534.423 924.088 534.737 925.601 535.106C925.823 535.143 926.026 535.235 926.21 535.383C926.431 535.494 926.542 535.641 926.542 535.826C926.542 536.232 926.284 536.435 925.767 536.435C924.734 536.435 923.774 536.398 922.889 536.324C922.04 536.287 921.191 536.25 920.343 536.213C919.531 536.176 918.627 536.158 917.63 536.158C916.634 536.158 915.693 536.176 914.807 536.213C913.922 536.25 913.036 536.287 912.15 536.324C911.265 536.398 910.324 536.435 909.327 536.435Z" fill="white"/>
<path d="M127.813 134.062C124.509 134.062 121.324 133.496 118.256 132.363C115.188 131.23 112.451 129.626 110.044 127.549C107.637 125.425 105.725 122.9 104.31 119.974C102.941 117.001 102.257 113.721 102.257 110.134C102.257 106.688 102.988 103.503 104.451 100.577C105.914 97.6505 107.92 95.1019 110.469 92.9309C113.017 90.7599 115.92 89.0844 119.176 87.9046C122.48 86.6775 125.949 86.0639 129.583 86.0639C131.423 86.0639 132.981 86.1347 134.255 86.2763C135.529 86.4179 136.757 86.6303 137.936 86.9134C139.164 87.1494 140.579 87.4798 142.184 87.9046C142.892 88.0933 143.388 88.3765 143.671 88.7541C144.001 89.1316 144.19 89.6508 144.237 90.3115C144.331 91.397 144.449 92.5769 144.591 93.8512C144.733 95.0783 144.827 96.6122 144.874 98.4528C144.921 98.7831 144.756 99.0663 144.379 99.3023C144.048 99.4911 143.671 99.5383 143.246 99.4439C142.868 99.3495 142.609 99.0427 142.467 98.5236C141.995 96.7301 141.452 95.1963 140.839 93.922C140.225 92.6005 139.305 91.515 138.078 90.6655C136.898 89.8632 135.459 89.2732 133.76 88.8957C132.108 88.4709 130.314 88.2585 128.379 88.2585C125.642 88.2585 123.093 88.8249 120.734 89.9576C118.421 91.0431 116.415 92.5533 114.716 94.4883C113.064 96.3762 111.766 98.5236 110.823 100.931C109.879 103.338 109.407 105.839 109.407 108.435C109.407 111.314 109.855 114.145 110.752 116.93C111.696 119.714 113.017 122.239 114.716 124.505C116.462 126.723 118.515 128.516 120.875 129.885C123.282 131.207 125.949 131.867 128.875 131.867C132.273 131.867 135.081 131.089 137.299 129.531C139.517 127.974 141.405 125.803 142.963 123.018C143.293 122.405 143.765 122.098 144.379 122.098C145.039 122.098 145.37 122.475 145.37 123.23C145.37 123.608 145.275 124.222 145.087 125.071C144.898 125.873 144.638 126.747 144.308 127.69C144.025 128.587 143.741 129.39 143.458 130.097C143.128 130.758 142.845 131.183 142.609 131.372C142.42 131.561 141.948 131.773 141.193 132.009C139.447 132.717 137.346 133.236 134.892 133.566C132.485 133.897 130.126 134.062 127.813 134.062ZM164.34 134.062C161.744 134.062 159.478 133.425 157.543 132.15C155.608 130.876 154.098 129.083 153.013 126.77C151.927 124.41 151.384 121.697 151.384 118.629C151.384 115.892 151.998 113.414 153.225 111.196C154.499 108.93 156.175 107.113 158.251 105.745C160.328 104.376 162.593 103.691 165.048 103.691C166.935 103.691 168.611 104.069 170.074 104.824C171.537 105.579 172.67 106.641 173.472 108.01C174.321 109.331 174.746 110.865 174.746 112.611C174.746 114.075 174.038 114.806 172.622 114.806H157.685C157.024 114.806 156.552 114.995 156.269 115.372C156.033 115.703 155.915 116.387 155.915 117.425C155.915 119.691 156.411 121.767 157.402 123.655C158.393 125.496 159.714 126.983 161.366 128.115C163.018 129.201 164.835 129.743 166.817 129.743C168.233 129.743 169.508 129.484 170.64 128.965C171.82 128.398 172.858 127.596 173.755 126.558C173.944 126.322 174.086 126.18 174.18 126.133C174.274 126.039 174.392 125.991 174.534 125.991C174.911 125.991 175.1 126.227 175.1 126.699C175.1 127.596 174.675 128.587 173.826 129.673C173.118 130.569 172.268 131.348 171.277 132.009C170.286 132.67 169.201 133.165 168.021 133.496C166.841 133.873 165.614 134.062 164.34 134.062ZM157.827 112.611H164.269C165.402 112.611 166.369 112.588 167.171 112.541C167.974 112.493 168.752 112.399 169.508 112.258C169.744 112.21 169.885 112.069 169.932 111.833C170.027 111.55 170.074 111.172 170.074 110.7C170.074 109.331 169.46 108.175 168.233 107.231C167.053 106.24 165.637 105.745 163.986 105.745C162.9 105.745 161.815 106.075 160.729 106.736C159.644 107.349 158.747 108.128 158.039 109.072C157.331 110.016 156.977 110.96 156.977 111.904C156.977 112.375 157.26 112.611 157.827 112.611ZM179.606 133.212C179.37 133.212 179.063 133.165 178.686 133.071C178.355 133.024 178.19 132.858 178.19 132.575C178.19 132.198 178.355 131.938 178.686 131.797C179.063 131.608 179.441 131.443 179.818 131.301C180.526 131.065 181.211 130.805 181.872 130.522C182.532 130.192 182.863 129.555 182.863 128.611V92.9309C182.863 91.5622 182.603 90.4295 182.084 89.5328C181.612 88.5889 180.786 87.9989 179.606 87.763C179.229 87.6686 179.04 87.3618 179.04 86.8427C179.04 86.3707 179.205 86.0875 179.535 85.9931C180.762 85.71 181.824 85.4268 182.721 85.1436C183.618 84.8132 184.444 84.4829 185.199 84.1525C186.001 83.8221 186.78 83.5154 187.535 83.2322C187.724 83.1378 187.865 83.0906 187.96 83.0906C188.054 83.0906 188.125 83.1614 188.172 83.303C188.267 83.3974 188.314 83.4918 188.314 83.5862C188.314 84.0109 188.219 84.9312 188.031 86.3471C187.889 87.7158 187.818 90.0048 187.818 93.2141V128.611C187.818 129.555 188.149 130.192 188.809 130.522C189.47 130.805 190.154 131.065 190.862 131.301C191.24 131.443 191.594 131.608 191.924 131.797C192.302 131.938 192.491 132.198 192.491 132.575C192.491 132.858 192.302 133.024 191.924 133.071C191.594 133.165 191.311 133.212 191.075 133.212C190.178 133.212 189.446 133.165 188.88 133.071C188.361 133.024 187.842 132.976 187.323 132.929C186.851 132.882 186.19 132.858 185.34 132.858C184.538 132.858 183.877 132.882 183.358 132.929C182.839 132.976 182.32 133.024 181.801 133.071C181.282 133.165 180.55 133.212 179.606 133.212ZM210.418 133.991C207.775 133.991 205.392 133.378 203.268 132.15C201.144 130.923 199.445 129.248 198.171 127.124C196.944 124.953 196.33 122.499 196.33 119.762C196.33 117.779 196.708 115.844 197.463 113.957C198.265 112.069 199.374 110.346 200.79 108.789C202.206 107.231 203.858 106.004 205.746 105.107C207.633 104.163 209.663 103.691 211.834 103.691C214.571 103.691 217.025 104.352 219.196 105.674C221.414 106.995 223.161 108.741 224.435 110.912C225.756 113.036 226.417 115.372 226.417 117.921C226.417 120.658 225.804 123.254 224.577 125.708C223.397 128.162 221.627 130.168 219.267 131.726C216.907 133.236 213.958 133.991 210.418 133.991ZM211.905 131.867C213.509 131.867 214.949 131.561 216.223 130.947C217.497 130.333 218.488 129.342 219.196 127.974C219.763 126.888 220.14 125.567 220.329 124.009C220.518 122.452 220.612 120.989 220.612 119.62C220.612 117.355 220.187 115.184 219.338 113.107C218.536 110.983 217.379 109.261 215.869 107.939C214.406 106.57 212.66 105.886 210.63 105.886C209.356 105.886 208.2 106.098 207.161 106.523C206.17 106.901 205.25 107.632 204.4 108.718C203.457 109.898 202.843 111.337 202.56 113.036C202.277 114.735 202.135 116.434 202.135 118.133C202.135 120.446 202.56 122.664 203.409 124.788C204.259 126.865 205.415 128.564 206.878 129.885C208.341 131.207 210.017 131.867 211.905 131.867Z" fill="white"/>
<path d="M179.741 535.44C179.299 535.44 178.816 535.38 178.294 535.259C177.772 535.179 177.511 534.998 177.511 534.717C177.511 534.395 177.772 534.114 178.294 533.873C178.857 533.672 179.319 533.572 179.68 533.572C182.854 533.572 185.466 533.009 187.515 531.884C189.604 530.719 191.151 529.273 192.155 527.545C193.2 525.818 193.722 524.09 193.722 522.362C193.722 520.796 193.26 519.409 192.336 518.204C191.412 516.999 189.885 515.894 187.756 514.89C185.667 513.885 182.834 512.921 179.258 511.997C178.736 511.555 178.354 511.113 178.113 510.671C177.913 510.229 177.812 509.747 177.812 509.225C177.812 508.662 177.913 507.979 178.113 507.176C178.354 506.372 178.636 505.528 178.957 504.644C179.279 503.72 179.6 502.816 179.921 501.932C180.243 501.049 180.504 500.285 180.705 499.642C180.906 499.04 181.207 498.578 181.609 498.256C182.011 497.895 182.533 497.634 183.176 497.473C184.1 497.232 185.044 497.011 186.008 496.81C186.972 496.609 187.977 496.428 189.021 496.268C190.066 496.067 191.131 495.906 192.215 495.785C193.34 495.625 194.485 495.484 195.651 495.364C195.972 495.323 196.193 495.424 196.314 495.665C196.474 495.866 196.474 496.107 196.314 496.388C196.153 496.709 195.972 497.051 195.771 497.413C195.61 497.734 195.45 498.055 195.289 498.377C195.008 498.979 194.686 499.442 194.325 499.763C194.003 500.044 193.581 500.225 193.059 500.305C192.296 500.386 191.412 500.486 190.408 500.607C189.403 500.687 188.399 500.787 187.394 500.908C186.39 500.988 185.466 501.069 184.622 501.149C183.778 501.229 183.136 501.31 182.694 501.39C182.412 501.43 182.071 501.792 181.669 502.475C181.267 503.118 180.906 503.821 180.584 504.584C180.263 505.307 180.082 505.83 180.042 506.151C180.002 506.432 180.022 506.673 180.102 506.874C180.223 507.075 180.464 507.216 180.825 507.296C183.075 507.939 185.124 508.602 186.972 509.285C188.821 509.928 190.428 510.611 191.794 511.334C194.044 512.499 195.711 513.885 196.796 515.492C197.921 517.059 198.483 519.068 198.483 521.519C198.483 523.728 197.82 525.798 196.494 527.726C195.168 529.655 193.381 531.262 191.131 532.547C190.046 533.15 188.901 533.652 187.696 534.054C186.49 534.496 185.225 534.837 183.899 535.078C182.573 535.319 181.187 535.44 179.741 535.44ZM217.314 534.114C215.265 534.114 213.296 533.652 211.408 532.728C209.52 531.804 207.973 530.418 206.768 528.57C205.562 526.681 204.96 524.331 204.96 521.519C204.96 519.269 205.221 517.22 205.743 515.372C206.265 513.524 206.928 511.896 207.732 510.49C208.535 509.044 209.339 507.818 210.143 506.814C210.986 505.769 211.689 504.966 212.252 504.403C213.256 503.359 214.542 502.194 216.109 500.908C217.676 499.622 219.484 498.397 221.533 497.232C223.622 496.067 225.892 495.163 228.343 494.52C228.704 494.439 228.985 494.46 229.186 494.58C229.427 494.701 229.508 494.821 229.427 494.942C229.267 495.303 229.006 495.585 228.644 495.785C228.323 495.946 228.061 496.067 227.861 496.147C225.169 497.312 222.838 498.638 220.87 500.125C218.941 501.611 217.214 503.459 215.687 505.669C215.044 506.633 214.281 507.959 213.397 509.646C212.513 511.294 211.75 513.142 211.107 515.191C210.464 517.24 210.143 519.309 210.143 521.398C210.183 523.608 210.645 525.496 211.529 527.063C212.413 528.59 213.497 529.755 214.783 530.558C216.109 531.362 217.435 531.784 218.76 531.824C220.408 531.864 221.854 531.302 223.1 530.137C224.345 528.931 224.968 527.083 224.968 524.592C224.968 523.347 224.727 522.202 224.245 521.157C223.803 520.072 223.16 519.188 222.316 518.505C221.513 517.822 220.568 517.481 219.484 517.481C218.439 517.481 217.535 517.541 216.772 517.662C216.049 517.782 215.345 518.023 214.662 518.385C214.301 518.546 214.08 518.546 213.999 518.385C213.959 518.184 214.04 517.963 214.241 517.722C214.562 517.401 214.823 517.139 215.024 516.939C215.265 516.738 215.546 516.517 215.868 516.276C216.31 515.954 217.113 515.552 218.278 515.07C219.484 514.548 220.649 514.287 221.774 514.287C223.18 514.287 224.466 514.608 225.631 515.251C226.836 515.894 227.8 516.778 228.523 517.903C229.287 518.988 229.668 520.253 229.668 521.699C229.668 523.588 229.307 525.295 228.584 526.822C227.861 528.349 226.896 529.655 225.691 530.739C224.486 531.824 223.14 532.648 221.653 533.21C220.207 533.813 218.76 534.114 217.314 534.114ZM256.334 533.331C256.053 533.331 255.611 533.311 255.008 533.27C254.405 533.23 253.722 533.19 252.959 533.15C252.196 533.11 251.392 533.07 250.549 533.029C249.745 532.989 248.962 532.969 248.198 532.969C247.435 532.969 246.35 532.989 244.944 533.029C243.538 533.07 242.051 533.11 240.484 533.15C238.957 533.15 237.612 533.17 236.446 533.21C235.281 533.25 234.538 533.27 234.217 533.27C234.056 533.27 233.815 533.15 233.493 532.909C233.172 532.628 233.011 532.407 233.011 532.246C233.011 532.045 233.051 531.904 233.132 531.824C233.212 531.744 233.333 531.623 233.493 531.462L243.799 520.796C245.808 518.706 247.475 516.376 248.801 513.805C250.127 511.193 250.79 508.562 250.79 505.91C250.79 503.781 250.147 502.113 248.861 500.908C247.575 499.662 246.069 499.04 244.341 499.04C242.694 499.04 241.167 499.502 239.761 500.426C238.355 501.31 237.23 502.475 236.386 503.921C236.266 504.162 236.105 504.363 235.904 504.524C235.743 504.685 235.563 504.765 235.362 504.765C235.201 504.765 235 504.604 234.759 504.283C234.558 503.921 234.458 503.479 234.458 502.957C234.458 502.475 234.739 501.812 235.301 500.968C235.904 500.125 236.728 499.261 237.772 498.377C238.817 497.493 240.062 496.75 241.509 496.147C242.955 495.504 244.522 495.183 246.209 495.183C248.218 495.183 249.946 495.605 251.392 496.448C252.839 497.292 253.943 498.457 254.707 499.944C255.47 501.43 255.852 503.158 255.852 505.127C255.852 506.211 255.651 507.376 255.249 508.622C254.888 509.867 254.365 511.093 253.682 512.298C253.039 513.503 252.296 514.628 251.452 515.673C250.93 516.316 250.147 517.18 249.102 518.264C248.098 519.309 246.993 520.434 245.788 521.639C244.622 522.845 243.497 523.99 242.413 525.074C241.368 526.119 240.504 527.003 239.821 527.726C239.138 528.409 238.797 528.791 238.797 528.871C238.797 529.072 239.078 529.213 239.64 529.293C240.323 529.333 241.087 529.373 241.931 529.413C242.814 529.454 243.819 529.474 244.944 529.474C246.109 529.474 247.274 529.454 248.439 529.413C249.604 529.373 250.729 529.333 251.814 529.293C252.979 529.213 253.883 529.112 254.526 528.992C255.169 528.871 255.711 528.63 256.153 528.268C256.595 527.867 257.057 527.264 257.539 526.46C257.7 526.219 257.901 525.938 258.142 525.617C258.423 525.255 258.724 525.074 259.046 525.074C259.247 525.074 259.367 525.155 259.408 525.315C259.448 525.476 259.468 525.637 259.468 525.798C259.468 525.998 259.347 526.4 259.106 527.003C258.905 527.565 258.664 528.268 258.383 529.112C258.102 529.956 257.861 530.88 257.66 531.884C257.539 532.527 257.338 532.929 257.057 533.09C256.776 533.25 256.535 533.331 256.334 533.331Z" fill="white"/>
<path d="M776.348 124.135C776.108 124.135 775.898 124.09 775.718 124C775.538 123.88 775.448 123.715 775.448 123.505C775.448 123.025 775.763 122.709 776.393 122.559C777.533 122.319 778.329 122.019 778.779 121.659C779.229 121.269 779.454 120.594 779.454 119.633V99.1946C779.454 98.2342 779.259 97.5589 778.869 97.1687C778.479 96.7485 777.684 96.4034 776.483 96.1333C775.853 95.9832 775.538 95.6681 775.538 95.1879C775.538 94.9778 775.628 94.8127 775.808 94.6927C775.988 94.5726 776.198 94.5126 776.438 94.5126C777.128 94.5126 777.849 94.5276 778.599 94.5576C779.379 94.5876 780.13 94.6326 780.85 94.6927C781.6 94.7227 782.29 94.7377 782.921 94.7377C783.521 94.7377 784.196 94.7227 784.947 94.6927C785.727 94.6626 786.507 94.6326 787.288 94.6026C788.098 94.5726 788.833 94.5576 789.493 94.5576C789.764 94.5576 789.974 94.6176 790.124 94.7377C790.274 94.8277 790.349 94.9778 790.349 95.1879C790.349 95.488 790.259 95.6981 790.079 95.8181C789.929 95.9382 789.689 96.0432 789.358 96.1333C788.158 96.4634 787.363 96.8386 786.972 97.2587C786.582 97.6489 786.387 98.3092 786.387 99.2396V119.588C786.387 120.459 786.597 121.104 787.017 121.524C787.468 121.914 788.278 122.259 789.448 122.559C789.749 122.649 789.974 122.754 790.124 122.875C790.304 122.995 790.394 123.19 790.394 123.46C790.394 123.67 790.319 123.835 790.169 123.955C790.049 124.075 789.854 124.135 789.584 124.135C788.923 124.135 788.188 124.105 787.378 124.045C786.567 124.015 785.772 123.985 784.992 123.955C784.211 123.925 783.521 123.91 782.921 123.91C782.29 123.91 781.6 123.925 780.85 123.955C780.1 123.985 779.334 124.015 778.554 124.045C777.774 124.105 777.038 124.135 776.348 124.135ZM792.972 124.135C792.761 124.135 792.551 124.09 792.341 124C792.161 123.88 792.071 123.715 792.071 123.505C792.071 123.265 792.176 123.085 792.386 122.965C792.596 122.815 792.836 122.694 793.107 122.604C793.557 122.454 793.947 122.289 794.277 122.109C794.637 121.899 794.817 121.494 794.817 120.894V110.584C794.817 109.924 794.727 109.369 794.547 108.919C794.367 108.438 793.992 108.153 793.422 108.063C793.302 108.033 793.182 107.958 793.062 107.838C792.972 107.718 792.927 107.523 792.927 107.253C792.927 106.833 793.077 106.578 793.377 106.488C794.127 106.308 794.907 106.097 795.718 105.857C796.558 105.587 797.353 105.317 798.104 105.047C798.884 104.747 799.559 104.432 800.13 104.102C800.22 104.072 800.31 104.027 800.4 103.967C800.49 103.907 800.58 103.877 800.67 103.877C800.94 103.877 801.075 104.042 801.075 104.372C801.075 104.612 801.03 105.017 800.94 105.587C800.88 106.157 800.85 106.653 800.85 107.073C800.85 107.373 800.88 107.553 800.94 107.613H801.03C801.96 106.713 802.966 105.977 804.046 105.407C805.127 104.837 806.357 104.552 807.738 104.552C808.668 104.552 809.524 104.882 810.304 105.542C811.084 106.172 811.669 106.998 812.06 108.018H812.24C813.14 106.938 814.145 106.097 815.256 105.497C816.396 104.867 817.672 104.552 819.083 104.552C820.013 104.552 820.853 104.822 821.604 105.362C822.354 105.872 822.954 106.608 823.404 107.568C823.855 108.528 824.08 109.669 824.08 110.99V120.894C824.08 121.494 824.245 121.899 824.575 122.109C824.935 122.289 825.34 122.454 825.79 122.604C826.03 122.694 826.241 122.815 826.421 122.965C826.601 123.085 826.691 123.265 826.691 123.505C826.691 123.715 826.616 123.88 826.466 124C826.316 124.09 826.136 124.135 825.925 124.135C825.325 124.135 824.755 124.105 824.215 124.045C823.704 124.015 823.194 123.985 822.684 123.955C822.204 123.925 821.694 123.91 821.153 123.91C820.643 123.91 820.163 123.925 819.713 123.955C819.263 123.985 818.812 124.015 818.362 124.045C817.912 124.105 817.387 124.135 816.787 124.135C816.576 124.135 816.396 124.09 816.246 124C816.096 123.88 816.021 123.715 816.021 123.505C816.021 123.265 816.096 123.07 816.246 122.92C816.426 122.769 816.652 122.664 816.922 122.604C817.312 122.484 817.612 122.334 817.822 122.154C818.032 121.944 818.137 121.614 818.137 121.164V111.935C818.137 111.185 818.032 110.539 817.822 109.999C817.612 109.459 817.312 109.039 816.922 108.739C816.561 108.408 816.141 108.243 815.661 108.243C815.271 108.243 814.836 108.333 814.356 108.513C813.905 108.664 813.455 108.934 813.005 109.324C812.585 109.684 812.375 110.314 812.375 111.215V120.894C812.375 121.494 812.495 121.899 812.735 122.109C812.975 122.289 813.32 122.454 813.77 122.604C814.01 122.664 814.22 122.769 814.401 122.92C814.581 123.07 814.671 123.265 814.671 123.505C814.671 123.715 814.581 123.88 814.401 124C814.25 124.09 814.085 124.135 813.905 124.135C813.305 124.135 812.765 124.105 812.285 124.045C811.804 124.015 811.339 123.985 810.889 123.955C810.469 123.925 809.989 123.91 809.448 123.91C808.938 123.91 808.458 123.925 808.008 123.955C807.588 123.985 807.138 124.015 806.657 124.045C806.207 124.105 805.682 124.135 805.082 124.135C804.902 124.135 804.736 124.09 804.586 124C804.436 123.88 804.361 123.715 804.361 123.505C804.361 123.265 804.436 123.085 804.586 122.965C804.767 122.815 804.977 122.694 805.217 122.604C805.637 122.454 805.952 122.289 806.162 122.109C806.372 121.929 806.477 121.614 806.477 121.164V111.935C806.477 111.185 806.372 110.554 806.162 110.044C805.952 109.504 805.667 109.084 805.307 108.784C804.947 108.453 804.511 108.288 804.001 108.288C803.641 108.288 803.221 108.363 802.741 108.513C802.29 108.664 801.81 108.919 801.3 109.279C800.91 109.549 800.715 110.134 800.715 111.035V120.894C800.715 121.434 800.805 121.824 800.985 122.064C801.195 122.274 801.525 122.454 801.975 122.604C802.215 122.694 802.411 122.815 802.561 122.965C802.741 123.085 802.831 123.265 802.831 123.505C802.831 123.685 802.756 123.835 802.606 123.955C802.456 124.075 802.29 124.135 802.11 124.135C801.51 124.135 800.97 124.105 800.49 124.045C800.04 124.015 799.589 123.985 799.139 123.955C798.719 123.925 798.239 123.91 797.699 123.91C797.188 123.91 796.678 123.925 796.168 123.955C795.688 123.985 795.177 124.015 794.637 124.045C794.127 124.105 793.572 124.135 792.972 124.135ZM829.061 135.795C828.85 135.795 828.64 135.735 828.43 135.615C828.25 135.525 828.16 135.375 828.16 135.165C828.16 134.925 828.25 134.73 828.43 134.579C828.64 134.459 828.895 134.354 829.196 134.264C829.826 134.054 830.261 133.829 830.501 133.589C830.771 133.379 830.906 133.034 830.906 132.554V110.99C830.906 110.599 830.831 110.224 830.681 109.864C830.531 109.504 830.321 109.189 830.051 108.919C829.781 108.619 829.436 108.438 829.016 108.378C828.835 108.318 828.7 108.243 828.61 108.153C828.52 108.033 828.475 107.838 828.475 107.568C828.475 107.328 828.52 107.148 828.61 107.028C828.7 106.908 828.82 106.833 828.971 106.803C830.021 106.563 831.146 106.248 832.347 105.857C833.547 105.467 834.583 105.062 835.453 104.642C835.573 104.582 835.693 104.522 835.813 104.462C835.963 104.372 836.099 104.327 836.219 104.327C836.399 104.327 836.504 104.387 836.534 104.507C836.594 104.597 836.624 104.717 836.624 104.867C836.624 105.107 836.579 105.512 836.489 106.082C836.429 106.623 836.399 107.088 836.399 107.478C836.399 107.778 836.429 107.958 836.489 108.018C836.789 107.718 837.314 107.313 838.064 106.803C838.845 106.293 839.73 105.842 840.72 105.452C841.711 105.062 842.671 104.867 843.602 104.867C845.222 104.867 846.588 105.302 847.698 106.172C848.839 107.013 849.709 108.108 850.31 109.459C850.91 110.779 851.21 112.175 851.21 113.646C851.21 115.056 850.94 116.422 850.4 117.742C849.889 119.063 849.154 120.263 848.194 121.344C847.233 122.394 846.123 123.235 844.862 123.865C843.602 124.495 842.251 124.81 840.811 124.81C840.48 124.81 840.075 124.765 839.595 124.675C839.145 124.585 838.68 124.465 838.199 124.315C837.749 124.165 837.329 124.015 836.939 123.865C836.909 123.865 836.879 123.91 836.849 124C836.819 124.09 836.789 124.195 836.759 124.315C836.759 124.435 836.759 124.555 836.759 124.675V132.148C836.759 132.539 836.849 132.869 837.029 133.139C837.239 133.409 837.524 133.619 837.884 133.769C838.244 133.949 838.68 134.114 839.19 134.264C839.49 134.354 839.73 134.459 839.91 134.579C840.09 134.73 840.18 134.925 840.18 135.165C840.18 135.345 840.09 135.495 839.91 135.615C839.76 135.735 839.595 135.795 839.415 135.795C838.515 135.795 837.569 135.75 836.579 135.66C835.618 135.6 834.748 135.57 833.968 135.57C833.457 135.57 832.932 135.585 832.392 135.615C831.882 135.645 831.342 135.675 830.771 135.705C830.231 135.765 829.661 135.795 829.061 135.795ZM840.675 122.739C841.006 122.739 841.396 122.619 841.846 122.379C842.326 122.109 842.791 121.689 843.242 121.119C843.722 120.549 844.112 119.783 844.412 118.823C844.742 117.862 844.907 116.677 844.907 115.266C844.907 113.616 844.742 112.31 844.412 111.35C844.082 110.359 843.677 109.624 843.197 109.144C842.716 108.664 842.221 108.348 841.711 108.198C841.231 108.018 840.811 107.928 840.45 107.928C839.91 107.928 839.355 108.048 838.785 108.288C838.214 108.528 837.749 108.814 837.389 109.144C837.029 109.474 836.849 109.774 836.849 110.044C836.849 110.284 836.849 110.749 836.849 111.44C836.849 112.13 836.834 112.895 836.804 113.736C836.804 114.576 836.789 115.341 836.759 116.032C836.759 116.722 836.759 117.202 836.759 117.472C836.759 118.163 836.909 118.928 837.209 119.768C837.539 120.579 837.989 121.284 838.56 121.884C839.16 122.454 839.865 122.739 840.675 122.739ZM857.867 124.63C857.057 124.63 856.306 124.435 855.616 124.045C854.926 123.655 854.371 123.145 853.95 122.514C853.56 121.884 853.365 121.194 853.365 120.444C853.365 119.423 853.68 118.568 854.311 117.877C854.971 117.187 855.931 116.572 857.192 116.032L861.198 114.276C861.799 114.006 862.159 113.766 862.279 113.556C862.429 113.346 862.504 112.955 862.504 112.385L862.549 109.819C862.579 108.979 862.429 108.318 862.099 107.838C861.769 107.328 861.274 107.073 860.613 107.073C860.223 107.073 859.833 107.163 859.443 107.343C859.053 107.493 858.752 107.673 858.542 107.883C858.452 108.003 858.377 108.153 858.317 108.333C858.287 108.483 858.272 108.649 858.272 108.829C858.272 109.009 858.287 109.234 858.317 109.504C858.347 109.744 858.362 109.954 858.362 110.134C858.362 110.314 858.122 110.554 857.642 110.854C857.162 111.125 856.607 111.38 855.976 111.62C855.346 111.83 854.806 111.935 854.356 111.935C854.146 111.935 853.95 111.845 853.77 111.665C853.62 111.485 853.545 111.26 853.545 110.99C853.545 110.509 853.71 110.044 854.04 109.594C854.371 109.114 854.911 108.574 855.661 107.973C856.441 107.313 857.297 106.728 858.227 106.218C859.158 105.707 860.073 105.302 860.973 105.002C861.904 104.702 862.684 104.552 863.314 104.552C864.935 104.552 866.226 105.077 867.186 106.127C868.146 107.148 868.597 108.513 868.537 110.224L868.311 119.318C868.281 120.008 868.402 120.594 868.672 121.074C868.942 121.554 869.272 121.794 869.662 121.794C870.232 121.794 870.727 121.599 871.148 121.209C871.238 121.119 871.328 121.074 871.418 121.074C871.568 121.074 871.688 121.119 871.778 121.209C871.898 121.299 871.958 121.419 871.958 121.569C871.958 121.929 871.688 122.394 871.148 122.965C870.577 123.505 869.977 123.91 869.347 124.18C868.717 124.48 868.056 124.63 867.366 124.63C865.685 124.63 864.29 123.775 863.179 122.064H863.089C862.099 122.965 861.198 123.61 860.388 124C859.608 124.42 858.767 124.63 857.867 124.63ZM860.568 121.704C860.898 121.704 861.168 121.659 861.379 121.569C861.589 121.449 861.799 121.269 862.009 121.029C862.099 120.909 862.174 120.759 862.234 120.579C862.294 120.368 862.324 120.128 862.324 119.858L862.459 116.617C862.459 116.317 862.414 116.122 862.324 116.032C862.234 115.942 862.129 115.897 862.009 115.897C861.949 115.897 861.874 115.912 861.784 115.942C861.694 115.972 861.589 116.017 861.469 116.077C860.598 116.497 859.953 116.932 859.533 117.382C859.113 117.802 858.903 118.493 858.903 119.453C858.903 120.323 859.083 120.924 859.443 121.254C859.803 121.554 860.178 121.704 860.568 121.704ZM881.298 124.63C879.708 124.63 878.267 124.21 876.977 123.37C875.716 122.499 874.711 121.344 873.96 119.903C873.24 118.433 872.88 116.782 872.88 114.951C872.88 113 873.33 111.245 874.23 109.684C875.131 108.123 876.331 106.878 877.832 105.947C879.363 105.017 881.058 104.552 882.919 104.552C885.38 104.552 887.421 105.362 889.042 106.983C889.312 107.283 889.447 107.553 889.447 107.793C889.447 107.973 889.312 108.243 889.042 108.604C888.772 108.934 888.471 109.234 888.141 109.504C887.811 109.774 887.526 109.909 887.286 109.909C887.016 109.909 886.746 109.834 886.476 109.684C886.235 109.504 885.995 109.309 885.755 109.099C884.975 108.438 884.18 107.913 883.369 107.523C882.589 107.103 881.914 106.893 881.343 106.893C880.203 106.893 879.333 107.373 878.732 108.333C878.162 109.264 877.877 110.794 877.877 112.925C877.877 114.396 878.102 115.671 878.552 116.752C879.032 117.802 879.708 118.613 880.578 119.183C881.448 119.753 882.499 120.038 883.729 120.038C884.63 120.038 885.41 119.903 886.07 119.633C886.731 119.333 887.421 118.883 888.141 118.283C888.291 118.193 888.411 118.103 888.501 118.012C888.621 117.922 888.757 117.877 888.907 117.877C889.267 117.877 889.447 118.118 889.447 118.598C889.447 118.718 889.417 118.898 889.357 119.138C889.327 119.348 889.237 119.588 889.087 119.858C888.817 120.459 888.291 121.134 887.511 121.884C886.761 122.634 885.86 123.28 884.81 123.82C883.759 124.36 882.589 124.63 881.298 124.63ZM900.167 124.63C898.186 124.63 896.701 124.135 895.71 123.145C894.72 122.124 894.225 120.699 894.225 118.868V108.513C894.225 108.243 894.12 108.048 893.91 107.928C893.73 107.808 893.369 107.733 892.829 107.703H892.244C892.034 107.703 891.854 107.538 891.704 107.208C891.584 106.848 891.524 106.533 891.524 106.263C891.524 106.203 891.539 106.127 891.569 106.037C891.629 105.917 891.704 105.842 891.794 105.812C892.514 105.542 893.279 105.137 894.09 104.597C894.93 104.027 895.725 103.426 896.476 102.796C897.256 102.166 897.886 101.641 898.367 101.22C898.577 101.07 898.757 100.935 898.907 100.815C899.057 100.695 899.252 100.635 899.492 100.635C899.762 100.635 899.957 100.695 900.077 100.815C900.197 100.905 900.227 101.145 900.167 101.536L899.897 104.192C899.867 104.552 899.942 104.807 900.122 104.957C900.332 105.077 900.617 105.137 900.978 105.137H906.335C906.425 105.137 906.515 105.242 906.605 105.452C906.695 105.662 906.74 105.857 906.74 106.037C906.74 106.458 906.68 106.863 906.56 107.253C906.44 107.643 906.305 107.838 906.155 107.838H901.968C901.278 107.838 900.798 107.928 900.527 108.108C900.287 108.258 900.167 108.543 900.167 108.964V117.472C900.167 118.853 900.422 119.888 900.933 120.579C901.473 121.239 902.178 121.569 903.049 121.569C903.919 121.569 904.549 121.479 904.939 121.299C905.359 121.119 905.735 120.969 906.065 120.849C906.185 120.789 906.275 120.759 906.335 120.759C906.485 120.759 906.605 120.849 906.695 121.029C906.785 121.209 906.83 121.419 906.83 121.659C906.83 121.839 906.515 122.169 905.885 122.649C905.254 123.13 904.429 123.58 903.409 124C902.418 124.42 901.338 124.63 900.167 124.63ZM936.106 124.63C933.765 124.63 931.574 124.285 929.533 123.595C927.493 122.875 925.692 121.869 924.131 120.579C922.57 119.258 921.355 117.682 920.485 115.852C919.614 114.021 919.179 111.995 919.179 109.774C919.179 107.703 919.584 105.737 920.395 103.877C921.235 101.986 922.45 100.32 924.041 98.8794C925.632 97.4088 927.538 96.2533 929.758 95.413C932.009 94.5426 934.545 94.1074 937.367 94.1074C938.327 94.1074 939.287 94.1824 940.248 94.3325C941.238 94.4526 942.184 94.6326 943.084 94.8727C944.014 95.1128 944.855 95.3679 945.605 95.6381C945.875 95.7581 946.1 95.9232 946.28 96.1333C946.491 96.3133 946.611 96.5835 946.641 96.9436C946.761 97.934 946.851 98.8944 946.911 99.8248C946.971 100.755 947.001 101.596 947.001 102.346C947.001 102.676 946.881 102.901 946.641 103.021C946.4 103.141 946.13 103.156 945.83 103.066C945.56 102.946 945.365 102.706 945.245 102.346C945.035 101.656 944.78 100.965 944.48 100.275C944.21 99.5847 943.789 98.9845 943.219 98.4743C942.619 97.874 941.779 97.3788 940.698 96.9886C939.648 96.5985 938.372 96.4034 936.871 96.4034C935.341 96.4034 933.945 96.7335 932.685 97.3938C931.454 98.0541 930.389 98.9545 929.488 100.095C928.618 101.235 927.943 102.526 927.463 103.967C926.982 105.407 926.742 106.908 926.742 108.468C926.742 110.449 926.952 112.295 927.372 114.006C927.793 115.686 928.438 117.142 929.308 118.373C930.179 119.603 931.244 120.564 932.505 121.254C933.765 121.944 935.251 122.289 936.962 122.289C939.182 122.289 940.983 121.824 942.364 120.894C943.744 119.933 944.9 118.478 945.83 116.527C946.07 115.987 946.4 115.732 946.821 115.762C947.271 115.792 947.496 116.047 947.496 116.527C947.496 116.917 947.451 117.397 947.361 117.967C947.301 118.508 947.196 119.093 947.046 119.723C946.896 120.353 946.716 120.999 946.506 121.659C946.385 122.019 946.22 122.304 946.01 122.514C945.83 122.694 945.59 122.86 945.29 123.01C944.15 123.49 942.799 123.88 941.238 124.18C939.678 124.48 937.967 124.63 936.106 124.63ZM955.071 124.63C954.261 124.63 953.51 124.435 952.82 124.045C952.13 123.655 951.575 123.145 951.154 122.514C950.764 121.884 950.569 121.194 950.569 120.444C950.569 119.423 950.884 118.568 951.515 117.877C952.175 117.187 953.135 116.572 954.396 116.032L958.402 114.276C959.003 114.006 959.363 113.766 959.483 113.556C959.633 113.346 959.708 112.955 959.708 112.385L959.753 109.819C959.783 108.979 959.633 108.318 959.303 107.838C958.973 107.328 958.477 107.073 957.817 107.073C957.427 107.073 957.037 107.163 956.647 107.343C956.257 107.493 955.956 107.673 955.746 107.883C955.656 108.003 955.581 108.153 955.521 108.333C955.491 108.483 955.476 108.649 955.476 108.829C955.476 109.009 955.491 109.234 955.521 109.504C955.551 109.744 955.566 109.954 955.566 110.134C955.566 110.314 955.326 110.554 954.846 110.854C954.366 111.125 953.811 111.38 953.18 111.62C952.55 111.83 952.01 111.935 951.56 111.935C951.349 111.935 951.154 111.845 950.974 111.665C950.824 111.485 950.749 111.26 950.749 110.99C950.749 110.509 950.914 110.044 951.244 109.594C951.575 109.114 952.115 108.574 952.865 107.973C953.645 107.313 954.501 106.728 955.431 106.218C956.362 105.707 957.277 105.302 958.177 105.002C959.108 104.702 959.888 104.552 960.518 104.552C962.139 104.552 963.43 105.077 964.39 106.127C965.35 107.148 965.801 108.513 965.741 110.224L965.515 119.318C965.485 120.008 965.605 120.594 965.876 121.074C966.146 121.554 966.476 121.794 966.866 121.794C967.436 121.794 967.931 121.599 968.352 121.209C968.442 121.119 968.532 121.074 968.622 121.074C968.772 121.074 968.892 121.119 968.982 121.209C969.102 121.299 969.162 121.419 969.162 121.569C969.162 121.929 968.892 122.394 968.352 122.965C967.781 123.505 967.181 123.91 966.551 124.18C965.921 124.48 965.26 124.63 964.57 124.63C962.889 124.63 961.494 123.775 960.383 122.064H960.293C959.303 122.965 958.402 123.61 957.592 124C956.812 124.42 955.971 124.63 955.071 124.63ZM957.772 121.704C958.102 121.704 958.372 121.659 958.583 121.569C958.793 121.449 959.003 121.269 959.213 121.029C959.303 120.909 959.378 120.759 959.438 120.579C959.498 120.368 959.528 120.128 959.528 119.858L959.663 116.617C959.663 116.317 959.618 116.122 959.528 116.032C959.438 115.942 959.333 115.897 959.213 115.897C959.153 115.897 959.078 115.912 958.988 115.942C958.898 115.972 958.793 116.017 958.673 116.077C957.802 116.497 957.157 116.932 956.737 117.382C956.317 117.802 956.106 118.493 956.106 119.453C956.106 120.323 956.287 120.924 956.647 121.254C957.007 121.554 957.382 121.704 957.772 121.704ZM970.894 124.135C970.654 124.135 970.444 124.09 970.264 124C970.084 123.88 969.994 123.715 969.994 123.505C969.994 123.265 970.084 123.085 970.264 122.965C970.444 122.815 970.699 122.694 971.029 122.604C971.69 122.394 972.125 122.169 972.335 121.929C972.575 121.689 972.695 121.344 972.695 120.894V110.539C972.695 109.909 972.605 109.399 972.425 109.009C972.275 108.589 971.915 108.303 971.344 108.153C971.194 108.093 971.059 108.018 970.939 107.928C970.819 107.808 970.759 107.613 970.759 107.343C970.759 106.923 970.939 106.668 971.299 106.578C972.26 106.338 973.31 106.022 974.451 105.632C975.621 105.242 976.612 104.852 977.422 104.462C977.572 104.342 977.752 104.237 977.962 104.147C978.202 104.027 978.367 103.967 978.457 103.967C978.727 103.967 978.863 104.132 978.863 104.462C978.863 104.612 978.848 104.927 978.818 105.407C978.818 105.857 978.803 106.323 978.773 106.803C978.773 107.283 978.757 107.688 978.727 108.018C978.727 108.288 978.788 108.423 978.908 108.423C979.358 107.793 979.883 107.178 980.483 106.578C981.113 105.977 981.789 105.482 982.509 105.092C983.229 104.702 983.935 104.507 984.625 104.507C985.675 104.507 986.411 104.702 986.831 105.092C987.281 105.482 987.506 105.992 987.506 106.623C987.506 107.073 987.371 107.568 987.101 108.108C986.861 108.649 986.546 109.114 986.156 109.504C985.765 109.894 985.345 110.089 984.895 110.089C984.625 110.089 984.34 110.029 984.04 109.909C983.74 109.759 983.439 109.609 983.139 109.459C982.839 109.339 982.539 109.219 982.239 109.099C981.969 108.949 981.714 108.874 981.474 108.874C980.693 108.874 980.018 109.159 979.448 109.729C978.878 110.299 978.592 111.44 978.592 113.15V120.489C978.592 121.089 978.773 121.539 979.133 121.839C979.523 122.109 980.138 122.364 980.978 122.604C981.309 122.694 981.549 122.815 981.699 122.965C981.879 123.085 981.969 123.265 981.969 123.505C981.969 123.925 981.714 124.135 981.204 124.135C980.303 124.135 979.373 124.09 978.412 124C977.452 123.94 976.582 123.91 975.801 123.91C975.291 123.91 974.766 123.925 974.226 123.955C973.715 123.985 973.175 124.015 972.605 124.045C972.065 124.105 971.494 124.135 970.894 124.135ZM1003.23 124.855C1003.14 124.855 1003.01 124.75 1002.83 124.54C1002.68 124.36 1002.6 124.21 1002.6 124.09C1002.66 123.64 1002.71 123.22 1002.74 122.83C1002.8 122.409 1002.83 122.034 1002.83 121.704V121.434C1002.23 122.364 1001.39 123.13 1000.31 123.73C999.257 124.33 998.116 124.63 996.886 124.63C995.205 124.63 993.704 124.21 992.384 123.37C991.093 122.529 990.073 121.389 989.322 119.948C988.572 118.508 988.197 116.932 988.197 115.221C988.197 113.18 988.647 111.365 989.548 109.774C990.448 108.183 991.708 106.938 993.329 106.037C994.95 105.107 996.826 104.642 998.956 104.642C999.407 104.642 999.872 104.687 1000.35 104.777C1000.86 104.837 1001.33 104.927 1001.75 105.047C1002.17 105.137 1002.36 105.182 1002.33 105.182C1002.45 105.182 1002.51 104.987 1002.51 104.597V99.2396C1002.51 98.1591 1002.38 97.3788 1002.11 96.8986C1001.84 96.4184 1001.39 96.1183 1000.76 95.9982C1000.4 95.9082 1000.22 95.6831 1000.22 95.3229C1000.22 94.9328 1000.38 94.7077 1000.71 94.6476C1001.82 94.4075 1002.96 94.1074 1004.13 93.7473C1005.33 93.3571 1006.31 92.9969 1007.06 92.6668C1007.45 92.4867 1007.72 92.3817 1007.87 92.3517C1008.02 92.2917 1008.11 92.2616 1008.14 92.2616C1008.47 92.2616 1008.64 92.4417 1008.64 92.8019C1008.64 92.7118 1008.62 92.8319 1008.59 93.162C1008.56 93.4621 1008.53 93.8673 1008.5 94.3775C1008.47 94.8877 1008.44 95.398 1008.41 95.9082L1008.19 118.598C1008.19 119.618 1008.26 120.353 1008.41 120.804C1008.56 121.254 1008.83 121.479 1009.22 121.479C1009.37 121.479 1009.52 121.464 1009.67 121.434C1009.85 121.404 1010.29 121.374 1010.98 121.344C1011.4 121.314 1011.61 121.464 1011.61 121.794C1011.61 122.034 1011.52 122.289 1011.34 122.559C1011.16 122.83 1010.99 122.965 1010.84 122.965C1009.76 123.085 1008.62 123.28 1007.42 123.55C1006.25 123.82 1005.11 124.165 1004 124.585C1003.82 124.675 1003.67 124.735 1003.55 124.765C1003.43 124.825 1003.32 124.855 1003.23 124.855ZM999.182 121.569C999.632 121.569 1000.19 121.449 1000.85 121.209C1001.54 120.969 1002.09 120.624 1002.51 120.173L1002.47 110.224C1002.47 109.684 1002.26 109.159 1001.84 108.649C1001.45 108.108 1000.94 107.658 1000.31 107.298C999.707 106.938 999.107 106.758 998.506 106.758C997.786 106.758 997.111 107.058 996.48 107.658C995.88 108.228 995.385 109.054 994.995 110.134C994.635 111.185 994.455 112.475 994.455 114.006C994.455 115.236 994.575 116.317 994.815 117.247C995.085 118.178 995.445 118.973 995.895 119.633C996.345 120.263 996.856 120.744 997.426 121.074C997.996 121.404 998.581 121.569 999.182 121.569Z" fill="white"/>
</g>
<g clip-path="url(#clip2_87_157)">
<path d="M971.412 494.269C983.784 494.269 993.825 504.309 993.825 516.681C993.825 529.053 983.784 539.094 971.412 539.094C959.041 539.094 949 529.053 949 516.681C949 504.309 959.041 494.269 971.412 494.269Z" fill="#FBCC5C"/>
<path d="M984.233 513.992C984.233 508.433 979.705 503.906 974.147 503.906C969.933 503.906 966.347 506.461 964.823 510.137C961.237 511.661 958.682 515.247 958.682 519.415C958.682 524.974 963.21 529.501 968.768 529.501C972.981 529.501 976.567 526.946 978.091 523.27C981.633 521.746 984.233 518.16 984.233 513.992ZM968.768 526.991C964.599 526.991 961.192 523.584 961.192 519.415C961.192 517.04 962.313 514.888 964.061 513.499C964.061 513.678 964.061 513.857 964.061 513.992C964.061 519.55 968.589 524.077 974.147 524.077C974.371 524.077 974.55 524.077 974.774 524.077C973.34 525.87 971.188 526.991 968.768 526.991ZM976.119 521.298C975.492 521.477 974.819 521.567 974.147 521.567C969.978 521.567 966.571 518.16 966.571 513.992C966.571 513.319 966.661 512.692 966.84 512.109C967.468 511.93 968.14 511.84 968.813 511.84C972.981 511.84 976.388 515.247 976.388 519.415C976.343 520.088 976.254 520.715 976.119 521.298ZM978.853 519.909C978.853 519.729 978.853 519.55 978.853 519.415C978.853 513.857 974.326 509.33 968.768 509.33C968.544 509.33 968.364 509.33 968.14 509.33C969.53 507.537 971.681 506.416 974.102 506.416C978.271 506.416 981.677 509.823 981.677 513.992C981.677 516.412 980.557 518.519 978.853 519.909Z" fill="white"/>
</g>
<defs>
<filter id="filter0_ii_87_157" x="19.0699" y="18.0699" width="1043.33" height="596.79" filterUnits="userSpaceOnUse" color-interpolation-filters="sRGB">
<feFlood flood-opacity="0" result="BackgroundImageFix"/>
<feBlend mode="normal" in="SourceGraphic" in2="BackgroundImageFix" result="shape"/>
<feColorMatrix in="SourceAlpha" type="matrix" values="0 0 0 0 0 0 0 0 0 0 0 0 0 0 0 0 0 0 127 0" result="hardAlpha"/>
<feOffset dx="4.39512" dy="5.86016"/>
<feGaussianBlur stdDeviation="2.93008"/>
<feComposite in2="hardAlpha" operator="arithmetic" k2="-1" k3="1"/>
<feColorMatrix type="matrix" values="0 0 0 0 0 0 0 0 0 0 0 0 0 0 0 0 0 0 0.15 0"/>
<feBlend mode="normal" in2="shape" result="effect1_innerShadow_87_157"/>
<feColorMatrix in="SourceAlpha" type="matrix" values="0 0 0 0 0 0 0 0 0 0 0 0 0 0 0 0 0 0 127 0" result="hardAlpha"/>
<feOffset dx="-2.93008" dy="-2.93008"/>
<feGaussianBlur stdDeviation="5.86016"/>
<feComposite in2="hardAlpha" operator="arithmetic" k2="-1" k3="1"/>
<feColorMatrix type="matrix" values="0 0 0 0 1 0 0 0 0 1 0 0 0 0 1 0 0 0 0.18 0"/>
<feBlend mode="normal" in2="effect1_innerShadow_87_157" result="effect2_innerShadow_87_157"/>
</filter>
<filter id="filter1_d_87_157" x="-61" y="-103" width="197" height="200" filterUnits="userSpaceOnUse" color-interpolation-filters="sRGB">
<feFlood flood-opacity="0" result="BackgroundImageFix"/>
<feColorMatrix in="SourceAlpha" type="matrix" values="0 0 0 0 0 0 0 0 0 0 0 0 0 0 0 0 0 0 127 0" result="hardAlpha"/>
<feOffset dy="4"/>
<feGaussianBlur stdDeviation="2"/>
<feComposite in2="hardAlpha" operator="out"/>
<feColorMatrix type="matrix" values="0 0 0 0 0 0 0 0 0 0 0 0 0 0 0 0 0 0 0.015 0"/>
<feBlend mode="normal" in2="BackgroundImageFix" result="effect1_dropShadow_87_157"/>
<feBlend mode="normal" in="SourceGraphic" in2="effect1_dropShadow_87_157" result="shape"/>
</filter>
<filter id="filter2_d_87_157" x="1007" y="513" width="197" height="200" filterUnits="userSpaceOnUse" color-interpolation-filters="sRGB">
<feFlood flood-opacity="0" result="BackgroundImageFix"/>
<feColorMatrix in="SourceAlpha" type="matrix" values="0 0 0 0 0 0 0 0 0 0 0 0 0 0 0 0 0 0 127 0" result="hardAlpha"/>
<feOffset dy="4"/>
<feGaussianBlur stdDeviation="2"/>
<feComposite in2="hardAlpha" operator="out"/>
<feColorMatrix type="matrix" values="0 0 0 0 0 0 0 0 0 0 0 0 0 0 0 0 0 0 0.015 0"/>
<feBlend mode="normal" in2="BackgroundImageFix" result="effect1_dropShadow_87_157"/>
<feBlend mode="normal" in="SourceGraphic" in2="effect1_dropShadow_87_157" result="shape"/>
</filter>
<filter id="filter3_d_87_157" x="965" y="-110" width="200" height="197" filterUnits="userSpaceOnUse" color-interpolation-filters="sRGB">
<feFlood flood-opacity="0" result="BackgroundImageFix"/>
<feColorMatrix in="SourceAlpha" type="matrix" values="0 0 0 0 0 0 0 0 0 0 0 0 0 0 0 0 0 0 127 0" result="hardAlpha"/>
<feOffset dy="4"/>
<feGaussianBlur stdDeviation="2"/>
<feComposite in2="hardAlpha" operator="out"/>
<feColorMatrix type="matrix" values="0 0 0 0 0 0 0 0 0 0 0 0 0 0 0 0 0 0 0.015 0"/>
<feBlend mode="normal" in2="BackgroundImageFix" result="effect1_dropShadow_87_157"/>
<feBlend mode="normal" in="SourceGraphic" in2="effect1_dropShadow_87_157" result="shape"/>
</filter>
<filter id="filter4_d_87_157" x="-124" y="516" width="200" height="197" filterUnits="userSpaceOnUse" color-interpolation-filters="sRGB">
<feFlood flood-opacity="0" result="BackgroundImageFix"/>
<feColorMatrix in="SourceAlpha" type="matrix" values="0 0 0 0 0 0 0 0 0 0 0 0 0 0 0 0 0 0 127 0" result="hardAlpha"/>
<feOffset dy="4"/>
<feGaussianBlur stdDeviation="2"/>
<feComposite in2="hardAlpha" operator="out"/>
<feColorMatrix type="matrix" values="0 0 0 0 0 0 0 0 0 0 0 0 0 0 0 0 0 0 0.015 0"/>
<feBlend mode="normal" in2="BackgroundImageFix" result="effect1_dropShadow_87_157"/>
<feBlend mode="normal" in="SourceGraphic" in2="effect1_dropShadow_87_157" result="shape"/>
</filter>
<linearGradient id="paint0_linear_87_157" x1="544.29" y1="-103.506" x2="767.585" y2="931.843" gradientUnits="userSpaceOnUse">
<stop stop-color="#49D07D"/>
<stop offset="1" stop-color="#538A3F"/>
</linearGradient>
<linearGradient id="paint1_linear_87_157" x1="506.537" y1="226.342" x2="573.463" y2="424.798" gradientUnits="userSpaceOnUse">
<stop stop-color="white"/>
<stop offset="1" stop-color="#CBFF37"/>
</linearGradient>
<clipPath id="clip0_87_157">
<rect width="125.488" height="118.051" fill="white" transform="translate(154 244.932)"/>
</clipPath>
<clipPath id="clip1_87_157">
<rect width="182.19" height="182.19" fill="white" transform="translate(448.905 187.301)"/>
</clipPath>
<clipPath id="clip2_87_157">
<rect width="44.8251" height="44.8251" fill="white" transform="translate(949 494.269)"/>
</clipPath>
</defs>
</svg>
