<svg width="1081" height="632" viewBox="0 0 1081 632" fill="none" xmlns="http://www.w3.org/2000/svg">
<rect x="1" y="1" width="1079.14" height="630.353" rx="22" fill="url(#paint0_linear_86_62)"/>
<mask id="mask0_86_62" style="mask-type:alpha" maskUnits="userSpaceOnUse" x="0" y="0" width="1080" height="631">
<rect width="1079.91" height="630.805" rx="22" fill="#ED713C"/>
</mask>
<g mask="url(#mask0_86_62)">
<g opacity="0.92" filter="url(#filter0_ii_86_62)">
<path d="M22 39C22 29.0589 30.0589 21 40 21H1040C1049.94 21 1058 29.0589 1058 39V591C1058 600.941 1049.94 609 1040 609H40C30.0589 609 22 600.941 22 591V39Z" fill="#D9D9D9" fill-opacity="0.01"/>
</g>
<g opacity="0.4">
<path opacity="0.1" d="M-13.5 114.4C24.7738 114.4 55.8 82.8814 55.8 44.0001C55.8 5.11884 24.7738 -26.3999 -13.5 -26.3999C-51.7738 -26.3999 -82.8 5.11884 -82.8 44.0001C-82.8 82.8814 -51.7738 114.4 -13.5 114.4ZM-13.5 140C-65.6892 140 -108 97.0177 -108 44.0001C-108 -9.01748 -65.6892 -51.9999 -13.5 -51.9999C38.6892 -51.9999 81 -9.01748 81 44.0001C81 97.0177 38.6892 140 -13.5 140Z" fill="white"/>
<g opacity="0.1" filter="url(#filter1_d_86_62)">
<path d="M37.5 63.4001C75.7738 63.4001 106.8 31.8814 106.8 -6.99987C106.8 -45.8812 75.7738 -77.3999 37.5 -77.3999C-0.77376 -77.3999 -31.8 -45.8812 -31.8 -6.99987C-31.8 31.8814 -0.77376 63.4001 37.5 63.4001ZM37.5 89.0001C-14.6892 89.0001 -57 46.0177 -57 -6.99987C-57 -60.0175 -14.6892 -103 37.5 -103C89.6892 -103 132 -60.0175 132 -6.99987C132 46.0177 89.6892 89.0001 37.5 89.0001Z" fill="white"/>
</g>
<path opacity="0.1" d="M1054.5 730.4C1092.77 730.4 1123.8 698.882 1123.8 660C1123.8 621.119 1092.77 589.6 1054.5 589.6C1016.23 589.6 985.2 621.119 985.2 660C985.2 698.882 1016.23 730.4 1054.5 730.4ZM1054.5 756C1002.31 756 960 713.018 960 660C960 606.983 1002.31 564 1054.5 564C1106.69 564 1149 606.983 1149 660C1149 713.018 1106.69 756 1054.5 756Z" fill="white"/>
<g opacity="0.1" filter="url(#filter2_d_86_62)">
<path d="M1105.5 679.4C1143.77 679.4 1174.8 647.882 1174.8 609C1174.8 570.119 1143.77 538.6 1105.5 538.6C1067.23 538.6 1036.2 570.119 1036.2 609C1036.2 647.882 1067.23 679.4 1105.5 679.4ZM1105.5 705C1053.31 705 1011 662.018 1011 609C1011 555.983 1053.31 513 1105.5 513C1157.69 513 1200 555.983 1200 609C1200 662.018 1157.69 705 1105.5 705Z" fill="white"/>
</g>
<path opacity="0.1" d="M1186.4 35.5001C1186.4 -2.77365 1154.88 -33.7999 1116 -33.7999C1077.12 -33.7999 1045.6 -2.77364 1045.6 35.5001C1045.6 73.7739 1077.12 104.8 1116 104.8C1154.88 104.8 1186.4 73.7739 1186.4 35.5001ZM1212 35.5001C1212 87.6893 1169.02 130 1116 130C1062.98 130 1020 87.6893 1020 35.5001C1020 -16.6891 1062.98 -58.9999 1116 -58.9999C1169.02 -58.9999 1212 -16.6891 1212 35.5001Z" fill="white"/>
<g opacity="0.1" filter="url(#filter3_d_86_62)">
<path d="M1135.4 -15.4999C1135.4 -53.7736 1103.88 -84.7999 1065 -84.7999C1026.12 -84.7999 994.6 -53.7736 994.6 -15.4999C994.6 22.7739 1026.12 53.8001 1065 53.8001C1103.88 53.8001 1135.4 22.7739 1135.4 -15.4999ZM1161 -15.4999C1161 36.6893 1118.02 79.0001 1065 79.0001C1011.98 79.0001 969 36.6893 969 -15.4999C969 -67.6891 1011.98 -110 1065 -110C1118.02 -110 1161 -67.6891 1161 -15.4999Z" fill="white"/>
</g>
<path opacity="0.1" d="M97.4 661.5C97.4 623.226 65.8813 592.2 27 592.2C-11.8813 592.2 -43.4 623.226 -43.4 661.5C-43.4 699.774 -11.8813 730.8 27 730.8C65.8813 730.8 97.4 699.774 97.4 661.5ZM123 661.5C123 713.689 80.0176 756 27 756C-26.0176 756 -69 713.689 -69 661.5C-69 609.311 -26.0176 567 27 567C80.0176 567 123 609.311 123 661.5Z" fill="white"/>
<g opacity="0.1" filter="url(#filter4_d_86_62)">
<path d="M46.4 610.5C46.4 572.226 14.8813 541.2 -24 541.2C-62.8813 541.2 -94.4 572.226 -94.4 610.5C-94.4 648.774 -62.8813 679.8 -24 679.8C14.8813 679.8 46.4 648.774 46.4 610.5ZM72 610.5C72 662.689 29.0176 705 -24 705C-77.0176 705 -120 662.689 -120 610.5C-120 558.311 -77.0176 516 -24 516C29.0176 516 72 558.311 72 610.5Z" fill="white"/>
</g>
</g>
<g opacity="0.5">
<g clip-path="url(#clip0_86_62)">
<path d="M279.296 299.712C279.296 334.42 251.261 362.662 216.808 362.662C182.355 362.662 154.319 334.42 154.319 299.712C154.319 289.644 156.746 279.608 161.344 270.73C165.751 262.141 172.201 254.582 179.96 248.857C188.613 242.488 200.779 244.418 207.069 253.103C213.391 261.82 211.475 274.075 202.854 280.412C202.503 280.669 202.152 280.959 201.8 281.216C196.787 285.334 193.722 291.252 193.179 297.653V297.782C193.179 297.943 193.147 298.136 193.147 298.297C193.147 298.458 193.115 298.651 193.115 298.811V299.68C193.115 312.836 203.748 323.515 216.776 323.515C220.448 323.515 223.928 322.679 227.026 321.167C234.944 317.307 240.437 309.137 240.437 299.68C240.437 292.507 237.275 285.784 231.751 281.216C231.432 280.927 231.081 280.669 230.73 280.412C230.091 279.93 229.644 279.286 229.389 278.579C228.367 277.002 227.728 275.201 227.537 273.271C227.217 270.119 228.143 267.063 230.123 264.618C232.103 262.174 234.913 260.662 238.042 260.34C241.139 260.018 244.204 260.951 246.631 262.946C257.615 272.017 263.906 285.398 263.906 299.68C263.906 325.831 242.767 347.126 216.808 347.126C190.848 347.126 169.71 325.831 169.71 299.68C169.71 285.398 176 272.017 186.984 262.946C188.581 261.627 190.912 261.884 192.221 263.46C193.53 265.069 193.275 267.417 191.71 268.736C182.45 276.359 177.15 287.65 177.15 299.68C177.15 321.714 194.935 339.631 216.808 339.631C238.68 339.631 256.466 321.714 256.466 299.68C256.466 287.65 251.165 276.359 241.905 268.736C241.011 267.996 239.894 267.674 238.776 267.771C237.627 267.899 236.605 268.446 235.87 269.347C235.136 270.247 234.817 271.373 234.913 272.499C235.04 273.657 235.583 274.686 236.477 275.426L236.509 275.458C236.605 275.523 236.669 275.619 236.765 275.684L237.243 276.07C237.275 276.102 237.307 276.134 237.371 276.166C243.598 281.699 247.334 289.419 247.844 297.718V297.814C247.844 298.039 247.876 298.232 247.876 298.458V299.648C247.876 311.807 240.979 322.357 230.921 327.536C226.674 329.723 221.853 330.978 216.776 330.978C199.629 330.978 185.675 316.921 185.675 299.648C185.675 290.577 189.539 282.053 196.276 276.102L196.308 276.07L196.883 275.587C196.947 275.555 196.979 275.491 197.043 275.458L197.107 275.394L197.138 275.362C197.585 275.008 198.001 274.654 198.48 274.333C203.812 270.408 204.993 262.849 201.098 257.477C197.202 252.105 189.699 250.915 184.366 254.84C177.501 259.954 171.817 266.613 167.922 274.172C163.835 282.117 161.759 290.705 161.759 299.712C161.759 330.302 186.474 355.167 216.808 355.167C247.174 355.167 271.856 330.27 271.856 299.712C271.856 290.705 269.781 282.117 265.694 274.172C261.798 266.613 256.115 259.922 249.249 254.904C243.917 250.98 236.413 252.17 232.518 257.542C231.304 259.214 228.973 259.568 227.313 258.346C225.653 257.123 225.301 254.775 226.515 253.103C232.837 244.385 245.003 242.488 253.624 248.857C261.383 254.582 267.833 262.141 272.271 270.73C276.87 279.608 279.296 289.644 279.296 299.712Z" fill="white"/>
</g>
<g clip-path="url(#clip1_86_62)">
<path d="M586.041 304.87C586.041 315.118 582.625 324.512 576.647 332.483L574.37 330.775L567.538 325.651C572.092 319.673 574.654 312.272 574.654 304.87C574.654 297.469 572.377 290.352 567.822 284.658L571.808 280.958L576.362 276.972C582.625 284.658 586.041 294.337 586.041 304.87V304.87Z" fill="white"/>
<path d="M574.37 330.775L567.538 325.651L554.443 315.972C557.005 312.556 558.713 308.571 558.713 304.016C558.713 300.885 557.859 297.753 556.436 295.191L568.107 284.374L572.092 280.673L576.647 276.687L588.034 266.155L591.735 262.454L587.465 258.184C575.793 246.512 560.421 239.68 543.91 239.111V230.571C543.91 228.009 541.917 226.016 539.355 226.016C536.793 226.016 534.801 228.009 534.801 230.571V239.396C531.1 239.68 527.399 240.534 523.698 241.388V230.571C523.698 228.009 521.706 226.301 519.144 226.301C516.582 226.301 514.589 228.293 514.589 230.571V244.804C491.815 255.052 475.874 277.826 475.874 304.301C475.874 339.315 503.771 368.067 538.501 369.49H590.027V341.877L576.647 332.483L574.37 330.775V330.775ZM546.757 304.301C546.757 308.571 543.341 311.987 539.071 311.987C534.801 311.987 531.384 308.571 531.384 304.301C531.384 300.031 534.801 296.615 539.071 296.615C543.341 296.615 546.757 300.031 546.757 304.301ZM577.786 358.104H541.063V357.819C511.457 357.819 487.26 333.906 487.26 304.301C487.26 284.374 498.078 267.009 514.304 257.899V276.972C514.304 279.25 516.297 281.242 518.859 281.242C521.421 281.242 523.414 279.25 523.414 276.972V253.629C526.83 252.49 530.53 251.636 534.516 251.067C536.509 250.782 538.786 250.782 541.063 250.782H543.625C555.012 251.352 565.545 255.337 574.37 262.454L547.895 286.936C545.333 285.512 542.202 284.943 539.071 284.943C528.538 284.943 519.713 293.483 519.713 304.301C519.713 314.833 528.253 323.658 539.071 323.658C540.779 323.658 542.202 323.374 543.91 323.089L549.888 327.359L578.071 347.855V358.104H577.786Z" fill="white"/>
<path d="M574.986 210.295L577.804 207.477L580.622 210.295L577.804 213.113L574.986 210.295Z" fill="white"/>
<path d="M598.852 194.702C600.895 194.702 602.552 193.045 602.552 191.002C602.552 188.958 600.895 187.301 598.852 187.301C596.808 187.301 595.151 188.958 595.151 191.002C595.151 193.045 596.808 194.702 598.852 194.702Z" fill="white"/>
<path d="M593.277 232.488L597.906 227.858L602.536 232.487L597.906 237.117L593.277 232.488Z" fill="white"/>
</g>
<path d="M862.067 223.59C837.944 226.996 823.24 239.812 827.025 254.079C827.952 257.485 831.875 263.784 833.021 263.784C833.522 263.784 835.754 261.899 838.017 259.655L842.23 255.6L840.017 253.863C836.236 250.82 835.949 249.589 838.662 247.055C846.441 239.744 862.928 235.686 881.627 236.481C895.83 237.06 905.538 239.666 913.315 244.81C918.525 248.284 918.954 249.351 916.385 252.416L914.244 254.807L923.381 263.064L925.164 260.021C927.732 255.48 928.448 253.213 928.448 249.446C928.448 239.669 919.241 230.758 904.536 226.126C893.617 222.72 875.843 221.637 862.072 223.592L862.067 223.59ZM866.394 246.835C852.548 249.878 837.917 261.465 831.352 274.644C827.284 282.755 826 288.623 826 298.543C826 306.8 826.214 308.176 828.214 313.825C830.712 320.851 836.421 330.12 842.417 336.759C854.714 350.374 884.546 371.887 905.08 381.878C912.716 385.572 916.499 386.224 917.713 384.051C918.926 381.735 918.141 380.286 913.074 374.923C909.362 371.063 908.223 369.273 907.289 366.015C904.557 356.601 907.647 346.605 916.71 335.599C922.495 328.573 926.703 321.066 929.272 313.346C931.627 306.175 931.627 292.778 929.272 284.376C924.062 265.984 908.146 250.557 890.233 246.717C884.023 245.414 872.461 245.414 866.394 246.79V246.835ZM890.16 251.905C910.143 257.119 924.774 275.226 926.059 296.373C926.771 308.634 922.206 321.069 912.782 332.363C904.361 342.502 900.792 351.7 901.435 361.912C901.792 366.982 904.076 372.993 906.93 376.324C909.498 379.294 892.515 369.516 877.954 359.593C855.258 344.168 840.342 329.393 834.49 316.284C823.172 291.159 838.372 260.164 865.991 252.103C871.63 250.436 884.191 250.293 890.185 251.885L890.16 251.905ZM896.946 284.785C893.448 286.67 889.739 291.086 890.023 292.969C890.381 295.721 893.307 295.43 895.662 292.515C897.946 289.69 901.872 288.025 904.441 288.654C905.367 288.872 907.367 290.392 908.865 291.986C911.935 295.171 914.504 295.75 915.242 293.434C915.811 291.481 912.673 287.349 908.82 285.105C905.181 282.932 900.612 282.789 896.973 284.742L896.946 284.785ZM849.128 286.089C845.416 288.48 843.275 291.447 843.633 293.695C843.99 296.447 846.202 296.012 849.914 292.465C854.696 287.923 857.194 287.923 861.974 292.392C865.686 295.941 867.326 296.375 868.396 294.277C868.965 293.191 868.681 292.324 866.968 290.149C861.972 283.775 855.195 282.256 849.126 286.093L849.128 286.089ZM866.829 306.584C864.903 307.719 865.401 309.842 868.184 312.715C871.327 315.826 875.749 318.001 879.033 318.074C882.221 318.074 886.548 315.683 888.812 312.715C892.592 307.644 888.88 305.108 884.243 309.604C882.816 310.98 880.96 312.356 880.103 312.574C878.104 313.226 873.966 311.439 871.896 309.025C869.683 306.418 868.328 305.766 866.829 306.563V306.584Z" fill="white"/>
</g>
<path d="M120.04 532.557C128.561 532.557 135.469 525.534 135.469 516.871C135.469 508.208 128.561 501.185 120.04 501.185C111.518 501.185 104.611 508.208 104.611 516.871C104.611 525.534 111.518 532.557 120.04 532.557ZM120.04 538.261C108.42 538.261 99 528.684 99 516.871C99 505.058 108.42 495.481 120.04 495.481C131.659 495.481 141.079 505.058 141.079 516.871C141.079 528.684 131.659 538.261 120.04 538.261Z" fill="#FBCC5C"/>
<path d="M131.261 526.129C139.782 526.129 146.69 519.106 146.69 510.442C146.69 501.779 139.782 494.756 131.261 494.756C122.739 494.756 115.832 501.779 115.832 510.442C115.832 519.106 122.739 526.129 131.261 526.129ZM131.261 531.833C119.641 531.833 110.221 522.256 110.221 510.442C110.221 498.629 119.641 489.052 131.261 489.052C142.88 489.052 152.3 498.629 152.3 510.442C152.3 522.256 142.88 531.833 131.261 531.833Z" fill="#35D07F"/>
<path d="M790.188 536.435C789.929 536.435 789.726 536.361 789.579 536.213C789.431 536.066 789.357 535.918 789.357 535.77C789.357 535.438 789.634 535.199 790.188 535.051C791.59 534.682 792.734 534.35 793.619 534.055C794.542 533.722 795.206 533.28 795.612 532.726C796.055 532.136 796.276 531.305 796.276 530.235V509.09C796.276 508.389 796.055 507.854 795.612 507.485C795.169 507.116 794.597 506.858 793.896 506.71C793.195 506.562 792.439 506.47 791.627 506.433C791.258 506.396 790.926 506.304 790.63 506.156C790.335 506.009 790.188 505.787 790.188 505.492C790.188 505.234 790.317 505.012 790.575 504.828C790.87 504.643 791.202 504.533 791.571 504.496C793.232 504.237 794.708 503.924 796 503.555C797.328 503.149 798.62 502.319 799.874 501.064C799.911 501.027 799.948 501.009 799.985 501.009C800.059 501.009 800.114 501.009 800.151 501.009C800.336 501.009 800.502 501.064 800.649 501.175C800.797 501.248 800.852 501.359 800.815 501.507C800.742 502.06 800.686 502.669 800.649 503.333C800.612 503.961 800.594 504.662 800.594 505.437V530.899C800.594 531.822 800.76 532.523 801.092 533.003C801.461 533.483 802.07 533.87 802.919 534.165C803.768 534.424 804.948 534.737 806.461 535.106C806.683 535.143 806.886 535.235 807.07 535.383C807.292 535.494 807.402 535.641 807.402 535.826C807.402 536.232 807.144 536.435 806.627 536.435C805.594 536.435 804.635 536.398 803.749 536.324C802.9 536.287 802.052 536.25 801.203 536.213C800.391 536.176 799.487 536.158 798.491 536.158C797.494 536.158 796.553 536.176 795.668 536.213C794.782 536.25 793.896 536.287 793.011 536.324C792.125 536.398 791.184 536.435 790.188 536.435ZM822.485 536.435C822.3 536.435 822.079 536.379 821.82 536.269C821.599 536.158 821.488 535.973 821.488 535.715C821.488 535.531 821.599 535.383 821.82 535.272C822.042 535.162 822.263 535.088 822.485 535.051C824.219 534.829 825.363 534.46 825.916 533.944C826.47 533.427 826.747 532.726 826.747 531.84V526.693C826.747 526.508 826.618 526.379 826.359 526.305C826.101 526.231 825.953 526.194 825.916 526.194C824.403 526.194 822.983 526.231 821.654 526.305C820.363 526.342 818.997 526.397 817.558 526.471C816.119 526.508 814.421 526.545 812.466 526.582C812.318 526.582 812.189 526.526 812.078 526.416C811.967 526.268 811.912 526.139 811.912 526.028C811.912 525.954 811.93 525.899 811.967 525.862C812.447 525.272 812.798 524.866 813.019 524.644C813.241 524.386 813.425 524.183 813.573 524.036C813.72 523.851 813.905 523.593 814.126 523.261L828.739 502.282C828.961 501.95 829.219 501.617 829.514 501.285C829.847 500.916 830.142 500.732 830.4 500.732H831.563C831.747 500.732 831.765 500.861 831.618 501.119C831.507 501.378 831.452 501.507 831.452 501.507L816.506 522.984C816.469 523.058 816.433 523.168 816.396 523.316C816.359 523.427 816.396 523.482 816.506 523.482H826.083C826.23 523.482 826.378 523.445 826.525 523.371C826.673 523.261 826.747 523.15 826.747 523.039V514.459C826.747 514.053 826.765 513.777 826.802 513.629C826.876 513.481 827.024 513.352 827.245 513.242C827.798 512.946 828.389 512.762 829.016 512.688C829.644 512.577 830.086 512.522 830.345 512.522C830.751 512.522 830.991 512.817 831.064 513.408C831.138 513.998 831.175 514.884 831.175 516.065V523.205C831.175 523.427 831.267 523.537 831.452 523.537C831.858 523.574 832.245 523.593 832.614 523.593C832.983 523.593 833.334 523.593 833.666 523.593C834.183 523.593 834.699 523.593 835.216 523.593C835.769 523.556 836.341 523.519 836.932 523.482C837.338 523.482 837.541 523.63 837.541 523.925C837.541 524.22 837.448 524.534 837.264 524.866C837.116 525.198 836.95 525.475 836.766 525.696C836.581 525.918 836.452 526.028 836.378 526.028C835.972 526.028 835.53 526.028 835.05 526.028C834.57 525.991 834.109 525.973 833.666 525.973C833.334 525.973 833.02 525.991 832.725 526.028C832.43 526.028 832.171 526.047 831.95 526.084C831.802 526.121 831.636 526.176 831.452 526.25C831.304 526.324 831.23 526.379 831.23 526.416V531.619C831.23 532.689 831.47 533.427 831.95 533.833C832.467 534.239 833.463 534.645 834.939 535.051C835.16 535.088 835.382 535.18 835.603 535.328C835.825 535.475 835.935 535.641 835.935 535.826C835.935 535.973 835.843 536.121 835.659 536.269C835.511 536.379 835.327 536.435 835.105 536.435C834.072 536.435 833.242 536.398 832.614 536.324C832.024 536.287 831.47 536.25 830.954 536.213C830.437 536.176 829.736 536.158 828.85 536.158C827.928 536.158 827.171 536.176 826.581 536.213C826.027 536.25 825.455 536.287 824.865 536.324C824.274 536.398 823.481 536.435 822.485 536.435ZM843.822 537.044C843.01 537.044 842.29 536.748 841.663 536.158C841.072 535.531 840.777 534.811 840.777 533.999C840.777 533.15 841.072 532.431 841.663 531.84C842.29 531.25 843.01 530.955 843.822 530.955C844.67 530.955 845.39 531.25 845.98 531.84C846.571 532.431 846.866 533.15 846.866 533.999C846.866 534.811 846.571 535.531 845.98 536.158C845.39 536.748 844.67 537.044 843.822 537.044ZM856.247 538.372C855.841 538.372 855.398 538.317 854.918 538.206C854.438 538.132 854.199 537.966 854.199 537.708C854.199 537.413 854.438 537.154 854.918 536.933C855.435 536.748 855.859 536.656 856.191 536.656C859.107 536.656 861.505 536.14 863.387 535.106C865.306 534.036 866.727 532.708 867.65 531.121C868.609 529.534 869.089 527.947 869.089 526.36C869.089 524.921 868.664 523.648 867.816 522.541C866.967 521.434 865.565 520.419 863.609 519.497C861.69 518.574 859.088 517.688 855.804 516.84C855.324 516.434 854.974 516.028 854.752 515.622C854.568 515.216 854.475 514.773 854.475 514.293C854.475 513.777 854.568 513.149 854.752 512.411C854.974 511.673 855.232 510.898 855.527 510.086C855.822 509.238 856.118 508.407 856.413 507.596C856.708 506.784 856.948 506.083 857.132 505.492C857.317 504.939 857.594 504.514 857.963 504.219C858.332 503.887 858.811 503.647 859.402 503.499C860.251 503.278 861.118 503.075 862.003 502.891C862.889 502.706 863.812 502.54 864.771 502.392C865.731 502.208 866.708 502.06 867.705 501.95C868.738 501.802 869.79 501.673 870.86 501.562C871.155 501.525 871.358 501.617 871.469 501.839C871.617 502.023 871.617 502.245 871.469 502.503C871.321 502.798 871.155 503.112 870.971 503.444C870.823 503.739 870.675 504.035 870.528 504.33C870.27 504.883 869.974 505.308 869.642 505.603C869.347 505.861 868.96 506.027 868.48 506.101C867.779 506.175 866.967 506.267 866.044 506.378C865.122 506.452 864.199 506.544 863.277 506.655C862.354 506.728 861.505 506.802 860.73 506.876C859.955 506.95 859.365 507.024 858.959 507.097C858.701 507.134 858.387 507.466 858.018 508.094C857.649 508.684 857.317 509.33 857.022 510.031C856.726 510.695 856.56 511.175 856.523 511.47C856.487 511.729 856.505 511.95 856.579 512.135C856.69 512.319 856.911 512.448 857.243 512.522C859.31 513.112 861.192 513.721 862.889 514.349C864.587 514.939 866.063 515.566 867.317 516.231C869.384 517.301 870.915 518.574 871.912 520.05C872.945 521.489 873.462 523.334 873.462 525.585C873.462 527.615 872.853 529.516 871.635 531.287C870.417 533.058 868.775 534.534 866.708 535.715C865.712 536.269 864.66 536.73 863.553 537.099C862.446 537.505 861.284 537.819 860.066 538.04C858.848 538.261 857.575 538.372 856.247 538.372ZM888.433 536.435C888.248 536.435 888.027 536.379 887.769 536.269C887.547 536.158 887.437 535.973 887.437 535.715C887.437 535.531 887.547 535.383 887.769 535.272C887.99 535.162 888.212 535.088 888.433 535.051C890.167 534.829 891.311 534.46 891.865 533.944C892.418 533.427 892.695 532.726 892.695 531.84V526.693C892.695 526.508 892.566 526.379 892.308 526.305C892.049 526.231 891.902 526.194 891.865 526.194C890.352 526.194 888.931 526.231 887.603 526.305C886.311 526.342 884.946 526.397 883.507 526.471C882.067 526.508 880.37 526.545 878.414 526.582C878.266 526.582 878.137 526.526 878.027 526.416C877.916 526.268 877.86 526.139 877.86 526.028C877.86 525.954 877.879 525.899 877.916 525.862C878.396 525.272 878.746 524.866 878.968 524.644C879.189 524.386 879.373 524.183 879.521 524.036C879.669 523.851 879.853 523.593 880.075 523.261L894.688 502.282C894.909 501.95 895.168 501.617 895.463 501.285C895.795 500.916 896.09 500.732 896.349 500.732H897.511C897.695 500.732 897.714 500.861 897.566 501.119C897.456 501.378 897.4 501.507 897.4 501.507L882.455 522.984C882.418 523.058 882.381 523.168 882.344 523.316C882.307 523.427 882.344 523.482 882.455 523.482H892.031C892.179 523.482 892.326 523.445 892.474 523.371C892.621 523.261 892.695 523.15 892.695 523.039V514.459C892.695 514.053 892.714 513.777 892.751 513.629C892.824 513.481 892.972 513.352 893.193 513.242C893.747 512.946 894.337 512.762 894.965 512.688C895.592 512.577 896.035 512.522 896.293 512.522C896.699 512.522 896.939 512.817 897.013 513.408C897.087 513.998 897.124 514.884 897.124 516.065V523.205C897.124 523.427 897.216 523.537 897.4 523.537C897.806 523.574 898.194 523.593 898.563 523.593C898.932 523.593 899.282 523.593 899.614 523.593C900.131 523.593 900.648 523.593 901.164 523.593C901.718 523.556 902.29 523.519 902.88 523.482C903.286 523.482 903.489 523.63 903.489 523.925C903.489 524.22 903.397 524.534 903.212 524.866C903.065 525.198 902.899 525.475 902.714 525.696C902.53 525.918 902.401 526.028 902.327 526.028C901.921 526.028 901.478 526.028 900.998 526.028C900.519 525.991 900.057 525.973 899.614 525.973C899.282 525.973 898.969 525.991 898.673 526.028C898.378 526.028 898.12 526.047 897.898 526.084C897.751 526.121 897.585 526.176 897.4 526.25C897.253 526.324 897.179 526.379 897.179 526.416V531.619C897.179 532.689 897.419 533.427 897.898 533.833C898.415 534.239 899.411 534.645 900.888 535.051C901.109 535.088 901.33 535.18 901.552 535.328C901.773 535.475 901.884 535.641 901.884 535.826C901.884 535.973 901.792 536.121 901.607 536.269C901.46 536.379 901.275 536.435 901.054 536.435C900.02 536.435 899.19 536.398 898.563 536.324C897.972 536.287 897.419 536.25 896.902 536.213C896.385 536.176 895.684 536.158 894.799 536.158C893.876 536.158 893.12 536.176 892.529 536.213C891.976 536.25 891.404 536.287 890.813 536.324C890.223 536.398 889.429 536.435 888.433 536.435ZM909.327 536.435C909.069 536.435 908.866 536.361 908.718 536.213C908.571 536.066 908.497 535.918 908.497 535.77C908.497 535.438 908.774 535.199 909.327 535.051C910.729 534.682 911.873 534.35 912.759 534.055C913.682 533.722 914.346 533.28 914.752 532.726C915.195 532.136 915.416 531.305 915.416 530.235V509.09C915.416 508.389 915.195 507.854 914.752 507.485C914.309 507.116 913.737 506.858 913.036 506.71C912.335 506.562 911.578 506.47 910.766 506.433C910.397 506.396 910.065 506.304 909.77 506.156C909.475 506.009 909.327 505.787 909.327 505.492C909.327 505.234 909.456 505.012 909.715 504.828C910.01 504.643 910.342 504.533 910.711 504.496C912.372 504.237 913.848 503.924 915.139 503.555C916.468 503.149 917.759 502.319 919.014 501.064C919.051 501.027 919.088 501.009 919.125 501.009C919.199 501.009 919.254 501.009 919.291 501.009C919.475 501.009 919.641 501.064 919.789 501.175C919.937 501.248 919.992 501.359 919.955 501.507C919.881 502.06 919.826 502.669 919.789 503.333C919.752 503.961 919.734 504.662 919.734 505.437V530.899C919.734 531.822 919.9 532.523 920.232 533.003C920.601 533.483 921.21 533.87 922.059 534.165C922.907 534.424 924.088 534.737 925.601 535.106C925.823 535.143 926.026 535.235 926.21 535.383C926.431 535.494 926.542 535.641 926.542 535.826C926.542 536.232 926.284 536.435 925.767 536.435C924.734 536.435 923.774 536.398 922.889 536.324C922.04 536.287 921.191 536.25 920.343 536.213C919.531 536.176 918.627 536.158 917.63 536.158C916.634 536.158 915.693 536.176 914.807 536.213C913.922 536.25 913.036 536.287 912.15 536.324C911.265 536.398 910.324 536.435 909.327 536.435Z" fill="white"/>
<path d="M127.813 134.062C124.509 134.062 121.324 133.496 118.256 132.363C115.188 131.23 112.451 129.626 110.044 127.549C107.637 125.425 105.725 122.9 104.31 119.974C102.941 117.001 102.257 113.721 102.257 110.134C102.257 106.688 102.988 103.503 104.451 100.577C105.914 97.6505 107.92 95.1019 110.469 92.9309C113.017 90.7599 115.92 89.0844 119.176 87.9046C122.48 86.6775 125.949 86.0639 129.583 86.0639C131.423 86.0639 132.981 86.1347 134.255 86.2763C135.529 86.4179 136.757 86.6303 137.936 86.9134C139.164 87.1494 140.579 87.4798 142.184 87.9046C142.892 88.0933 143.388 88.3765 143.671 88.7541C144.001 89.1316 144.19 89.6508 144.237 90.3115C144.331 91.397 144.449 92.5769 144.591 93.8512C144.733 95.0783 144.827 96.6122 144.874 98.4528C144.921 98.7831 144.756 99.0663 144.379 99.3023C144.048 99.4911 143.671 99.5383 143.246 99.4439C142.868 99.3495 142.609 99.0427 142.467 98.5236C141.995 96.7301 141.452 95.1963 140.839 93.922C140.225 92.6005 139.305 91.515 138.078 90.6655C136.898 89.8632 135.459 89.2732 133.76 88.8957C132.108 88.4709 130.314 88.2585 128.379 88.2585C125.642 88.2585 123.093 88.8249 120.734 89.9576C118.421 91.0431 116.415 92.5533 114.716 94.4883C113.064 96.3762 111.766 98.5236 110.823 100.931C109.879 103.338 109.407 105.839 109.407 108.435C109.407 111.314 109.855 114.145 110.752 116.93C111.696 119.714 113.017 122.239 114.716 124.505C116.462 126.723 118.515 128.516 120.875 129.885C123.282 131.207 125.949 131.867 128.875 131.867C132.273 131.867 135.081 131.089 137.299 129.531C139.517 127.974 141.405 125.803 142.963 123.018C143.293 122.405 143.765 122.098 144.379 122.098C145.039 122.098 145.37 122.475 145.37 123.23C145.37 123.608 145.275 124.222 145.087 125.071C144.898 125.873 144.638 126.747 144.308 127.69C144.025 128.587 143.741 129.39 143.458 130.097C143.128 130.758 142.845 131.183 142.609 131.372C142.42 131.561 141.948 131.773 141.193 132.009C139.447 132.717 137.346 133.236 134.892 133.566C132.485 133.897 130.126 134.062 127.813 134.062ZM164.34 134.062C161.744 134.062 159.478 133.425 157.543 132.15C155.608 130.876 154.098 129.083 153.013 126.77C151.927 124.41 151.384 121.697 151.384 118.629C151.384 115.892 151.998 113.414 153.225 111.196C154.499 108.93 156.175 107.113 158.251 105.745C160.328 104.376 162.593 103.691 165.048 103.691C166.935 103.691 168.611 104.069 170.074 104.824C171.537 105.579 172.67 106.641 173.472 108.01C174.321 109.331 174.746 110.865 174.746 112.611C174.746 114.075 174.038 114.806 172.622 114.806H157.685C157.024 114.806 156.552 114.995 156.269 115.372C156.033 115.703 155.915 116.387 155.915 117.425C155.915 119.691 156.411 121.767 157.402 123.655C158.393 125.496 159.714 126.983 161.366 128.115C163.018 129.201 164.835 129.743 166.817 129.743C168.233 129.743 169.508 129.484 170.64 128.965C171.82 128.398 172.858 127.596 173.755 126.558C173.944 126.322 174.086 126.18 174.18 126.133C174.274 126.039 174.392 125.991 174.534 125.991C174.911 125.991 175.1 126.227 175.1 126.699C175.1 127.596 174.675 128.587 173.826 129.673C173.118 130.569 172.268 131.348 171.277 132.009C170.286 132.67 169.201 133.165 168.021 133.496C166.841 133.873 165.614 134.062 164.34 134.062ZM157.827 112.611H164.269C165.402 112.611 166.369 112.588 167.171 112.541C167.974 112.493 168.752 112.399 169.508 112.258C169.744 112.21 169.885 112.069 169.932 111.833C170.027 111.55 170.074 111.172 170.074 110.7C170.074 109.331 169.46 108.175 168.233 107.231C167.053 106.24 165.637 105.745 163.986 105.745C162.9 105.745 161.815 106.075 160.729 106.736C159.644 107.349 158.747 108.128 158.039 109.072C157.331 110.016 156.977 110.96 156.977 111.904C156.977 112.375 157.26 112.611 157.827 112.611ZM179.606 133.212C179.37 133.212 179.063 133.165 178.686 133.071C178.355 133.024 178.19 132.858 178.19 132.575C178.19 132.198 178.355 131.938 178.686 131.797C179.063 131.608 179.441 131.443 179.818 131.301C180.526 131.065 181.211 130.805 181.872 130.522C182.532 130.192 182.863 129.555 182.863 128.611V92.9309C182.863 91.5622 182.603 90.4295 182.084 89.5328C181.612 88.5889 180.786 87.9989 179.606 87.763C179.229 87.6686 179.04 87.3618 179.04 86.8427C179.04 86.3707 179.205 86.0875 179.535 85.9931C180.762 85.71 181.824 85.4268 182.721 85.1436C183.618 84.8132 184.444 84.4829 185.199 84.1525C186.001 83.8221 186.78 83.5154 187.535 83.2322C187.724 83.1378 187.865 83.0906 187.96 83.0906C188.054 83.0906 188.125 83.1614 188.172 83.303C188.267 83.3974 188.314 83.4918 188.314 83.5862C188.314 84.0109 188.219 84.9312 188.031 86.3471C187.889 87.7158 187.818 90.0048 187.818 93.2141V128.611C187.818 129.555 188.149 130.192 188.809 130.522C189.47 130.805 190.154 131.065 190.862 131.301C191.24 131.443 191.594 131.608 191.924 131.797C192.302 131.938 192.491 132.198 192.491 132.575C192.491 132.858 192.302 133.024 191.924 133.071C191.594 133.165 191.311 133.212 191.075 133.212C190.178 133.212 189.446 133.165 188.88 133.071C188.361 133.024 187.842 132.976 187.323 132.929C186.851 132.882 186.19 132.858 185.34 132.858C184.538 132.858 183.877 132.882 183.358 132.929C182.839 132.976 182.32 133.024 181.801 133.071C181.282 133.165 180.55 133.212 179.606 133.212ZM210.418 133.991C207.775 133.991 205.392 133.378 203.268 132.15C201.144 130.923 199.445 129.248 198.171 127.124C196.944 124.953 196.33 122.499 196.33 119.762C196.33 117.779 196.708 115.844 197.463 113.957C198.265 112.069 199.374 110.346 200.79 108.789C202.206 107.231 203.858 106.004 205.746 105.107C207.633 104.163 209.663 103.691 211.834 103.691C214.571 103.691 217.025 104.352 219.196 105.674C221.414 106.995 223.161 108.741 224.435 110.912C225.756 113.036 226.417 115.372 226.417 117.921C226.417 120.658 225.804 123.254 224.577 125.708C223.397 128.162 221.627 130.168 219.267 131.726C216.907 133.236 213.958 133.991 210.418 133.991ZM211.905 131.867C213.509 131.867 214.949 131.561 216.223 130.947C217.497 130.333 218.488 129.342 219.196 127.974C219.763 126.888 220.14 125.567 220.329 124.009C220.518 122.452 220.612 120.989 220.612 119.62C220.612 117.355 220.187 115.184 219.338 113.107C218.536 110.983 217.379 109.261 215.869 107.939C214.406 106.57 212.66 105.886 210.63 105.886C209.356 105.886 208.2 106.098 207.161 106.523C206.17 106.901 205.25 107.632 204.4 108.718C203.457 109.898 202.843 111.337 202.56 113.036C202.277 114.735 202.135 116.434 202.135 118.133C202.135 120.446 202.56 122.664 203.409 124.788C204.259 126.865 205.415 128.564 206.878 129.885C208.341 131.207 210.017 131.867 211.905 131.867Z" fill="white"/>
<path d="M175.913 535.44C174.989 535.44 174.004 535.279 172.96 534.958C171.915 534.677 171.031 534.335 170.308 533.933C169.585 533.532 169.223 533.17 169.223 532.849C169.223 532.567 169.384 532.206 169.705 531.764C170.027 531.322 170.388 530.94 170.79 530.619C171.232 530.257 171.594 530.076 171.875 530.076C172.317 530.076 172.719 530.197 173.08 530.438C173.442 530.679 173.823 530.96 174.225 531.282C174.748 531.724 175.35 532.145 176.033 532.547C176.716 532.949 177.62 533.15 178.745 533.15C180.232 533.15 181.638 532.768 182.964 532.005C184.29 531.242 185.374 530.197 186.218 528.871C187.102 527.505 187.544 525.998 187.544 524.351C187.544 522.784 187.283 521.278 186.76 519.831C186.238 518.385 185.455 517.2 184.41 516.276C183.406 515.311 182.12 514.829 180.553 514.829C180.111 514.829 179.509 514.89 178.745 515.01C178.022 515.09 177.319 515.331 176.636 515.733C176.435 515.854 176.194 515.854 175.913 515.733C175.672 515.573 175.571 515.392 175.611 515.191C175.772 514.669 176.013 514.247 176.335 513.925C176.656 513.564 177.018 513.303 177.419 513.142C177.781 512.981 178.363 512.68 179.167 512.238C179.971 511.756 180.814 511.173 181.698 510.49C182.622 509.767 183.406 508.963 184.048 508.08C184.691 507.155 185.013 506.151 185.013 505.066C185.013 503.419 184.47 501.973 183.386 500.727C182.341 499.442 180.995 498.799 179.348 498.799C177.781 498.799 176.515 499.08 175.551 499.642C174.627 500.165 173.884 500.787 173.321 501.511C172.759 502.194 172.337 502.816 172.056 503.379C171.774 503.901 171.513 504.162 171.272 504.162C171.112 504.162 170.911 504.042 170.67 503.801C170.429 503.56 170.308 503.298 170.308 503.017C170.308 502.495 170.529 501.812 170.971 500.968C171.413 500.084 172.096 499.2 173.02 498.317C173.984 497.433 175.189 496.689 176.636 496.087C178.122 495.484 179.89 495.183 181.939 495.183C183.265 495.183 184.511 495.484 185.676 496.087C186.881 496.649 187.865 497.453 188.629 498.497C189.392 499.502 189.774 500.687 189.774 502.053C189.774 503.017 189.573 504.022 189.171 505.066C188.769 506.111 188.106 507.155 187.182 508.2C186.258 509.204 185.013 510.169 183.446 511.093C183.325 511.133 183.265 511.213 183.265 511.334C183.265 511.414 183.345 511.454 183.506 511.454C185.234 511.454 186.781 511.896 188.147 512.78C189.513 513.624 190.597 514.769 191.401 516.215C192.245 517.622 192.666 519.188 192.666 520.916C192.666 523.166 192.184 525.195 191.22 527.003C190.256 528.771 188.97 530.297 187.363 531.583C185.756 532.828 183.948 533.773 181.939 534.415C179.971 535.098 177.962 535.44 175.913 535.44Z" fill="white"/>
<path d="M776.348 124.135C776.108 124.135 775.898 124.09 775.718 124C775.538 123.88 775.448 123.715 775.448 123.505C775.448 123.025 775.763 122.709 776.393 122.559C777.533 122.319 778.329 122.019 778.779 121.659C779.229 121.269 779.454 120.594 779.454 119.633V99.1946C779.454 98.2342 779.259 97.5589 778.869 97.1687C778.479 96.7485 777.684 96.4034 776.483 96.1333C775.853 95.9832 775.538 95.6681 775.538 95.1879C775.538 94.9778 775.628 94.8127 775.808 94.6927C775.988 94.5726 776.198 94.5126 776.438 94.5126C777.128 94.5126 777.849 94.5276 778.599 94.5576C779.379 94.5876 780.13 94.6326 780.85 94.6927C781.6 94.7227 782.29 94.7377 782.921 94.7377C783.521 94.7377 784.196 94.7227 784.947 94.6927C785.727 94.6626 786.507 94.6326 787.288 94.6026C788.098 94.5726 788.833 94.5576 789.493 94.5576C789.764 94.5576 789.974 94.6176 790.124 94.7377C790.274 94.8277 790.349 94.9778 790.349 95.1879C790.349 95.488 790.259 95.6981 790.079 95.8181C789.929 95.9382 789.689 96.0432 789.358 96.1333C788.158 96.4634 787.363 96.8386 786.972 97.2587C786.582 97.6489 786.387 98.3092 786.387 99.2396V119.588C786.387 120.459 786.597 121.104 787.017 121.524C787.468 121.914 788.278 122.259 789.448 122.559C789.749 122.649 789.974 122.754 790.124 122.875C790.304 122.995 790.394 123.19 790.394 123.46C790.394 123.67 790.319 123.835 790.169 123.955C790.049 124.075 789.854 124.135 789.584 124.135C788.923 124.135 788.188 124.105 787.378 124.045C786.567 124.015 785.772 123.985 784.992 123.955C784.211 123.925 783.521 123.91 782.921 123.91C782.29 123.91 781.6 123.925 780.85 123.955C780.1 123.985 779.334 124.015 778.554 124.045C777.774 124.105 777.038 124.135 776.348 124.135ZM792.972 124.135C792.761 124.135 792.551 124.09 792.341 124C792.161 123.88 792.071 123.715 792.071 123.505C792.071 123.265 792.176 123.085 792.386 122.965C792.596 122.815 792.836 122.694 793.107 122.604C793.557 122.454 793.947 122.289 794.277 122.109C794.637 121.899 794.817 121.494 794.817 120.894V110.584C794.817 109.924 794.727 109.369 794.547 108.919C794.367 108.438 793.992 108.153 793.422 108.063C793.302 108.033 793.182 107.958 793.062 107.838C792.972 107.718 792.927 107.523 792.927 107.253C792.927 106.833 793.077 106.578 793.377 106.488C794.127 106.308 794.907 106.097 795.718 105.857C796.558 105.587 797.353 105.317 798.104 105.047C798.884 104.747 799.559 104.432 800.13 104.102C800.22 104.072 800.31 104.027 800.4 103.967C800.49 103.907 800.58 103.877 800.67 103.877C800.94 103.877 801.075 104.042 801.075 104.372C801.075 104.612 801.03 105.017 800.94 105.587C800.88 106.157 800.85 106.653 800.85 107.073C800.85 107.373 800.88 107.553 800.94 107.613H801.03C801.96 106.713 802.966 105.977 804.046 105.407C805.127 104.837 806.357 104.552 807.738 104.552C808.668 104.552 809.524 104.882 810.304 105.542C811.084 106.172 811.669 106.998 812.06 108.018H812.24C813.14 106.938 814.145 106.097 815.256 105.497C816.396 104.867 817.672 104.552 819.083 104.552C820.013 104.552 820.853 104.822 821.604 105.362C822.354 105.872 822.954 106.608 823.404 107.568C823.855 108.528 824.08 109.669 824.08 110.99V120.894C824.08 121.494 824.245 121.899 824.575 122.109C824.935 122.289 825.34 122.454 825.79 122.604C826.03 122.694 826.241 122.815 826.421 122.965C826.601 123.085 826.691 123.265 826.691 123.505C826.691 123.715 826.616 123.88 826.466 124C826.316 124.09 826.136 124.135 825.925 124.135C825.325 124.135 824.755 124.105 824.215 124.045C823.704 124.015 823.194 123.985 822.684 123.955C822.204 123.925 821.694 123.91 821.153 123.91C820.643 123.91 820.163 123.925 819.713 123.955C819.263 123.985 818.812 124.015 818.362 124.045C817.912 124.105 817.387 124.135 816.787 124.135C816.576 124.135 816.396 124.09 816.246 124C816.096 123.88 816.021 123.715 816.021 123.505C816.021 123.265 816.096 123.07 816.246 122.92C816.426 122.769 816.652 122.664 816.922 122.604C817.312 122.484 817.612 122.334 817.822 122.154C818.032 121.944 818.137 121.614 818.137 121.164V111.935C818.137 111.185 818.032 110.539 817.822 109.999C817.612 109.459 817.312 109.039 816.922 108.739C816.561 108.408 816.141 108.243 815.661 108.243C815.271 108.243 814.836 108.333 814.356 108.513C813.905 108.664 813.455 108.934 813.005 109.324C812.585 109.684 812.375 110.314 812.375 111.215V120.894C812.375 121.494 812.495 121.899 812.735 122.109C812.975 122.289 813.32 122.454 813.77 122.604C814.01 122.664 814.22 122.769 814.401 122.92C814.581 123.07 814.671 123.265 814.671 123.505C814.671 123.715 814.581 123.88 814.401 124C814.25 124.09 814.085 124.135 813.905 124.135C813.305 124.135 812.765 124.105 812.285 124.045C811.804 124.015 811.339 123.985 810.889 123.955C810.469 123.925 809.989 123.91 809.448 123.91C808.938 123.91 808.458 123.925 808.008 123.955C807.588 123.985 807.138 124.015 806.657 124.045C806.207 124.105 805.682 124.135 805.082 124.135C804.902 124.135 804.736 124.09 804.586 124C804.436 123.88 804.361 123.715 804.361 123.505C804.361 123.265 804.436 123.085 804.586 122.965C804.767 122.815 804.977 122.694 805.217 122.604C805.637 122.454 805.952 122.289 806.162 122.109C806.372 121.929 806.477 121.614 806.477 121.164V111.935C806.477 111.185 806.372 110.554 806.162 110.044C805.952 109.504 805.667 109.084 805.307 108.784C804.947 108.453 804.511 108.288 804.001 108.288C803.641 108.288 803.221 108.363 802.741 108.513C802.29 108.664 801.81 108.919 801.3 109.279C800.91 109.549 800.715 110.134 800.715 111.035V120.894C800.715 121.434 800.805 121.824 800.985 122.064C801.195 122.274 801.525 122.454 801.975 122.604C802.215 122.694 802.411 122.815 802.561 122.965C802.741 123.085 802.831 123.265 802.831 123.505C802.831 123.685 802.756 123.835 802.606 123.955C802.456 124.075 802.29 124.135 802.11 124.135C801.51 124.135 800.97 124.105 800.49 124.045C800.04 124.015 799.589 123.985 799.139 123.955C798.719 123.925 798.239 123.91 797.699 123.91C797.188 123.91 796.678 123.925 796.168 123.955C795.688 123.985 795.177 124.015 794.637 124.045C794.127 124.105 793.572 124.135 792.972 124.135ZM829.061 135.795C828.85 135.795 828.64 135.735 828.43 135.615C828.25 135.525 828.16 135.375 828.16 135.165C828.16 134.925 828.25 134.73 828.43 134.579C828.64 134.459 828.895 134.354 829.196 134.264C829.826 134.054 830.261 133.829 830.501 133.589C830.771 133.379 830.906 133.034 830.906 132.554V110.99C830.906 110.599 830.831 110.224 830.681 109.864C830.531 109.504 830.321 109.189 830.051 108.919C829.781 108.619 829.436 108.438 829.016 108.378C828.835 108.318 828.7 108.243 828.61 108.153C828.52 108.033 828.475 107.838 828.475 107.568C828.475 107.328 828.52 107.148 828.61 107.028C828.7 106.908 828.82 106.833 828.971 106.803C830.021 106.563 831.146 106.248 832.347 105.857C833.547 105.467 834.583 105.062 835.453 104.642C835.573 104.582 835.693 104.522 835.813 104.462C835.963 104.372 836.099 104.327 836.219 104.327C836.399 104.327 836.504 104.387 836.534 104.507C836.594 104.597 836.624 104.717 836.624 104.867C836.624 105.107 836.579 105.512 836.489 106.082C836.429 106.623 836.399 107.088 836.399 107.478C836.399 107.778 836.429 107.958 836.489 108.018C836.789 107.718 837.314 107.313 838.064 106.803C838.845 106.293 839.73 105.842 840.72 105.452C841.711 105.062 842.671 104.867 843.602 104.867C845.222 104.867 846.588 105.302 847.698 106.172C848.839 107.013 849.709 108.108 850.31 109.459C850.91 110.779 851.21 112.175 851.21 113.646C851.21 115.056 850.94 116.422 850.4 117.742C849.889 119.063 849.154 120.263 848.194 121.344C847.233 122.394 846.123 123.235 844.862 123.865C843.602 124.495 842.251 124.81 840.811 124.81C840.48 124.81 840.075 124.765 839.595 124.675C839.145 124.585 838.68 124.465 838.199 124.315C837.749 124.165 837.329 124.015 836.939 123.865C836.909 123.865 836.879 123.91 836.849 124C836.819 124.09 836.789 124.195 836.759 124.315C836.759 124.435 836.759 124.555 836.759 124.675V132.148C836.759 132.539 836.849 132.869 837.029 133.139C837.239 133.409 837.524 133.619 837.884 133.769C838.244 133.949 838.68 134.114 839.19 134.264C839.49 134.354 839.73 134.459 839.91 134.579C840.09 134.73 840.18 134.925 840.18 135.165C840.18 135.345 840.09 135.495 839.91 135.615C839.76 135.735 839.595 135.795 839.415 135.795C838.515 135.795 837.569 135.75 836.579 135.66C835.618 135.6 834.748 135.57 833.968 135.57C833.457 135.57 832.932 135.585 832.392 135.615C831.882 135.645 831.342 135.675 830.771 135.705C830.231 135.765 829.661 135.795 829.061 135.795ZM840.675 122.739C841.006 122.739 841.396 122.619 841.846 122.379C842.326 122.109 842.791 121.689 843.242 121.119C843.722 120.549 844.112 119.783 844.412 118.823C844.742 117.862 844.907 116.677 844.907 115.266C844.907 113.616 844.742 112.31 844.412 111.35C844.082 110.359 843.677 109.624 843.197 109.144C842.716 108.664 842.221 108.348 841.711 108.198C841.231 108.018 840.811 107.928 840.45 107.928C839.91 107.928 839.355 108.048 838.785 108.288C838.214 108.528 837.749 108.814 837.389 109.144C837.029 109.474 836.849 109.774 836.849 110.044C836.849 110.284 836.849 110.749 836.849 111.44C836.849 112.13 836.834 112.895 836.804 113.736C836.804 114.576 836.789 115.341 836.759 116.032C836.759 116.722 836.759 117.202 836.759 117.472C836.759 118.163 836.909 118.928 837.209 119.768C837.539 120.579 837.989 121.284 838.56 121.884C839.16 122.454 839.865 122.739 840.675 122.739ZM857.867 124.63C857.057 124.63 856.306 124.435 855.616 124.045C854.926 123.655 854.371 123.145 853.95 122.514C853.56 121.884 853.365 121.194 853.365 120.444C853.365 119.423 853.68 118.568 854.311 117.877C854.971 117.187 855.931 116.572 857.192 116.032L861.198 114.276C861.799 114.006 862.159 113.766 862.279 113.556C862.429 113.346 862.504 112.955 862.504 112.385L862.549 109.819C862.579 108.979 862.429 108.318 862.099 107.838C861.769 107.328 861.274 107.073 860.613 107.073C860.223 107.073 859.833 107.163 859.443 107.343C859.053 107.493 858.752 107.673 858.542 107.883C858.452 108.003 858.377 108.153 858.317 108.333C858.287 108.483 858.272 108.649 858.272 108.829C858.272 109.009 858.287 109.234 858.317 109.504C858.347 109.744 858.362 109.954 858.362 110.134C858.362 110.314 858.122 110.554 857.642 110.854C857.162 111.125 856.607 111.38 855.976 111.62C855.346 111.83 854.806 111.935 854.356 111.935C854.146 111.935 853.95 111.845 853.77 111.665C853.62 111.485 853.545 111.26 853.545 110.99C853.545 110.509 853.71 110.044 854.04 109.594C854.371 109.114 854.911 108.574 855.661 107.973C856.441 107.313 857.297 106.728 858.227 106.218C859.158 105.707 860.073 105.302 860.973 105.002C861.904 104.702 862.684 104.552 863.314 104.552C864.935 104.552 866.226 105.077 867.186 106.127C868.146 107.148 868.597 108.513 868.537 110.224L868.311 119.318C868.281 120.008 868.402 120.594 868.672 121.074C868.942 121.554 869.272 121.794 869.662 121.794C870.232 121.794 870.727 121.599 871.148 121.209C871.238 121.119 871.328 121.074 871.418 121.074C871.568 121.074 871.688 121.119 871.778 121.209C871.898 121.299 871.958 121.419 871.958 121.569C871.958 121.929 871.688 122.394 871.148 122.965C870.577 123.505 869.977 123.91 869.347 124.18C868.717 124.48 868.056 124.63 867.366 124.63C865.685 124.63 864.29 123.775 863.179 122.064H863.089C862.099 122.965 861.198 123.61 860.388 124C859.608 124.42 858.767 124.63 857.867 124.63ZM860.568 121.704C860.898 121.704 861.168 121.659 861.379 121.569C861.589 121.449 861.799 121.269 862.009 121.029C862.099 120.909 862.174 120.759 862.234 120.579C862.294 120.368 862.324 120.128 862.324 119.858L862.459 116.617C862.459 116.317 862.414 116.122 862.324 116.032C862.234 115.942 862.129 115.897 862.009 115.897C861.949 115.897 861.874 115.912 861.784 115.942C861.694 115.972 861.589 116.017 861.469 116.077C860.598 116.497 859.953 116.932 859.533 117.382C859.113 117.802 858.903 118.493 858.903 119.453C858.903 120.323 859.083 120.924 859.443 121.254C859.803 121.554 860.178 121.704 860.568 121.704ZM881.298 124.63C879.708 124.63 878.267 124.21 876.977 123.37C875.716 122.499 874.711 121.344 873.96 119.903C873.24 118.433 872.88 116.782 872.88 114.951C872.88 113 873.33 111.245 874.23 109.684C875.131 108.123 876.331 106.878 877.832 105.947C879.363 105.017 881.058 104.552 882.919 104.552C885.38 104.552 887.421 105.362 889.042 106.983C889.312 107.283 889.447 107.553 889.447 107.793C889.447 107.973 889.312 108.243 889.042 108.604C888.772 108.934 888.471 109.234 888.141 109.504C887.811 109.774 887.526 109.909 887.286 109.909C887.016 109.909 886.746 109.834 886.476 109.684C886.235 109.504 885.995 109.309 885.755 109.099C884.975 108.438 884.18 107.913 883.369 107.523C882.589 107.103 881.914 106.893 881.343 106.893C880.203 106.893 879.333 107.373 878.732 108.333C878.162 109.264 877.877 110.794 877.877 112.925C877.877 114.396 878.102 115.671 878.552 116.752C879.032 117.802 879.708 118.613 880.578 119.183C881.448 119.753 882.499 120.038 883.729 120.038C884.63 120.038 885.41 119.903 886.07 119.633C886.731 119.333 887.421 118.883 888.141 118.283C888.291 118.193 888.411 118.103 888.501 118.012C888.621 117.922 888.757 117.877 888.907 117.877C889.267 117.877 889.447 118.118 889.447 118.598C889.447 118.718 889.417 118.898 889.357 119.138C889.327 119.348 889.237 119.588 889.087 119.858C888.817 120.459 888.291 121.134 887.511 121.884C886.761 122.634 885.86 123.28 884.81 123.82C883.759 124.36 882.589 124.63 881.298 124.63ZM900.167 124.63C898.186 124.63 896.701 124.135 895.71 123.145C894.72 122.124 894.225 120.699 894.225 118.868V108.513C894.225 108.243 894.12 108.048 893.91 107.928C893.73 107.808 893.369 107.733 892.829 107.703H892.244C892.034 107.703 891.854 107.538 891.704 107.208C891.584 106.848 891.524 106.533 891.524 106.263C891.524 106.203 891.539 106.127 891.569 106.037C891.629 105.917 891.704 105.842 891.794 105.812C892.514 105.542 893.279 105.137 894.09 104.597C894.93 104.027 895.725 103.426 896.476 102.796C897.256 102.166 897.886 101.641 898.367 101.22C898.577 101.07 898.757 100.935 898.907 100.815C899.057 100.695 899.252 100.635 899.492 100.635C899.762 100.635 899.957 100.695 900.077 100.815C900.197 100.905 900.227 101.145 900.167 101.536L899.897 104.192C899.867 104.552 899.942 104.807 900.122 104.957C900.332 105.077 900.617 105.137 900.978 105.137H906.335C906.425 105.137 906.515 105.242 906.605 105.452C906.695 105.662 906.74 105.857 906.74 106.037C906.74 106.458 906.68 106.863 906.56 107.253C906.44 107.643 906.305 107.838 906.155 107.838H901.968C901.278 107.838 900.798 107.928 900.527 108.108C900.287 108.258 900.167 108.543 900.167 108.964V117.472C900.167 118.853 900.422 119.888 900.933 120.579C901.473 121.239 902.178 121.569 903.049 121.569C903.919 121.569 904.549 121.479 904.939 121.299C905.359 121.119 905.735 120.969 906.065 120.849C906.185 120.789 906.275 120.759 906.335 120.759C906.485 120.759 906.605 120.849 906.695 121.029C906.785 121.209 906.83 121.419 906.83 121.659C906.83 121.839 906.515 122.169 905.885 122.649C905.254 123.13 904.429 123.58 903.409 124C902.418 124.42 901.338 124.63 900.167 124.63ZM936.106 124.63C933.765 124.63 931.574 124.285 929.533 123.595C927.493 122.875 925.692 121.869 924.131 120.579C922.57 119.258 921.355 117.682 920.485 115.852C919.614 114.021 919.179 111.995 919.179 109.774C919.179 107.703 919.584 105.737 920.395 103.877C921.235 101.986 922.45 100.32 924.041 98.8794C925.632 97.4088 927.538 96.2533 929.758 95.413C932.009 94.5426 934.545 94.1074 937.367 94.1074C938.327 94.1074 939.287 94.1824 940.248 94.3325C941.238 94.4526 942.184 94.6326 943.084 94.8727C944.014 95.1128 944.855 95.3679 945.605 95.6381C945.875 95.7581 946.1 95.9232 946.28 96.1333C946.491 96.3133 946.611 96.5835 946.641 96.9436C946.761 97.934 946.851 98.8944 946.911 99.8248C946.971 100.755 947.001 101.596 947.001 102.346C947.001 102.676 946.881 102.901 946.641 103.021C946.4 103.141 946.13 103.156 945.83 103.066C945.56 102.946 945.365 102.706 945.245 102.346C945.035 101.656 944.78 100.965 944.48 100.275C944.21 99.5847 943.789 98.9845 943.219 98.4743C942.619 97.874 941.779 97.3788 940.698 96.9886C939.648 96.5985 938.372 96.4034 936.871 96.4034C935.341 96.4034 933.945 96.7335 932.685 97.3938C931.454 98.0541 930.389 98.9545 929.488 100.095C928.618 101.235 927.943 102.526 927.463 103.967C926.982 105.407 926.742 106.908 926.742 108.468C926.742 110.449 926.952 112.295 927.372 114.006C927.793 115.686 928.438 117.142 929.308 118.373C930.179 119.603 931.244 120.564 932.505 121.254C933.765 121.944 935.251 122.289 936.962 122.289C939.182 122.289 940.983 121.824 942.364 120.894C943.744 119.933 944.9 118.478 945.83 116.527C946.07 115.987 946.4 115.732 946.821 115.762C947.271 115.792 947.496 116.047 947.496 116.527C947.496 116.917 947.451 117.397 947.361 117.967C947.301 118.508 947.196 119.093 947.046 119.723C946.896 120.353 946.716 120.999 946.506 121.659C946.385 122.019 946.22 122.304 946.01 122.514C945.83 122.694 945.59 122.86 945.29 123.01C944.15 123.49 942.799 123.88 941.238 124.18C939.678 124.48 937.967 124.63 936.106 124.63ZM955.071 124.63C954.261 124.63 953.51 124.435 952.82 124.045C952.13 123.655 951.575 123.145 951.154 122.514C950.764 121.884 950.569 121.194 950.569 120.444C950.569 119.423 950.884 118.568 951.515 117.877C952.175 117.187 953.135 116.572 954.396 116.032L958.402 114.276C959.003 114.006 959.363 113.766 959.483 113.556C959.633 113.346 959.708 112.955 959.708 112.385L959.753 109.819C959.783 108.979 959.633 108.318 959.303 107.838C958.973 107.328 958.477 107.073 957.817 107.073C957.427 107.073 957.037 107.163 956.647 107.343C956.257 107.493 955.956 107.673 955.746 107.883C955.656 108.003 955.581 108.153 955.521 108.333C955.491 108.483 955.476 108.649 955.476 108.829C955.476 109.009 955.491 109.234 955.521 109.504C955.551 109.744 955.566 109.954 955.566 110.134C955.566 110.314 955.326 110.554 954.846 110.854C954.366 111.125 953.811 111.38 953.18 111.62C952.55 111.83 952.01 111.935 951.56 111.935C951.349 111.935 951.154 111.845 950.974 111.665C950.824 111.485 950.749 111.26 950.749 110.99C950.749 110.509 950.914 110.044 951.244 109.594C951.575 109.114 952.115 108.574 952.865 107.973C953.645 107.313 954.501 106.728 955.431 106.218C956.362 105.707 957.277 105.302 958.177 105.002C959.108 104.702 959.888 104.552 960.518 104.552C962.139 104.552 963.43 105.077 964.39 106.127C965.35 107.148 965.801 108.513 965.741 110.224L965.515 119.318C965.485 120.008 965.605 120.594 965.876 121.074C966.146 121.554 966.476 121.794 966.866 121.794C967.436 121.794 967.931 121.599 968.352 121.209C968.442 121.119 968.532 121.074 968.622 121.074C968.772 121.074 968.892 121.119 968.982 121.209C969.102 121.299 969.162 121.419 969.162 121.569C969.162 121.929 968.892 122.394 968.352 122.965C967.781 123.505 967.181 123.91 966.551 124.18C965.921 124.48 965.26 124.63 964.57 124.63C962.889 124.63 961.494 123.775 960.383 122.064H960.293C959.303 122.965 958.402 123.61 957.592 124C956.812 124.42 955.971 124.63 955.071 124.63ZM957.772 121.704C958.102 121.704 958.372 121.659 958.583 121.569C958.793 121.449 959.003 121.269 959.213 121.029C959.303 120.909 959.378 120.759 959.438 120.579C959.498 120.368 959.528 120.128 959.528 119.858L959.663 116.617C959.663 116.317 959.618 116.122 959.528 116.032C959.438 115.942 959.333 115.897 959.213 115.897C959.153 115.897 959.078 115.912 958.988 115.942C958.898 115.972 958.793 116.017 958.673 116.077C957.802 116.497 957.157 116.932 956.737 117.382C956.317 117.802 956.106 118.493 956.106 119.453C956.106 120.323 956.287 120.924 956.647 121.254C957.007 121.554 957.382 121.704 957.772 121.704ZM970.894 124.135C970.654 124.135 970.444 124.09 970.264 124C970.084 123.88 969.994 123.715 969.994 123.505C969.994 123.265 970.084 123.085 970.264 122.965C970.444 122.815 970.699 122.694 971.029 122.604C971.69 122.394 972.125 122.169 972.335 121.929C972.575 121.689 972.695 121.344 972.695 120.894V110.539C972.695 109.909 972.605 109.399 972.425 109.009C972.275 108.589 971.915 108.303 971.344 108.153C971.194 108.093 971.059 108.018 970.939 107.928C970.819 107.808 970.759 107.613 970.759 107.343C970.759 106.923 970.939 106.668 971.299 106.578C972.26 106.338 973.31 106.022 974.451 105.632C975.621 105.242 976.612 104.852 977.422 104.462C977.572 104.342 977.752 104.237 977.962 104.147C978.202 104.027 978.367 103.967 978.457 103.967C978.727 103.967 978.863 104.132 978.863 104.462C978.863 104.612 978.848 104.927 978.818 105.407C978.818 105.857 978.803 106.323 978.773 106.803C978.773 107.283 978.757 107.688 978.727 108.018C978.727 108.288 978.788 108.423 978.908 108.423C979.358 107.793 979.883 107.178 980.483 106.578C981.113 105.977 981.789 105.482 982.509 105.092C983.229 104.702 983.935 104.507 984.625 104.507C985.675 104.507 986.411 104.702 986.831 105.092C987.281 105.482 987.506 105.992 987.506 106.623C987.506 107.073 987.371 107.568 987.101 108.108C986.861 108.649 986.546 109.114 986.156 109.504C985.765 109.894 985.345 110.089 984.895 110.089C984.625 110.089 984.34 110.029 984.04 109.909C983.74 109.759 983.439 109.609 983.139 109.459C982.839 109.339 982.539 109.219 982.239 109.099C981.969 108.949 981.714 108.874 981.474 108.874C980.693 108.874 980.018 109.159 979.448 109.729C978.878 110.299 978.592 111.44 978.592 113.15V120.489C978.592 121.089 978.773 121.539 979.133 121.839C979.523 122.109 980.138 122.364 980.978 122.604C981.309 122.694 981.549 122.815 981.699 122.965C981.879 123.085 981.969 123.265 981.969 123.505C981.969 123.925 981.714 124.135 981.204 124.135C980.303 124.135 979.373 124.09 978.412 124C977.452 123.94 976.582 123.91 975.801 123.91C975.291 123.91 974.766 123.925 974.226 123.955C973.715 123.985 973.175 124.015 972.605 124.045C972.065 124.105 971.494 124.135 970.894 124.135ZM1003.23 124.855C1003.14 124.855 1003.01 124.75 1002.83 124.54C1002.68 124.36 1002.6 124.21 1002.6 124.09C1002.66 123.64 1002.71 123.22 1002.74 122.83C1002.8 122.409 1002.83 122.034 1002.83 121.704V121.434C1002.23 122.364 1001.39 123.13 1000.31 123.73C999.257 124.33 998.116 124.63 996.886 124.63C995.205 124.63 993.704 124.21 992.384 123.37C991.093 122.529 990.073 121.389 989.322 119.948C988.572 118.508 988.197 116.932 988.197 115.221C988.197 113.18 988.647 111.365 989.548 109.774C990.448 108.183 991.708 106.938 993.329 106.037C994.95 105.107 996.826 104.642 998.956 104.642C999.407 104.642 999.872 104.687 1000.35 104.777C1000.86 104.837 1001.33 104.927 1001.75 105.047C1002.17 105.137 1002.36 105.182 1002.33 105.182C1002.45 105.182 1002.51 104.987 1002.51 104.597V99.2396C1002.51 98.1591 1002.38 97.3788 1002.11 96.8986C1001.84 96.4184 1001.39 96.1183 1000.76 95.9982C1000.4 95.9082 1000.22 95.6831 1000.22 95.3229C1000.22 94.9328 1000.38 94.7077 1000.71 94.6476C1001.82 94.4075 1002.96 94.1074 1004.13 93.7473C1005.33 93.3571 1006.31 92.9969 1007.06 92.6668C1007.45 92.4867 1007.72 92.3817 1007.87 92.3517C1008.02 92.2917 1008.11 92.2616 1008.14 92.2616C1008.47 92.2616 1008.64 92.4417 1008.64 92.8019C1008.64 92.7118 1008.62 92.8319 1008.59 93.162C1008.56 93.4621 1008.53 93.8673 1008.5 94.3775C1008.47 94.8877 1008.44 95.398 1008.41 95.9082L1008.19 118.598C1008.19 119.618 1008.26 120.353 1008.41 120.804C1008.56 121.254 1008.83 121.479 1009.22 121.479C1009.37 121.479 1009.52 121.464 1009.67 121.434C1009.85 121.404 1010.29 121.374 1010.98 121.344C1011.4 121.314 1011.61 121.464 1011.61 121.794C1011.61 122.034 1011.52 122.289 1011.34 122.559C1011.16 122.83 1010.99 122.965 1010.84 122.965C1009.76 123.085 1008.62 123.28 1007.42 123.55C1006.25 123.82 1005.11 124.165 1004 124.585C1003.82 124.675 1003.67 124.735 1003.55 124.765C1003.43 124.825 1003.32 124.855 1003.23 124.855ZM999.182 121.569C999.632 121.569 1000.19 121.449 1000.85 121.209C1001.54 120.969 1002.09 120.624 1002.51 120.173L1002.47 110.224C1002.47 109.684 1002.26 109.159 1001.84 108.649C1001.45 108.108 1000.94 107.658 1000.31 107.298C999.707 106.938 999.107 106.758 998.506 106.758C997.786 106.758 997.111 107.058 996.48 107.658C995.88 108.228 995.385 109.054 994.995 110.134C994.635 111.185 994.455 112.475 994.455 114.006C994.455 115.236 994.575 116.317 994.815 117.247C995.085 118.178 995.445 118.973 995.895 119.633C996.345 120.263 996.856 120.744 997.426 121.074C997.996 121.404 998.581 121.569 999.182 121.569Z" fill="white"/>
</g>
<g clip-path="url(#clip2_86_62)">
<path d="M971.412 494.269C983.784 494.269 993.825 504.31 993.825 516.681C993.825 529.053 983.784 539.094 971.412 539.094C959.041 539.094 949 529.053 949 516.681C949 504.31 959.041 494.269 971.412 494.269Z" fill="#FBCC5C"/>
<path d="M984.233 513.992C984.233 508.433 979.705 503.906 974.147 503.906C969.933 503.906 966.347 506.461 964.823 510.137C961.237 511.661 958.682 515.247 958.682 519.416C958.682 524.974 963.21 529.501 968.768 529.501C972.981 529.501 976.567 526.946 978.091 523.271C981.633 521.747 984.233 518.161 984.233 513.992ZM968.768 526.991C964.599 526.991 961.192 523.584 961.192 519.416C961.192 517.04 962.313 514.888 964.061 513.499C964.061 513.678 964.061 513.857 964.061 513.992C964.061 519.55 968.589 524.077 974.147 524.077C974.371 524.077 974.55 524.077 974.774 524.077C973.34 525.87 971.188 526.991 968.768 526.991ZM976.119 521.298C975.492 521.478 974.819 521.567 974.147 521.567C969.978 521.567 966.571 518.161 966.571 513.992C966.571 513.319 966.661 512.692 966.84 512.109C967.468 511.93 968.14 511.84 968.813 511.84C972.981 511.84 976.388 515.247 976.388 519.416C976.343 520.088 976.254 520.716 976.119 521.298ZM978.853 519.909C978.853 519.729 978.853 519.55 978.853 519.416C978.853 513.857 974.326 509.33 968.768 509.33C968.544 509.33 968.364 509.33 968.14 509.33C969.53 507.537 971.681 506.416 974.102 506.416C978.271 506.416 981.677 509.823 981.677 513.992C981.677 516.412 980.557 518.519 978.853 519.909Z" fill="white"/>
</g>
<defs>
<filter id="filter0_ii_86_62" x="19.0699" y="18.0699" width="1043.33" height="596.79" filterUnits="userSpaceOnUse" color-interpolation-filters="sRGB">
<feFlood flood-opacity="0" result="BackgroundImageFix"/>
<feBlend mode="normal" in="SourceGraphic" in2="BackgroundImageFix" result="shape"/>
<feColorMatrix in="SourceAlpha" type="matrix" values="0 0 0 0 0 0 0 0 0 0 0 0 0 0 0 0 0 0 127 0" result="hardAlpha"/>
<feOffset dx="4.39512" dy="5.86016"/>
<feGaussianBlur stdDeviation="2.93008"/>
<feComposite in2="hardAlpha" operator="arithmetic" k2="-1" k3="1"/>
<feColorMatrix type="matrix" values="0 0 0 0 0 0 0 0 0 0 0 0 0 0 0 0 0 0 0.15 0"/>
<feBlend mode="normal" in2="shape" result="effect1_innerShadow_86_62"/>
<feColorMatrix in="SourceAlpha" type="matrix" values="0 0 0 0 0 0 0 0 0 0 0 0 0 0 0 0 0 0 127 0" result="hardAlpha"/>
<feOffset dx="-2.93008" dy="-2.93008"/>
<feGaussianBlur stdDeviation="5.86016"/>
<feComposite in2="hardAlpha" operator="arithmetic" k2="-1" k3="1"/>
<feColorMatrix type="matrix" values="0 0 0 0 1 0 0 0 0 1 0 0 0 0 1 0 0 0 0.18 0"/>
<feBlend mode="normal" in2="effect1_innerShadow_86_62" result="effect2_innerShadow_86_62"/>
</filter>
<filter id="filter1_d_86_62" x="-61" y="-103" width="197" height="200" filterUnits="userSpaceOnUse" color-interpolation-filters="sRGB">
<feFlood flood-opacity="0" result="BackgroundImageFix"/>
<feColorMatrix in="SourceAlpha" type="matrix" values="0 0 0 0 0 0 0 0 0 0 0 0 0 0 0 0 0 0 127 0" result="hardAlpha"/>
<feOffset dy="4"/>
<feGaussianBlur stdDeviation="2"/>
<feComposite in2="hardAlpha" operator="out"/>
<feColorMatrix type="matrix" values="0 0 0 0 0 0 0 0 0 0 0 0 0 0 0 0 0 0 0.015 0"/>
<feBlend mode="normal" in2="BackgroundImageFix" result="effect1_dropShadow_86_62"/>
<feBlend mode="normal" in="SourceGraphic" in2="effect1_dropShadow_86_62" result="shape"/>
</filter>
<filter id="filter2_d_86_62" x="1007" y="513" width="197" height="200" filterUnits="userSpaceOnUse" color-interpolation-filters="sRGB">
<feFlood flood-opacity="0" result="BackgroundImageFix"/>
<feColorMatrix in="SourceAlpha" type="matrix" values="0 0 0 0 0 0 0 0 0 0 0 0 0 0 0 0 0 0 127 0" result="hardAlpha"/>
<feOffset dy="4"/>
<feGaussianBlur stdDeviation="2"/>
<feComposite in2="hardAlpha" operator="out"/>
<feColorMatrix type="matrix" values="0 0 0 0 0 0 0 0 0 0 0 0 0 0 0 0 0 0 0.015 0"/>
<feBlend mode="normal" in2="BackgroundImageFix" result="effect1_dropShadow_86_62"/>
<feBlend mode="normal" in="SourceGraphic" in2="effect1_dropShadow_86_62" result="shape"/>
</filter>
<filter id="filter3_d_86_62" x="965" y="-110" width="200" height="197" filterUnits="userSpaceOnUse" color-interpolation-filters="sRGB">
<feFlood flood-opacity="0" result="BackgroundImageFix"/>
<feColorMatrix in="SourceAlpha" type="matrix" values="0 0 0 0 0 0 0 0 0 0 0 0 0 0 0 0 0 0 127 0" result="hardAlpha"/>
<feOffset dy="4"/>
<feGaussianBlur stdDeviation="2"/>
<feComposite in2="hardAlpha" operator="out"/>
<feColorMatrix type="matrix" values="0 0 0 0 0 0 0 0 0 0 0 0 0 0 0 0 0 0 0.015 0"/>
<feBlend mode="normal" in2="BackgroundImageFix" result="effect1_dropShadow_86_62"/>
<feBlend mode="normal" in="SourceGraphic" in2="effect1_dropShadow_86_62" result="shape"/>
</filter>
<filter id="filter4_d_86_62" x="-124" y="516" width="200" height="197" filterUnits="userSpaceOnUse" color-interpolation-filters="sRGB">
<feFlood flood-opacity="0" result="BackgroundImageFix"/>
<feColorMatrix in="SourceAlpha" type="matrix" values="0 0 0 0 0 0 0 0 0 0 0 0 0 0 0 0 0 0 127 0" result="hardAlpha"/>
<feOffset dy="4"/>
<feGaussianBlur stdDeviation="2"/>
<feComposite in2="hardAlpha" operator="out"/>
<feColorMatrix type="matrix" values="0 0 0 0 0 0 0 0 0 0 0 0 0 0 0 0 0 0 0.015 0"/>
<feBlend mode="normal" in2="BackgroundImageFix" result="effect1_dropShadow_86_62"/>
<feBlend mode="normal" in="SourceGraphic" in2="effect1_dropShadow_86_62" result="shape"/>
</filter>
<linearGradient id="paint0_linear_86_62" x1="544.29" y1="-103.506" x2="767.585" y2="931.843" gradientUnits="userSpaceOnUse">
<stop stop-color="#49D07D"/>
<stop offset="1" stop-color="#538A3F"/>
</linearGradient>
<clipPath id="clip0_86_62">
<rect width="125.488" height="118.051" fill="white" transform="translate(154 244.932)"/>
</clipPath>
<clipPath id="clip1_86_62">
<rect width="182.19" height="182.19" fill="white" transform="translate(447.976 187.301)"/>
</clipPath>
<clipPath id="clip2_86_62">
<rect width="44.8251" height="44.8251" fill="white" transform="translate(949 494.269)"/>
</clipPath>
</defs>
</svg>
